<svg width="20" height="20" fill="none" xmlns="http://www.w3.org/2000/svg"><g clip-path="url(#a)" fill="#484649"><path d="M10 1.667a6.667 6.667 0 0 0-6.666 6.6c0 4.567 5.875 9.65 6.125 9.867a.833.833 0 0 0 1.083 0c.292-.217 6.125-5.3 6.125-9.867a6.667 6.667 0 0 0-6.666-6.6zm0 14.708c-1.391-1.325-5-5-5-8.108a5 5 0 0 1 10 0c0 3.083-3.608 6.783-5 8.108z"/><path d="M10 5a2.917 2.917 0 1 0 0 5.833A2.917 2.917 0 0 0 10 5zm0 4.167a1.25 1.25 0 1 1 0-2.5 1.25 1.25 0 0 1 0 2.5z"/></g><defs><clipPath id="a"><path fill="#fff" d="M0 0h20v20H0z"/></clipPath></defs></svg>