<svg width="89" height="89" fill="none" xmlns="http://www.w3.org/2000/svg"><g clip-path="url(#a)"><path d="m36.643 4.398-7.596 4.38-.018 1.86v1.878H12.516l-.035 8.204-.052 8.188-6.206 3.58L0 36.07l.052 9.022.035 9.004 6.206 3.599 6.223 3.58v15.21H29.029v1.86l.018 1.878 7.613 4.38C40.85 87.018 44.378 89 44.5 89c.122 0 3.65-1.982 7.84-4.398l7.613-4.38.018-1.878v-1.86H76.484v-15.21l6.223-3.58 6.206-3.581.035-9.022.052-9.022-6.223-3.58-6.206-3.581-.052-8.205-.035-8.187H59.971v-1.878l-.018-1.86L52.34 4.38C48.15 1.982 44.622 0 44.483 0c-.14.017-3.668 1.982-7.84 4.398zm11.56 3.876c1.929 1.113 3.528 2.034 3.546 2.051.087.07-7.058 4.103-7.249 4.103-.122 0-1.808-.922-3.737-2.034l-3.529-2.034 3.511-2.051c1.912-1.113 3.599-2.034 3.72-2.034.122-.017 1.808.887 3.737 2zm-9.96 8.952 3.65 2.104v4.154c0 2.277-.035 4.155-.087 4.155-.052 0-1.739-.956-3.738-2.104l-3.65-2.12v-4.137c0-2.295.035-4.155.087-4.155.052 0 1.738.939 3.737 2.103zm16.339 2.052v4.154l-3.65 2.103c-2 1.165-3.686 2.104-3.738 2.104-.052 0-.087-1.878-.087-4.155V19.33l3.616-2.104c1.982-1.147 3.65-2.086 3.737-2.103.07 0 .122 1.877.122 4.155zm-25.518 2.99.052 4.363 7.631 4.415c4.207 2.433 7.684 4.415 7.753 4.415.07 0 3.563-1.982 7.753-4.415l7.63-4.415.053-4.364.035-4.363h11.125v10.864l-6.397 3.686-6.38 3.667-.052 8.935-.035 8.918 6.432 3.72 6.432 3.702v9.7H59.97l-.035-4.363-.052-4.38-7.631-4.399c-4.19-2.433-7.666-4.415-7.736-4.415-.087 0-3.563 1.982-7.77 4.415l-7.63 4.416-.053 4.363-.035 4.363H17.904V61.414l6.432-3.72 6.432-3.72-.035-8.918-.052-8.934-6.38-3.668-6.38-3.685-.017-5.441v-5.424H29.03l.035 4.363zM18.895 35.582c1.93 1.13 3.529 2.086 3.529 2.138 0 .121-.018.121-3.86 2.329l-3.267 1.877-3.564-2.05C9.77 38.728 8.17 37.772 8.17 37.72c0-.087 6.936-4.137 7.11-4.172.034 0 1.668.921 3.615 2.034zm58.389 0c1.947 1.13 3.546 2.086 3.546 2.138 0 .052-1.6 1.025-3.563 2.155l-3.564 2.051-3.563-2.05c-1.965-1.13-3.564-2.104-3.564-2.156 0-.087 6.936-4.155 7.11-4.172.034 0 1.651.921 3.598 2.034zM9.508 44.848l3.182 1.825v8.448l-.73-.435c-.418-.243-2.07-1.2-3.703-2.138l-2.955-1.72-.052-4.225-.035-4.224.556.33c.313.174 2 1.148 3.737 2.139zm15.87 1.773-.017 4.224-3.476 1.999c-1.912 1.095-3.564 2.016-3.65 2.05-.087.036-.157-1.65-.157-4.101V46.62l3.616-2.104c1.981-1.147 3.615-2.103 3.65-2.103.017 0 .035 1.895.035 4.207zm42.154-1.982 3.303 1.93.052 4.189c.017 2.555-.017 4.172-.122 4.137-.087-.018-1.738-.956-3.65-2.051l-3.476-2-.018-4.223c0-3.964.017-4.207.313-4.05.156.086 1.79 1.025 3.598 2.068zm16.184 6.05c-.035.104-1.46.99-3.181 1.98-1.704.974-3.355 1.93-3.65 2.122l-.575.347v-8.465l3.703-2.12 3.685-2.122.052 4.033c.018 2.208 0 4.12-.034 4.224zM48.272 61.917c1.843 1.077 3.355 1.981 3.355 2.033 0 .053-1.6 1.026-3.564 2.156L44.5 68.158l-3.563-2.051c-1.947-1.13-3.564-2.086-3.564-2.138 0-.209 7.058-4.172 7.283-4.085.14.052 1.756.973 3.616 2.034zm-9.3 9.317 2.92 1.686v8.413l-3.685-2.138-3.702-2.12-.052-4.225-.035-4.224.817.47c.452.243 2.138 1.217 3.737 2.138zm15.401 5.858c-.121.121-1.633 1.008-3.354 1.999-1.721.99-3.303 1.912-3.512 2.051l-.4.243v-8.465l3.703-2.12 3.685-2.139.052 4.12c.035 3.146-.017 4.172-.174 4.31z" fill="url(#b)"/></g><defs><linearGradient id="b" x1="-8.807" y1="79.286" x2="110.478" y2="55.931" gradientUnits="userSpaceOnUse"><stop stop-color="#3F14A5"/><stop offset="1" stop-color="#5FC2EE"/></linearGradient><clipPath id="a"><path fill="#fff" d="M0 0h89v89H0z"/></clipPath></defs></svg>