<svg width="89" height="89" fill="none" xmlns="http://www.w3.org/2000/svg"><g clip-path="url(#a)"><path d="m38.798.243-1.616.192-1.339 2.937c-1.112 2.434-1.408 2.973-1.773 3.077-.243.07-1.338.417-2.433.765l-2.017.643-2.798-1.582-2.782-1.6-1.72.992c-3.216 1.86-5.997 3.894-8.57 6.275l-1.13 1.025.66 3.147.644 3.129-1.495 2.068a167.894 167.894 0 0 1-1.547 2.104c-.018.017-1.443.208-3.147.4-1.72.208-3.18.434-3.268.503-.295.296-2.05 4.607-2.711 6.675-.574 1.808-1.582 5.963-1.582 6.52 0 .069 1.06 1.094 2.347 2.276l2.346 2.138v5.146L2.521 49.21C1.234 50.393.174 51.418.174 51.488c0 .556 1.008 4.71 1.582 6.518.66 2.069 2.416 6.38 2.711 6.675.087.07 1.547.296 3.268.505 1.704.19 3.13.382 3.147.4.017.017.712.955 1.53 2.103l1.512 2.068-.643 3.13-.661 3.128 1.13 1.043c2.573 2.381 5.354 4.415 8.57 6.275l1.72.991 2.8-1.6 2.798-1.598 1.999.66c1.095.348 2.19.695 2.433.765.348.104.66.643 1.773 3.077l1.339 2.937 1.703.209c2.417.278 8.414.26 10.917-.035 1.147-.139 2.138-.26 2.225-.26.07 0 .121-4.572.121-10.17V68.142H48.55c-3.946-.018-7.266-.209-8.691-.522l-.922-.209v-1.877c0-2.19-.33-4.293-.973-6.101-.243-.713-.487-1.426-.539-1.6-.087-.278.26-.295 5.493-.295h5.58l2.608 3.911 2.607 3.911H61.5l.487.991c.66 1.373 2.138 2.816 3.633 3.546 1.182.574 1.27.591 3.39.591s2.207-.017 3.39-.59c5.962-2.921 5.962-11.37 0-14.29-1.183-.573-1.27-.59-3.39-.59s-2.208.017-3.39.59c-1.495.73-2.972 2.173-3.633 3.547l-.487.99H56.755l-2.59-3.91-2.59-3.912H33.74l-.33-.486c-.748-1.044-1.947-3.825-1.947-4.503 0-.19 3.529-.226 20.998-.208h20.981l.47.99c.643 1.374 2.016 2.695 3.598 3.477 1.286.626 1.338.643 3.407.643s2.12-.017 3.407-.643c2.173-1.078 3.65-2.85 4.241-5.093.957-3.685-.764-7.37-4.241-9.091-1.182-.574-1.443-.643-3.042-.696-1.46-.052-1.947 0-2.868.313-1.964.66-3.668 2.121-4.502 3.86l-.47.99h-20.98c-17.47.017-21-.017-21-.208 0-.678 1.2-3.46 1.948-4.52l.33-.47h17.835l2.59-3.91 2.59-3.912H61.5l.487.991c.66 1.373 2.138 2.816 3.633 3.546 1.182.574 1.27.591 3.39.591s2.207-.017 3.39-.59c5.962-2.921 5.962-11.369 0-14.29-1.183-.573-1.27-.59-3.39-.59s-2.208.017-3.39.59c-1.495.73-2.972 2.173-3.633 3.53L61.5 23.64h-7.787l-2.608 3.91-2.607 3.912h-5.58c-5.232 0-5.58-.018-5.493-.313.052-.156.296-.87.54-1.582.642-1.808.972-3.911.972-6.101v-1.878l.8-.19c1.234-.314 4.798-.522 8.813-.54h3.598V10.69c0-5.597-.052-10.169-.121-10.169-.087 0-1.078-.121-2.225-.26-2.469-.296-8.622-.313-11.004-.018zM45.56 5.39h1.2v10.203l-3.425.105c-3.667.104-5.388.382-8.483 1.425-9.82 3.285-17.313 12.064-19.12 22.424-1.687 9.7 1.686 19.538 9.038 26.352 4.05 3.737 9.335 6.275 15.037 7.197.956.139 2.764.26 4.31.26h2.643v10.221l-1.39.07a41.45 41.45 0 0 1-2.939 0l-1.547-.052-1.269-2.799-1.286-2.781-2.347-.591c-1.286-.33-3.32-.99-4.502-1.46l-2.155-.87-2.66 1.478-2.66 1.495-1.529-1.025c-1.964-1.322-3.876-2.834-3.876-3.077 0-.105.26-1.46.59-3.025l.609-2.85-1.008-1.148a33.99 33.99 0 0 1-3.564-4.832c-1.13-1.825-.59-1.582-4.693-2.051-1.234-.14-2.312-.313-2.364-.383-.226-.26-1.2-3.007-1.651-4.658l-.452-1.652 1.095-1.008c.59-.539 1.616-1.46 2.242-2.034l1.165-1.043-.122-.956c-.139-1.234-.139-6.414 0-7.648l.122-.956-1.165-1.043c-.626-.574-1.651-1.495-2.242-2.034l-1.095-1.008.452-1.652c.452-1.651 1.425-4.397 1.65-4.658.053-.07 1.13-.244 2.365-.383 4.102-.469 3.563-.226 4.693-2.05a33.985 33.985 0 0 1 3.564-4.833l1.008-1.148-.608-2.85c-.33-1.565-.591-2.92-.591-3.025 0-.243 1.912-1.756 3.876-3.077l1.53-1.025 2.66 1.495 2.659 1.477 2.155-.869a45.421 45.421 0 0 1 4.502-1.46l2.347-.591 1.286-2.799 1.287-2.781 1.495-.052c.817-.035 1.599-.035 1.72-.018.14.035.783.053 1.443.053zM33.497 24.805c-.244 2.764-1.182 4.885-3.338 7.631-1.808 2.277-3.18 4.954-3.859 7.458-.4 1.547-.452 2.05-.452 4.606 0 2.555.052 3.06.452 4.606.678 2.503 2.051 5.18 3.86 7.458 1.581 1.999 2.502 3.685 2.954 5.406.348 1.303.54 3.39.313 3.39-.087 0-.73-.348-1.443-.783-4.693-2.903-8.326-7.492-10.082-12.741-.886-2.695-1.13-4.19-1.13-7.336s.244-4.641 1.13-7.336c1.756-5.25 5.389-9.838 10.082-12.741.713-.435 1.356-.782 1.443-.782.104 0 .122.486.07 1.164zm36.8-.66c.747.504 1.146 1.216 1.146 2.103 0 .886-.4 1.6-1.147 2.103-1.06.696-2.642.313-3.39-.817-.695-1.06-.312-2.642.817-3.39.313-.19.817-.33 1.287-.33s.973.14 1.286.33zm12.097 18.408c1.339.974 1.304 3.06-.069 3.946-.713.47-1.39.591-2.086.348-2.399-.835-2.399-3.86 0-4.694.73-.243 1.443-.121 2.155.4zM70.296 60.65c.748.504 1.147 1.216 1.147 2.103 0 1.39-1.043 2.434-2.433 2.434s-2.434-1.044-2.434-2.434c0-1.39 1.043-2.434 2.434-2.434.47 0 .973.14 1.286.33z" fill="url(#b)"/><path d="M57.19 10.864v2.695h5.388V8.17H57.19v2.694z" fill="url(#c)"/><path d="M57.19 78.136v2.694h5.388V75.441H57.19v2.695z" fill="url(#d)"/></g><defs><linearGradient id="b" x1="4.052" y1="81.396" x2="118.001" y2="66.283" gradientUnits="userSpaceOnUse"><stop stop-color="#5B4C9F"/><stop offset=".495" stop-color="#6F87FF"/><stop offset=".943" stop-color="#BB85CB"/></linearGradient><linearGradient id="c" x1="57.425" y1="13.1" x2="64.351" y2="12.178" gradientUnits="userSpaceOnUse"><stop stop-color="#5B4C9F"/><stop offset=".495" stop-color="#6F87FF"/><stop offset=".943" stop-color="#BB85CB"/></linearGradient><linearGradient id="d" x1="57.425" y1="80.371" x2="64.351" y2="79.45" gradientUnits="userSpaceOnUse"><stop stop-color="#5B4C9F"/><stop offset=".495" stop-color="#6F87FF"/><stop offset=".943" stop-color="#BB85CB"/></linearGradient><clipPath id="a"><path fill="#fff" d="M0 0h89v89H0z"/></clipPath></defs></svg>