<svg width="267" height="62" viewBox="0 0 267 62" fill="none" xmlns="http://www.w3.org/2000/svg">
<g clip-path="url(#clip0_11601_4481)">
<mask id="mask0_11601_4481" style="mask-type:luminance" maskUnits="userSpaceOnUse" x="0" y="0" width="267" height="62">
<path d="M267 0H0V62H267V0Z" fill="white"/>
</mask>
<g mask="url(#mask0_11601_4481)">
<path d="M73.0215 41.7387H80.9401V30.894H94.3857V25.7627H80.9401V20.1022H95.8737V14.918H73.0215V41.7387Z" fill="#3F14A5"/>
<path d="M107.883 14.918H99.9648V41.7387H107.883V14.918Z" fill="#3F14A5"/>
<path d="M133.607 30.6825H133.341L119.789 14.918H112.986V41.7387H120.852V26.0272H121.118L134.776 41.7387H141.525V14.918H133.607V30.6825Z" fill="#3F14A5"/>
<path d="M154.546 30.8942H168.735V25.7628H154.546V20.1023H169.904V14.9181H146.627V41.7388H169.957V36.6075H154.546V30.8942Z" fill="#3F14A5"/>
<path d="M195.625 30.6825H195.359L181.808 14.918H175.006V41.7387H182.923V26.0272H183.136L196.794 41.7387H203.544V14.918H195.625V30.6825Z" fill="#3F14A5"/>
<path d="M216.564 30.894H230.755V25.7627H216.564V20.1022H231.977V14.918H208.646V41.7387H232.03V36.6073H216.564V30.894Z" fill="#3F14A5"/>
<path d="M256.529 28.3548L266.681 14.918H257.805L251.481 23.5408H251.215L244.944 14.918H235.963L246.166 28.3548L235.75 41.7387H244.785L251.215 33.063H251.481L257.911 41.7387H266.999L256.529 28.3548Z" fill="#3F14A5"/>
<path d="M62.3922 26.5564L41.5062 5.71331L40.0182 4.23208L37.6797 1.90443L36.1386 0.370307L35.7666 0L26.2005 1.05802L1.75378 25.3925L0.425159 26.7151L0 35.3379H0.0531449L26.3067 61.4709L35.926 62L60.6383 37.4011L61.6481 36.3959L61.8607 36.1842L61.9138 36.1314L61.8607 36.0785L62.3922 26.6092V26.5564ZM36.2979 3.22697L38.6364 5.55461L34.9163 9.25768L33.5876 10.5802L30.824 13.3311L29.4954 14.6536L14.0834 30.0477L11.6919 27.7202L36.2979 3.22697ZM31.0898 16.0819L46.6081 31.5291L31.0898 46.9761L15.5715 31.5291L31.0898 16.0819ZM27.2102 3.01536L34.2784 2.22184L10.2038 26.186L8.92835 27.4557V27.5085L29.7611 48.2457L27.2633 50.7849L3.24183 26.8738L27.2102 3.01536ZM2.07265 34.8089L2.39151 28.6723L25.9347 52.1075L22.6928 55.3344L2.07265 34.8089ZM24.181 56.8158L27.4228 53.5887L28.7514 52.2661L31.2493 49.7798L32.5778 48.4573L48.0961 33.0103L50.4345 35.3379L26.5725 59.1433L24.181 56.8158ZM35.0756 59.831L29.1765 59.5137L51.9226 36.872L53.2512 35.5495L51.7631 34.0683L49.3717 31.7406L47.8835 30.2594L32.3652 14.8122L35.1288 12.0614L59.0971 35.9198L35.0756 59.831ZM59.8943 34.0683L36.4574 10.7389L40.1775 7.03583L60.2663 27.0324L59.8943 34.0683Z" fill="#3F14A5"/>
</g>
</g>
<defs>
<clipPath id="clip0_11601_4481">
<rect width="267" height="62" fill="white"/>
</clipPath>
</defs>
</svg>
