<svg width="763" height="378" fill="none" xmlns="http://www.w3.org/2000/svg"><path d="M196.935.005c-.495.028-.832.12-.918.249-.229.342-1.163.427-2.105.2-.943-.228-2.401-.14-3.238.198-.839.338-1.971.55-2.511.474-.927-.132-2.232 1.737-2.429 3.486-.049.439-1.729.689-3.751.548-2.694-.187-3.628.026-3.455.797.156.692-.704 1.065-2.537 1.096-1.532.026-3.046.295-3.373.598-.329.303-1.996.59-3.698.648l-3.104.1 3.023.497c1.662.271 2.828.75 2.591 1.071-.237.32.449 1.164 1.538 1.868 1.524.985 2.259 1.083 3.185.374.806-.617 1.731-.683 2.78-.175 4.03 1.955 8.39 1.872 12.712-.249 2.969-1.456 4.512-1.813 5.155-1.22 1.388 1.28-.856 2.776-6.801 4.583-3.8 1.154-5.683 1.368-7.072.797-2.017-.83-4.588-.312-4.588.921 0 1.262 6.151 4.17 7.801 3.686 2.024-.593 2.9.739 1.295 1.968-1.777 1.36-10.392.061-10.392-1.57 0-.653-.672-1.656-1.484-2.216-.811-.56-1.247-1.553-.972-2.217.276-.663.172-1.133-.242-1.046-.889.188-3.675-.69-5.506-1.743-2.57-1.477-3.477-1.713-4.939-1.195-1.274.45-1.305.634-.216 1.27 1.263.736 1.03.874-1.97 1.095-.594.044-1.535.603-2.079 1.246-1.25 1.477.851 3.133 4.022 3.188 1.187.02 2.742.403 3.455.822 1.013.595.678.872-1.593 1.295-2.334.434-2.645.684-1.511 1.27.776.4 1.193 1.058.917 1.47-.279.416.98.747 2.861.747 2.273 0 3.888-.522 4.94-1.595 1.196-1.22 1.825-1.387 2.725-.697.646.495 2.345 1.482 3.779 2.192 1.433.71 2.681 1.654 2.753 2.092.219 1.345-2.69 1.378-4.13.05-.747-.69-.966-1.245-.486-1.245.481 0 1.11.358 1.404.796.293.439 1.18.797 1.97.797 1.109 0 .975-.298-.566-1.295-1.65-1.066-2.383-1.115-4.265-.323-2.043.859-2.137 1.044-.783 1.743 1.584.818 1.253 2.287-.513 2.266-.617-.007-.508-.332.27-.797.713-.425.907-.772.432-.772-1.416 0-3.45 1.45-2.834 2.018.315.29 3.955.652 8.097.822 4.142.169 7.749.5 7.989.722.616.568.957.528 4.183-.548 2.972-.992 4.032-2.372 1.323-1.719-2.144.518-6.459-1.132-5.749-2.191.318-.476 1.514-.642 2.672-.374 1.246.289 3.244-.057 4.885-.847 1.523-.733 3.31-1.57 3.995-1.868.684-.297 1.41-1.015 1.619-1.594.275-.762-.201-.907-1.755-.547-1.179.273-2.395.255-2.698-.025-.981-.905 1.313-2.64 3.481-2.64 1.157 0 1.866-.34 1.593-.748-.882-1.316.948-1.608 3.778-.622 2.269.79 2.882.76 3.509-.175.418-.625 3.813-2.51 7.529-4.159 3.717-1.65 6.304-2.993 5.749-3.013-.555-.021-1.72-.263-2.591-.523-1.174-.352-1.295-.271-.432.298.888.587.543.967-1.484 1.62-2.779.893-4.322.105-2.483-1.27.588-.441 2.828-1.33 4.966-1.993 5.16-1.603 8.637-3.1 8.637-3.711 0-.274-1.069-1.078-2.375-1.769-1.72-.91-3.09-1.066-4.966-.572-2.857.751-5.143.328-4.373-.822C218.316.8 213.925.15 208.837.603c-2.463.219-6.243.076-8.42-.3-1.089-.187-2.15-.287-2.942-.298-.199-.003-.375-.01-.54 0zm82.129 0c-2.309.022-3.96.428-3.562 1.021.993 1.484-1.964 1.716-4.777.374-2.101-1.003-3.267-1.136-4.723-.523-1.331.559-2.234.553-2.862-.025-1.2-1.108-3.616-.207-3.616 1.345 0 1.604 1.404 1.572 2.078-.05.456-1.095.82-1.025 2.618.573 1.412 1.254 1.825 2.17 1.269 2.79-.711.79-5.075.904-9.42.248-3.258-.492-5.984.085-5.532 1.17.672 1.618-.987 2.266-2.24.872-1.29-1.434-2.674-1.568-2.375-.224.155.7-1.238.917-4.967.747-4.931-.224-10.67 1.311-9.365 2.516.862.795-1.586 3.057-2.834 2.615-.621-.22-1.352-.076-1.62.324-.267.4-.974.558-1.565.348-1.414-.5-7.997 2.453-6.882 3.089.472.27 2.076.169 3.563-.224 3.559-.942 4.166.127 1.754 3.138-1.334 1.665-2.675 2.415-4.319 2.415-1.307 0-2.616.377-2.914.822a1.062 1.062 0 0 1-1.377.324c-1.079-.616-6.828 1.145-6.828 2.092 0 .74 1.046.915 7.26 1.071 1.863.047 3.553.522 3.751 1.071.399 1.1-.315 1.39-5.398 2.242-3.103.52-3.234.632-1.295 1.095 1.187.284 1.965.822 1.727 1.196-.644 1.016 2.768 1.911 4.75 1.245.951-.319 4.812-.637 8.583-.722 3.771-.085 7.165-.34 7.53-.548.365-.208 1.205.622 1.889 1.843.684 1.22 2.078 2.902 3.077 3.736.998.834 1.808 1.944 1.808 2.465 0 .522.743 1.562 1.646 2.317 1.144.955 1.52 2.083 1.242 3.71-.459 2.69.993 3.214 1.728.623.396-1.4.716-1.546 1.727-.772 2.948 2.258 2.195 5.044-1.593 5.903-1.185.269-.889.41.945.473 1.47.05 3.312.764 4.102 1.57 1.345 1.37 1.346 1.564-.27 2.913-1.626 1.359-1.66 1.48-.243 2.44 1.379.935 1.314 1.102-.863 1.869-1.306.46-2.375 1.24-2.375 1.743 0 .665.353.651 1.268-.05 2.006-1.536 3.424-.141 1.673 1.644-.816.834-1.131 1.53-.702 1.544.431.014.078.52-.782 1.121-1.007.705-1.219 1.278-.621 1.619.512.291.661.951.324 1.47-.391.602-.13.562.756-.1 1.568-1.173 2.664-.232 1.592 1.37-.447.668.17 2.265 1.701 4.358 3.351 4.582 5.725 6.408 8.447 6.45 1.28.02 2.369.474 2.429 1.022.059.548.156 1.2.216 1.444.229.943 5.308-2.454 5.398-3.611.053-.672.026-1.995-.054-2.94-.081-.943.253-1.953.755-2.24.503-.288.918-1.18.918-1.993 0-1.716 7.593-8.184 8.798-7.497.446.254 1.931.023 3.293-.498 2.443-.934 3.643-2.444 3.805-4.782.047-.657.567-1.106 1.161-.996.594.11 1.847-.509 2.78-1.37 1.352-1.248 2.808-1.537 7.152-1.47 3.349.053 6.435-.399 8.016-1.145 1.415-.668 3.924-1.496 5.587-1.843l3.023-.622-3.023-.623c-1.663-.337-3.841-.403-4.858-.175-2.183.491-3.635-1.114-1.646-1.818.75-.266 1.26-1.076 1.133-1.793-.161-.904.521-1.365 2.213-1.544 1.873-.198 2.528.126 2.888 1.395.572 2.02 2.861 2.198 2.861.224 0-1.858-4.689-4.411-6.91-3.76-2.353.688-3.807-.237-2.563-1.62.737-.82.523-1.257-.864-1.942-2.466-1.218-1.282-2.622 1.7-2.018 1.97.4 2.398.234 2.294-.921-.182-2.022 2.807-1.859 5.776.324 1.343.987 3.078 1.793 3.859 1.793 1.102 0 .986-.277-.513-1.245-2.454-1.587-1.724-2.74 1.755-2.74 2.564 0 2.614-.062 1.025-1.17-.921-.644-1.284-1.23-.809-1.296.475-.066-.276-.345-1.674-.622-3.305-.655-3.335-1.943-.054-2.59l2.591-.499-2.752-.1c-1.517-.051-2.987-.43-3.266-.846-.847-1.264 2.667-2.466 5.64-1.918 2.086.385 2.646.279 2.16-.448-.359-.536-.854-.78-1.107-.548-.844.779-3.838-1.24-3.401-2.291.237-.57.003-1.418-.512-1.893-.674-.622-.277-1.089 1.376-1.669 1.265-.444 2.294-1.346 2.294-1.992 0-.647.681-1.555 1.512-2.043 1.278-.75 1.172-.84-.729-.473-2.691.52-3.723-.175-2.402-1.644.537-.596 2.641-1.07 4.75-1.07 2.527 0 3.707-.319 3.562-.972-.118-.537.674-1.118 1.755-1.27 1.081-.152 2.97-.74 4.183-1.32l2.187-1.046-3.455-.548c-1.903-.297-4.153-.203-5.02.224-2.191 1.079-5.688 1.42-6.991.673-.602-.346-2.249-.106-3.67.547-2.524 1.162-4.122.586-2.995-1.095.374-.56-1.521-.76-5.776-.573-4.626.204-7.796.903-11.714 2.54-3.083 1.289-5.983 2.018-6.828 1.719-2.13-.754-.806-1.634 6.72-4.409 4.275-1.575 8.161-2.44 10.931-2.44 2.361 0 5.581-.546 7.179-1.22l2.915-1.221-4.885.473c-5.112.5-7.147-.433-4.426-2.017 1.725-1.005-6.498-.608-15.681.747-2.822.416-5.485.541-5.91.299-1.286-.734.8-2.035 4.291-2.69 2.999-.563 2.845-.62-1.89-.648-2.849-.016-5.959-.103-6.909-.199a22.939 22.939 0 0 0-2.483-.124h.001zm-23.885 1.22c-.913.034-1.721.73-1.242 1.445.273.408.85.747 1.268.747 1.21 0 1.857-1.442.891-1.992-.287-.164-.613-.21-.917-.2zm-3.995.922a1.12 1.12 0 0 0-.378.124.846.846 0 0 0-.297 1.22c.279.416.873.531 1.323.275a.846.846 0 0 0 .297-1.22c-.209-.312-.575-.451-.945-.4zm73.087 4.657c-.912.034-1.72.73-1.241 1.445.273.408.85.747 1.268.747 1.21 0 1.857-1.442.891-1.993-.288-.164-.614-.21-.918-.199zm161.885.847c-.463.011-.614.585-.405 1.644.076.382-.421.492-1.107.249-1.738-.616-2.475.282-1.295 1.594.929 1.032 2.653 1.175 2.24.2.119-.053.216-.14.216-.275 0-.048-.052-.104-.135-.174.134-.357.43-.843.837-1.295.753-.838.824-1.422.216-1.769-.22-.125-.412-.178-.567-.174zm8.259.747c-.913.034-1.721.73-1.242 1.445.274.408.85.747 1.268.747 1.21 0 1.857-1.442.891-1.993-.287-.164-.613-.21-.917-.199zm-258.802.722c1.176.007 2.381.736 1.889 1.47-.675 1.008-2.769 1.034-3.428.05-.273-.408-.074-.982.432-1.27.319-.183.714-.252 1.107-.25zm234.078.2c-.124.017-.266.06-.378.124a.846.846 0 0 0-.297 1.22c.278.416.873.531 1.322.275a.847.847 0 0 0 .298-1.22c-.209-.312-.575-.452-.945-.4zm83.45.672c-.912.034-1.721.73-1.242 1.445.274.408.85.747 1.269.747 1.21 0 1.857-1.442.891-1.993-.287-.164-.613-.21-.918-.199zm-73.492.1c-.651.04-1.451.282-2.213.722-.561.324-1.262.229-1.566-.224-.303-.453-.926-.605-1.376-.349a.845.845 0 0 0-.297 1.22c.278.416.832.558 1.242.324.409-.233.969-.082 1.241.324.273.406.973.656 1.565.573 1.782-.25 3.313-1.353 2.834-2.067-.253-.378-.779-.563-1.43-.523zm9.041.025c-.123.017-.265.06-.378.124a.845.845 0 0 0-.296 1.22c.278.416.872.531 1.322.274a.846.846 0 0 0 .297-1.22c-.208-.311-.574-.45-.945-.398zm-292.753.572c-.592.096-1.821.71-4.372 1.993-4.023 2.023-2.605 2.194 2.726.324 1.209-.424 2.186-1.145 2.186-1.594 0-.429-.033-.69-.324-.723a.768.768 0 0 0-.216 0zm21.754 0c-.545.004-1.162.226-1.538.573-.641.592-.303.696 1.134.349 1.167-.282 1.537-.648.89-.847a1.543 1.543 0 0 0-.486-.074zm344.657.499c-.689.04-1.478.438-2.915 1.22-2.735 1.49-2.873 1.74-1.539 2.64 1.661 1.12 7.432.589 8.394-.772.33-.466-.376-1.455-1.593-2.192-1.048-.635-1.658-.937-2.347-.896zm-64.505.448a2.407 2.407 0 0 0-1.025.299c-.594.348-1.372.64-1.727.647-.357.007-.648.27-.648.598v1.146c0 .307.439.168.971-.324.533-.492 1.472-.713 2.079-.498 1.364.483 2.503-1.03 1.295-1.719-.242-.137-.59-.173-.945-.15zm-35.383.174c-1.559-.01-3.972.827-4.669 1.868-.474.707 2.402 2.788 3.967 2.864.317.016.871.281 1.215.598.856.79 2.246-.11 1.619-1.046-.278-.415-.822-.572-1.214-.349-.393.224-.93-.103-1.188-.722-.257-.619.156-1.324.918-1.594.927-.328 1.12-.759.54-1.295-.24-.22-.668-.32-1.188-.324zm5.506 0c-.445-.02-.917.224-1.62.698-1.451.98-1.499 1.243-.377 2.49.694.773 1.171 1.632 1.052 1.893-.118.261.131.473.567.473.435 0 1.087.256 1.43.573.857.79 2.247-.11 1.62-1.046-.278-.415-.832-.557-1.242-.324a.928.928 0 0 1-1.214-.299c-.265-.395.367-.914 1.43-1.17 2.626-.634 2.807-.64 2.807.2 0 1.403 1.28 1.887 2.51.946.847-.65 1.398-.673 1.782-.1.39.582 1.092.557 2.32-.05 1.251-.617 1.515-1.118.864-1.718-.65-.6-1.288-.568-2.159.1-.974.745-1.344.653-1.781-.4-.305-.73-.805-1.1-1.107-.821-.301.278-1.024.132-1.619-.324-.754-.578-1.259-.544-1.674.075-.414.618-1.042.491-2.077-.374-.64-.533-1.067-.802-1.512-.822zm23.805.025c-1.266.027-4.246 2.1-3.751 2.84.261.39.787.697 1.16.697 1.072 0 3.614-2.867 3.023-3.412-.097-.09-.251-.129-.432-.125zm-9.986.673a1.03 1.03 0 0 0-.378.124c-.45.257-.518.877-.162 1.395.357.518.716 1.215.783 1.544.066.329.157.834.216 1.12.059.288.869-.112 1.808-.896 1.609-1.343 1.632-3.33.027-2.416-.409.234-.992.055-1.295-.398a1.073 1.073 0 0 0-.999-.473zm-71.845 2.49c-.896-.015-.999.239-.999.747 0 .566-.654 1.516-1.457 2.117-.833.623-1.186.686-.837.15.763-1.174-.633-2.008-3.968-2.366-2.231-.24-2.419-.098-1.457.971.914 1.016.826 1.472-.405 2.59-1.355 1.232-1.576 1.226-2.51.075-1.628-2.006-3.457-2.167-4.966-.448-.97 1.105-1.905 1.405-3.05.996-1.613-.577-1.616-.603.027-1.718 1.843-1.252 1.214-1.4-2.861-.648-1.484.274-2.699.836-2.699 1.245 0 .41.389.52.864.25 1.785-1.018 2.727.527 1.242 2.041-.808.823-1.899 1.265-2.43.972-.53-.293-.431.085.217.822 1.281 1.458 3.098 1.032 2.131-.498-.326-.518.264-.263 1.296.572 1.709 1.384 1.996 1.41 3.374.274 1.977-1.63 4.68-2.049 5.155-.797.206.546-.609 1.338-1.836 1.769-2.535.89-2.999 1.796-.728 1.444 2.369-.367 1.785 2.016-.648 2.64-1.187.305-1.529.604-.755.648.773.044 1.891.613 2.482 1.27 1.561 1.735 2.261 1.5 3.482-1.22.598-1.333 1.813-3.313 2.726-4.384 1.535-1.8 1.83-1.843 3.643-.747 1.079.652 2.263.903 2.645.573.383-.33.237.226-.324 1.22-.963 1.708-.871 1.798 1.674 1.62 1.482-.105 2.85-.416 3.023-.673.314-.47-3.843-2.607-6.775-3.487-.861-.259-1.341-.779-1.079-1.17.262-.392-.403-.916-1.458-1.171-1.491-.36-1.669-.677-.863-1.42.805-.743 2.086-.737 5.775.025 4.5.93 4.912.874 7.854-.971l3.104-1.943-2.861-.523c-3.158-.561-4.853-.832-5.748-.847zm19.999.498c-.393-.002-.787.067-1.107.25-.505.288-.705.862-.432 1.27.66.984 2.753.958 3.428-.05.492-.735-.712-1.463-1.889-1.47zm9.528.2c-.124.017-.266.06-.378.124a.846.846 0 0 0-.297 1.22c.277.416.872.531 1.322.274a.846.846 0 0 0 .297-1.22c-.209-.311-.574-.45-.944-.398zm47.501 0c-.124.017-.266.06-.378.124a.846.846 0 0 0-.298 1.22c.278.416.873.531 1.323.274a.846.846 0 0 0 .297-1.22c-.209-.311-.574-.45-.944-.398zm69.983.15c-.451 0-.973.05-1.485.173-1.232.296-1.328.522-.431 1.046 1.518.888 3.091.88 3.697-.024.47-.702-.428-1.196-1.781-1.196zm6.478.348c-1.233.064-2.778.537-4.561 1.42l-2.916 1.444 4.886 1.021c2.68.551 5.835 1.48 7.017 2.067 2.691 1.335 3.037 1.106 3.293-1.992.302-3.661-.663-4.521-2.537-2.292l-1.593 1.893-.539-1.793c-.378-1.256-1.466-1.851-3.05-1.768zm-413.528.373a.727.727 0 0 0-.19.075c-.477.273-.404.934.19 1.594.552.614 1.364.9 1.808.648.477-.273.404-.91-.189-1.57-.483-.537-1.158-.852-1.619-.747zm175.567 1.52a1.12 1.12 0 0 0-.378.124.845.845 0 0 0-.296 1.22c.278.416.873.531 1.322.274a.846.846 0 0 0 .297-1.22c-.208-.311-.574-.45-.945-.398zm-186.601.97c-1.165.041-1.376.48.108 1.246.784.405 1.178 1.09.891 1.52-.313.467.276.6 1.484.323 1.449-.332 2.874.184 5.047 1.868 3.634 2.815 5.031 2.48 2.618-.648-1.031-1.336-3.388-2.769-5.748-3.511-1.503-.473-2.86-.744-3.833-.797a6.365 6.365 0 0 0-.567 0zm439.223.723c-1.322-.014-2.465.735-3.752 2.291-1.19 1.44-2.159 2.803-2.159 3.039 0 .236 1.457-.036 3.239-.623 1.781-.586 4.058-1.101 5.047-1.12 2.67-.052 3.16-.935 1.214-2.192-1.416-.916-2.561-1.384-3.589-1.395zm-156.212.573c-.912.034-1.72.73-1.241 1.444.273.409.849.748 1.268.748 1.21 0 1.857-1.442.891-1.993-.288-.164-.614-.21-.918-.2zm-4.858.921a1.12 1.12 0 0 0-.378.125.844.844 0 0 0-.296 1.22c.277.416.872.53 1.322.274a.846.846 0 0 0 .297-1.22c-.208-.311-.574-.45-.945-.399zm141.64 1.594c-.123.018-.266.06-.378.125a.846.846 0 0 0-.297 1.22c.278.415.872.53 1.323.274a.846.846 0 0 0 .297-1.22c-.209-.311-.575-.45-.945-.399zm27.637 0c-.124.018-.266.06-.378.125a.846.846 0 0 0-.297 1.22c.278.415.873.53 1.322.274a.845.845 0 0 0 .298-1.22c-.209-.311-.575-.45-.945-.399zm-458.333.274c-.317.11-1.759.2-3.211.2-1.454 0-2.432.307-2.187.672.245.365 1.728.551 3.293.424 1.565-.128 2.057-.05 1.107.174-3.006.707-5.571 2.137-5.101 2.839.651.973 1.111.854 4.399-1.021 1.622-.925 2.798-2.09 2.618-2.59-.181-.5-.601-.807-.918-.698zm26.342.175c-.263.014-.032.33.62 1.07 1.348 1.53 2.356 1.706 3.131.549.294-.439.167-.797-.297-.797-.464 0-1.559-.247-2.429-.548-.522-.181-.868-.283-1.025-.274zm169.439 1.145c-.123.018-.266.06-.378.125a.846.846 0 0 0-.297 1.22c.278.416.872.53 1.323.274a.845.845 0 0 0 .296-1.22c-.208-.312-.574-.451-.944-.399zm232.324 0c-.124.018-.265.06-.378.125a.846.846 0 0 0-.297 1.22c.278.416.873.53 1.323.274a.846.846 0 0 0 .297-1.22c-.209-.312-.575-.451-.945-.399zm-437.797.474c-.209 0-.378.358-.378.797 0 .438.415.797.918.797.503 0 .672-.36.378-.797-.294-.439-.708-.797-.918-.797zm19.784 1.12c-.124.018-.265.06-.378.125a.845.845 0 0 0-.297 1.22c.278.415.873.53 1.323.274a.847.847 0 0 0 .297-1.22c-.209-.312-.574-.451-.945-.399zm413.692 0c-.123.018-.265.06-.378.125a.845.845 0 0 0-.296 1.22c.277.415.872.53 1.322.274a.846.846 0 0 0 .297-1.22c-.209-.312-.574-.451-.945-.399zm28.933.075c-1.132.023-1.982.534-3.131 1.719-1.419 1.461-1.718 2.303-1.079 3.013 1.236 1.375.16 2.106-2.268 1.544-1.164-.27-3.398.129-5.209.922-2.308 1.01-3.55 1.146-4.588.548-1.003-.578-2.79-.487-6.073.299-2.561.613-5.89 1.12-7.395 1.12-2.747 0-7.572 1.514-8.204 2.566-.186.31.391 1.058 1.295 1.668 1.594 1.076 1.214 3.439-.404 2.516-.438-.25-3.332-.567-6.424-.697-5.399-.229-5.614-.157-5.614 1.643 0 1.068.531 1.868 1.215 1.868 2.121 0 4.762 2.712 5.02 5.156.203 1.92-.087 2.393-1.485 2.39-1.325-.002-1.68-.49-1.565-2.091.128-1.783-.411-2.304-3.698-3.462-2.784-.982-4.159-1.116-4.965-.498-.799.611-1.405.596-2.132-.075-.683-.63-1.026-.655-1.026-.075 0 .476 1.029 1.468 2.267 2.217 3.217 1.945 1.411 3.36-2.132 1.668-1.706-.813-2.966-2.186-3.482-3.835-.444-1.42-.848-2.009-.891-1.295-.043.713-.669 1.754-1.403 2.316-.777.595-1.095 1.554-.756 2.291.502 1.092.85 2.7 1.134 5.056.04.329 1.126.598 2.402.598 2.654 0 6.315 2.8 6.315 4.832 0 .753.639 1.612 1.431 1.893 1.014.359 1.185.75.54 1.344-1.271 1.173-4.561-.535-4.561-2.366 0-1.656-1.614-3.312-3.212-3.312-.622 0-1.725 1.377-2.456 3.063-.731 1.687-2.505 3.878-3.941 4.857-2.508 1.711-2.719 1.73-5.587.473-1.64-.718-2.759-1.654-2.482-2.067.665-.994 3.615-.959 4.291.05 2.699 4.03 5.709-9.905 3.076-14.247-.411-.678-.32-2.002.216-3.088 1.078-2.181-.169-3.341-3.562-3.362-1.428-.009-2.226.636-2.861 2.316-.486 1.286-1.819 2.916-2.969 3.611-1.843 1.115-1.974 1.456-1.025 3.014.591.972 1.759 2.236 2.59 2.814.832.578 1.512 1.595 1.512 2.242 0 1.949-2.559 2.22-4.588.498-1.111-.943-3.759-1.843-6.397-2.167-4.203-.516-4.649-.38-6.558 1.669-1.423 1.526-2.501 2.02-3.563 1.644-1.314-.466-1.362-.73-.351-1.868.935-1.053.65-1.019-1.376.199-1.404.843-3.887 1.952-5.506 2.465-2.634.836-2.991.776-3.374-.572-.394-1.39-.623-1.405-2.888-.324-1.35.644-3.288 1.17-4.318 1.17-1.029 0-3.208 1.076-4.831 2.392-3.297 2.67-4.771 2.942-6.343 1.195-.88-.979-.731-1.292.81-1.818 1.75-.598 1.682-.73-1.187-1.993-3.347-1.473-3.553-1.245-2.133 2.516 1.155 3.056-.212 5.32-2.51 4.134-1.518-.784-6.59 1.937-5.802 3.113.238.355-.11 1.054-.783 1.57-.95.727-1.827.658-3.886-.324-2.87-1.37-3.586-.85-1.133.822 1.13.77 1.272 1.28.539 1.967-1.513 1.418-6.218-1.17-6.937-3.81-.322-1.186-1.384-2.766-2.374-3.512-1.604-1.208-1.654-1.41-.378-1.868.788-.284 2.631.058 4.075.747 4.603 2.197 12.2 1.017 12.2-1.893 0-1.276-9.97-6.425-12.443-6.425-.645 0-1.642-.556-2.24-1.22-.823-.917-2.082-1.078-5.181-.698-4.546.556-6.697-.758-3.293-2.017 1.976-.732 1.973-.748-.324-.798-1.278-.027-2.567-.408-2.861-.846-.294-.439-.928-.797-1.403-.797-.476 0-.573.448-.216.996.515.79.391.8-.648.025-.925-.69-1.591-.723-2.24-.125-.649.599-1.097.55-1.566-.15-.454-.679-.317-.79.46-.348.748.427.921.337.512-.274-.422-.63-1.118-.677-2.186-.15-.858.425-1.864.513-2.24.2-.376-.313-.405-.148-.081.373.908 1.462-2.049 2.606-4.507 1.744-1.941-.68-2.026-.63-.945.672.649.781.848 1.147.432.822-.416-.325-1.278-.19-1.916.3-.637.487-1.161.624-1.161.298 0-.327-.564-.17-1.241.349-.677.518-1.746.875-2.375.797-2.656-.332-3.527.03-2.592 1.07 1.191 1.324-.127 3.354-2.186 3.363-.968.004-1.537.596-1.538 1.594 0 .877-.249 1.415-.567 1.195-.317-.219-1.53.405-2.672 1.395-1.142.99-2.383 1.528-2.78 1.195-.396-.332-.494.038-.188.822.323.831.135 1.548-.486 1.719-4.223 1.157-4.486 1.33-3.239 2.042.68.388 1.283 1.646 1.349 2.79.138 2.368-2.064 3.866-3.994 2.74-1.684-.984-2.582-.931-2.321.124.119.479-.522 1.286-1.43 1.793-4.307 2.404-5.086 3.862-3.671 6.899.306.657.467 2.271.351 3.586-.181 2.045.123 2.434 2.051 2.64 1.45.155 3.196-.51 4.912-1.843l2.672-2.067 1.214 2.241c.673 1.227 1.721 3.652 2.322 5.405 1.547 4.516 1.663 4.615 3.94 3.238 1.127-.682 2.891-1.245 3.913-1.245 1.465 0 1.752-.345 1.377-1.67-.648-2.286.782-5.503 2.456-5.503.753 0 1.137-.34.864-.747-.274-.408-.06-.975.459-1.27.618-.354.323-1.15-.864-2.317-1.508-1.482-1.683-2.296-1.106-4.856.646-2.87 2.126-4.256 6.881-6.426.594-.271 1.08-1.237 1.08-2.142 0-3.708 5.373-6.03 7.773-3.362 1.206 1.342.936 1.788-4.345 6.874-2.667 2.568-3.019 3.35-2.726 6.176.448 4.343 1.538 5.004 5.776 3.562 4.115-1.401 8.792-1.481 10.498-.174 2.465 1.887.258 2.533-10.283 3.013-1.631.074-2.117 2.823-.648 3.662 1.179.672 1.088 3.362-.135 4.06-.547.311-1.506-.083-2.132-.873-1.66-2.094-4.034-.149-3.346 2.74.403 1.694-.026 2.461-2.187 3.935-2.142 1.462-2.904 1.619-3.913.847-1.007-.771-2.128-.537-5.641 1.145-4.181 2.002-4.418 2.029-4.831.573-.374-1.32-.766-1.431-2.969-.722-2.08.669-2.862.573-4.264-.598-1.009-.843-1.503-1.958-1.188-2.69 1.27-2.947 1.18-4.134-.296-3.86-1.493.277-1.708 1.72-.972 6.6.335 2.223.158 2.392-2.456 2.466-1.546.044-3.532.67-4.399 1.394-.868.725-1.815 1.091-2.132.798-.319-.294-.594.158-.594 1.021 0 1.945-1.578 3.487-3.59 3.487-.838-.001-1.95.721-2.456 1.594-1.04 1.792-5.703 4.278-6.829 3.635-.407-.231-.962.307-1.214 1.196-.365 1.288-.894 1.508-2.672 1.096-2.89-.67-3.003 1.011-.135 2.017 2.237.785 4.55 4.727 4.669 7.97.097 2.637-2.209 4.877-4.507 4.384-2.827-.607-10.304-1.032-11.389-.648-.616.218-.819 1.762-.567 4.185.219 2.106-.027 4.545-.54 5.429-1.317 2.272.551 5.794 3.077 5.803 1.045.003 2.269.617 2.726 1.369.686 1.132 1.163 1.2 2.834.449 1.111-.5 2.996-1.086 4.183-1.32 3.215-.634 5.415-2.406 5.668-4.558.124-1.051.257-2.171.297-2.49.04-.32 1.635-1.322 3.536-2.217 2.555-1.203 3.454-2.122 3.454-3.512 0-2.53 2.072-3.944 4.966-3.412 1.394.256 3.064-.032 4.048-.697 2.488-1.683 4.549-1.405 6.29.897 2.342 3.099 7.027 7.022 8.69 7.247 2.248.304 4.625 3.424 3.994 5.255-.383 1.116-.223 1.416.513.996.618-.352.849-1.485.567-2.789-.565-2.606.119-3.524 1.727-2.291.778.595 1.161.612 1.161.049 0-.461-1.785-1.659-3.968-2.665-2.526-1.164-4.559-2.843-5.613-4.632-.911-1.545-2.146-3.425-2.726-4.184-.86-1.123-.789-1.639.404-2.74 1.366-1.26 1.508-1.266 2.024-.024.305.732.869 1.158 1.242.946.374-.213 1.303.489 2.052 1.544.748 1.055 3.079 3.072 5.208 4.483 2.619 1.735 4.086 3.348 4.481 5.006.681 2.86 4.593 7.696 6.234 7.696.622 0 .892-.376.594-.822-.299-.446-.969-.568-1.485-.274-.573.327-.689.163-.296-.423.489-.731.941-.73 1.862-.025 1.387 1.062.834 2.341-.998 2.341-.685 0-1.242.538-1.242 1.196 0 1.511.419 1.491 3.05-.1 2.614-1.581 2.673-2.438.27-4.234-1.704-1.273-1.606-3.842.108-2.864.391.223.944-.125 1.214-.772.348-.837 1.434-1.083 3.805-.872 2.606.231 3.572-.047 4.4-1.27.7-1.035.798-1.898.242-2.516-1.233-1.371 2.734-8.591 5.911-10.759 2.12-1.446 2.929-1.61 4.372-.897 1.311.647 1.56 1.149.891 1.893-.674.749-.398 1.285 1.134 2.042 2.648 1.308 4.728.316 2.51-1.195-1.023-.697-1.267-1.308-.702-1.793 1.236-1.062 6.553-2.607 7.368-2.142.923.526.572 2.34-.729 3.785-.881.981-.342 1.689 3.239 4.21 4.979 3.503 5.776 4.856 3.968 6.699-1.648 1.68-6.672 1.579-11.012-.224-3.874-1.609-5.606-1.648-8.447-.149-1.188.626-2.977 1.155-3.995 1.17-1.018.016-2.093.592-2.375 1.27-.282.679-.992 1.169-1.592 1.096-2.552-.308-3.046.149-2.78 2.64.152 1.425.342 2.68.432 2.79.089.109.21.519.27.921.126.856 1.306 2.044 2.132 2.142.316.038 1.268.348 2.132.697.889.36 1.96.284 2.456-.174.592-.546 1.815-.539 3.806.025 2.124.602 3.569.567 5.155-.1 3.122-1.312 3.348-.074 1.322 7.049-2.031 7.14-4.082 9.221-7.476 7.596-1.615-.773-2.805-.827-4.535-.224-1.897.661-3.591.404-8.797-1.345-9.53-3.201-9.459-3.213-12.065 1.942-1.08 2.137-3.272 1.753-8.771-1.544-2.97-1.781-6.08-3.237-6.936-3.237-.856 0-2.359-.732-3.32-1.619-1.38-1.273-1.551-1.932-.837-3.163 1.096-1.889.297-5.311-1.376-5.903-.668-.236-3.384-.056-6.046.399-2.662.454-5.377.634-6.045.398-.668-.236-4.477.641-8.475 1.943-7.666 2.496-10.432 2.877-11.309 1.569-.914-1.365-1.739-.884-2.753 1.594-.537 1.313-2.179 3.016-3.643 3.785-2.43 1.276-3.311 3.248-2.726 6.102.354 1.727-2.113 5.423-4.319 6.476-1.318.629-3.594 3.093-5.074 5.479-1.479 2.387-3.133 4.467-3.67 4.632-1.503.463-1.886 2.799-1.673 10.311.13 4.63-.231 7.839-1.08 9.713-1.169 2.582-1.124 2.883.405 4.159.91.761 1.646 1.758 1.646 2.192 0 .435 1.391 2.336 3.077 4.234 1.686 1.899 2.949 3.999 2.807 4.658-.413 1.915 2.709 5.555 6.801 7.944 3.546 2.071 4.043 2.162 7.773 1.295 2.189-.508 4.994-.721 6.235-.473 1.29.257 4.281-.227 6.99-1.145 2.606-.884 5.618-1.62 6.693-1.62 1.907 0 4.856 2.085 5.506 3.886.225.622 1.177.677 3.077.174 4.05-1.072 5.405.685 4.858 6.301-.765 7.863-.504 9.644 1.782 11.856 2.006 1.94 3.93 5.412 3.67 6.6-.062.282.531 1.179 1.323 1.992.791.813 1.456 2.366 1.457 3.462.002 1.096.263 2.981.594 4.184.384 1.4.104 3.157-.783 4.881-.763 1.484-1.826 4.482-2.375 6.675-.882 3.528-.797 4.395.756 7.472 2.033 4.03 2.713 6.239 3.319 10.659.766 5.57 2.149 9.397 5.614 15.567 3.698 6.582 4.011 7.778 2.133 8.442-2.065.731 2.891 4.507 5.1 3.886.968-.273 4.379-.785 7.585-1.146 6.294-.71 8.888-1.889 11.821-5.38 4.467-5.315 6.336-8.732 6.558-12.005.197-2.877.7-3.721 3.132-5.255 2.623-1.655 2.865-2.148 2.644-5.255-.134-1.886-.622-4.092-1.079-4.882-.654-1.127-.244-1.966 1.862-3.91 1.474-1.359 3.794-2.986 5.155-3.636 2.156-1.028 4.313-3.472 4.75-5.355.076-.328.224-.866.324-1.195.614-2.02-.297-9.533-1.323-10.884-.673-.888-1.241-2.639-1.241-3.885s-.334-2.873-.755-3.611c-1.514-2.652 5.439-13.467 11.119-17.285 1.663-1.117 4.137-3.372 5.479-5.006 3.241-3.946 8.363-13.703 8.691-16.537.149-1.294.953-2.537 1.889-2.914 1.994-.804.061-.532-8.286 1.195-5.307 1.098-5.734 1.079-7.989-.398-1.312-.86-2.194-1.867-1.944-2.242.251-.374.044-.909-.458-1.195-.502-.287-1.865-1.955-3.05-3.686-1.184-1.732-2.926-3.846-3.859-4.708-.934-.861-1.701-2.097-1.701-2.739 0-.642-.778-1.548-1.727-2.018-1.355-.669-1.728-1.668-1.728-4.632 0-2.079-.519-4.49-1.16-5.355-.642-.864-1.407-2.466-1.7-3.561-.294-1.096-1.912-3.912-3.59-6.251-1.678-2.34-3.05-4.737-3.05-5.33 0-1.916 1.724-2.126 2.456-.3.67 1.671.755 1.679 1.35.25.593-1.426.725-1.394 2.321.473 2.135 2.499 4.237 6.906 4.237 8.866 0 .823.573 1.495 1.268 1.495 1.639 0 3.05 2.484 3.05 5.355 0 2.393 1.435 4.774 5.047 8.392 1.445 1.447 2.259 3.219 2.348 5.181.299 6.597 1.757 8.412 5.371 6.65.825-.402 4.4-2.043 7.962-3.637 3.563-1.593 7.715-3.548 9.231-4.333 3.159-1.638 9.301-6.436 8.286-6.475-.373-.015.193-.687 1.241-1.495 1.049-.808 1.67-1.696 1.377-1.968-.294-.27.14-1.193.972-2.042 1.461-1.49 1.4-1.607-1.997-3.586-2.052-1.195-3.754-2.9-4.076-4.085l-.567-2.017-1.295 1.719c-1.46 1.923-6.745 4.236-8.016 3.511-.454-.259-.837-.941-.837-1.519s-.583-1.497-1.296-2.043c-.712-.545-1.287-1.577-1.295-2.29-.009-.714-1.204-2.895-2.645-4.857-2.336-3.182-2.472-3.678-1.241-4.508 1.967-1.328 4.62-.443 5.991 1.992 2.033 3.611 6.222 5.906 9.689 5.305 2.54-.439 3.107-.28 3.482 1.046.575 2.028 3.399 2.739 11.849 2.914 6.224.13 6.994.309 8.637 2.192.992 1.137 2.872 2.316 4.183 2.615 2.908.664 3.822 1.81 1.97 2.466-1.061.375-1.144.741-.378 1.594 1.446 1.608 3.1 1.347 3.644-.573.856-3.02 2.347-.717 2.267 3.512-.043 2.272.096 4.672.297 5.329.201.658.851 2.917 1.457 5.006.607 2.09 1.446 3.972 1.863 4.209.416.238.755 1.08.755 1.869 0 .788 1.348 3.832 2.996 6.749l2.996 5.305 1.349-1.918c1.983-2.792 3.023-6.72 3.023-11.432 0-3.501.309-4.301 1.943-5.106 2.554-1.256 12.258-10.267 12.982-12.054.377-.929 1.504-1.394 3.347-1.394 1.521 0 3.447-.566 4.291-1.271 1.431-1.195 1.646-1.1 3.266 1.395.955 1.472 2.58 3.541 3.589 4.608 1.405 1.483 1.766 2.745 1.539 5.379-.244 2.828-.033 3.437 1.187 3.437.816 0 2.213-.734 3.131-1.643 1.981-1.963 2.313-1.6 3.131 3.635.342 2.192.986 4.384 1.431 4.882.443.498.629 3.257.404 6.127-.339 4.334-.126 5.561 1.269 7.198.923 1.084 1.673 2.501 1.673 3.163 0 3.655 5.743 11.473 7.341 9.987.156-.145-.179-2.197-.756-4.557-.701-2.873-1.799-4.85-3.292-5.978-1.228-.927-2.526-2.592-2.888-3.686-.362-1.094-1.204-2.352-1.89-2.814-1.085-.733-1.1-1.372 0-4.807 1.168-3.643 1.459-3.921 3.752-3.711 3.769.345 4.642.782 4.642 2.341 0 .785.778 1.893 1.727 2.441 1.001.577 1.728 1.85 1.728 3.038 0 2.018.076 2.001 4.345-1.394l4.345-3.463-.297-4.507c-.219-3.45-.893-5.305-2.833-7.821-1.398-1.812-3.05-3.984-3.698-4.831-1.056-1.384-.879-1.854 1.944-4.459 2.973-2.744 3.241-2.828 4.749-1.569 1.416 1.183 1.652 1.192 2.106.1.281-.676 1.235-1.22 2.105-1.22.87 0 1.953-.358 2.429-.797.475-.439 2.524-1.011 4.534-1.27 2.887-.373 4.446-1.254 7.476-4.185 2.111-2.041 3.849-4.18 3.86-4.757.01-.577.998-2.224 2.186-3.661 2.553-3.089 2.688-4.102.648-4.832-1.409-.504-1.401-.607.162-1.669 1.402-.952 1.449-1.145.269-1.145-2.147 0-2.774-1.643-.809-2.117 1.652-.399 1.606-.583-.864-3.96-2.498-3.415-2.524-3.62-1.134-5.579.793-1.116 2.676-2.544 4.184-3.188l2.726-1.171-3.806.374c-3.993.397-7.854-1.139-7.854-3.113 0-1.708 8.035-6.74 9.258-5.803.816.625.748 1.23-.324 2.74-.76 1.069-1.182 2.148-.918 2.39.264.244.928-.306 1.457-1.22 1.049-1.808 3.505-2.155 6.154-.846 1.313.648 1.48 1.16.81 2.315-.682 1.177-.448 1.743 1.161 2.715 1.632.988 1.991 1.821 1.835 4.383-.192 3.137-.151 3.163 2.078 2.292 3.715-1.451 3.784-1.781 1.511-6.974l-2.186-5.005 2.024-2.067c1.121-1.141 3.406-3.481 5.077-5.206 2.471-2.558 3.271-2.948 4.288-2.166 1.797 1.374 3.538.473 7.261-3.712 7.051-7.923 9.77-13.947 9.929-21.916.057-2.772-2.179-5.146-3.805-4.01-1.373.962-4.587.947-4.587-.025 0-.388-.896-1.02-1.995-1.395-1.823-.622-1.893-.821-.756-2.316.686-.902 4.453-4.15 8.367-7.198 6.791-5.293 10.488-6.758 12.438-4.956.845.78 6.747.268 8.017-.698.68-.514 1.703-.44 3.024.225 2.566 1.292 8.722 1.531 7.61.298-1.219-1.359 6.741-7.211 10.095-7.421 2.782-.175 4.497.923 2.89 1.843-.483.275-.889 1.06-.889 1.768 0 1.057.355.999 1.994-.423 1.099-.953 2.459-1.744 3.024-1.744.559 0 1.023-.492 1.023-1.096 0-1.45 2.274-3.167 3.373-2.54 1.207.686-1.829 5.548-3.665 5.878-.801.143-3.45 2.205-5.889 4.583-2.433 2.377-4.879 4.333-5.425 4.333-.54 0-1.639 1.043-2.452 2.316-1.722 2.683-1.842 8.497-.299 13.225l1.023 3.188 2.084-2.59c1.137-1.425 2.611-2.591 3.265-2.591.648 0 .927-.364.616-.821-.883-1.321 2.115-4.95 3.646-4.408.947.336 1.188.106.807-.798-.641-1.55.979-4.555 2.109-3.91.451.257.807.115.807-.323 0-.439-.381-1.02-.864-1.296-.483-.275-.661-.868-.375-1.294.286-.428.121-1.217-.381-1.77-1.207-1.347 2.058-6.427 3.755-5.827.66.234 1.664-.085 2.242-.722.572-.637 1.461-1.098 1.995-1.022.527.078 2.083-.15 3.424-.498 1.779-.458 2.827-.283 3.811.623 1.226 1.133 1.601 1.066 4.072-.672 4.593-3.231 11.981-5.902 13.767-4.981.94.486 1.861.494 2.344.049 1.029-.945-1.55-5.803-3.075-5.803-1.563 0-3.373-2.114-2.319-2.714.458-.262 1.823-.13 3.05.298 2.966 1.042 4.828.255 4.828-2.017 0-2.456 1.721-3.354 2.325-1.22.54 1.91.673 1.95 2.807.896 1.176-.581 1.944-.385 3.1.797.845.863 2.014 1.57 2.592 1.57.578 0 1.544.537 2.135 1.195 1.213 1.355 2.998 1.646 2.128.348-.648-.966 1.963-3.935 3.456-3.935.546 0 1.442-.432 1.994-.946.776-.715.191-1.277-2.509-2.39-4.44-1.837-4.764-1.817-5.342.223-.553 1.964-2.319 1.301-2.319-.872 0-3.562-11.308-8.55-21.002-9.265-3.888-.286-7.782-.852-8.658-1.27-1.43-.679-1.538-.514-1.029 1.619.743 3.126-.496 3.708-4.022 1.893-2.115-1.09-4.434-1.441-8.906-1.345-7.166.154-9.929-.597-9.929-2.69 0-2.182-1.893-2.584-9.612-2.042-5.622.395-6.867.28-7.286-.723-.28-.667-1.023-1.043-1.645-.821-1.131.4-2.567-.985-2.592-2.491-.026-1.486-3.062-1.317-5.94.324-3.195 1.822-4.771 1.371-2.668-.772 1.264-1.294 1.035-1.39-3.672-1.395-2.763-.004-5.558-.124-6.232-.274-.845-.187-1.251.473-1.296 2.117-.057 1.9-.464 2.391-1.944 2.391-1.029 0-2.115.236-2.433.523-.311.287-1.562.035-2.776-.548-1.715-.82-2.585-.843-3.837-.124-1.226.709-2.014.696-3.265-.025-1.379-.795-1.709-.678-2.077.622-.826 2.925-2.992 2.63-7.394-.971-4.331-3.545-4.755-4.657-1.781-4.657 1.412 0 1.525-.228.702-1.445-.752-1.11-2.012-1.438-5.398-1.395-2.551.033-4.804.494-5.317 1.096-1.191 1.397-10.433.988-10.121-.448.277-1.277-7.672-1.388-9.041-.125-.7.646-1.253.378-2.079-.996-.621-1.033-1.143-2.099-1.161-2.39-.066-1.146-1.016-1.327-3.913-.698-2.468.535-2.63.684-.864.772 2.116.105 6.456 2.44 4.535 2.44-.538 0-1.218-.358-1.512-.796-.294-.439-1.557-.797-2.807-.797-2.176 0-2.199.055-.593 1.145 1.655 1.125 1.651 1.137-.054 1.644-.95.283-2.31.793-3.023 1.121-1.855.854-6.477.62-6.477-.324 0-.438 1.284-1.39 2.86-2.117 1.577-.726 3.563-1.892 4.399-2.59.836-.698 2.273-1.28 3.186-1.295 2.531-.043 5.979-2.014 4.749-2.715-.777-.443-.743-.89.108-1.843.939-1.05.896-1.177-.189-.822-.712.234-1.931-.082-2.699-.697-1.109-.889-2.214-.957-5.397-.299-2.518.52-4.559.567-5.506.1a24.969 24.969 0 0 0-3.239-1.27c-1.636-.487-1.641-.558-.189-1.545 1.41-.958 1.341-1.096-.864-1.519a5.908 5.908 0 0 0-1.241-.124l-.003.001zm-410.669.722c-.124.018-.266.06-.378.125a.846.846 0 0 0-.297 1.22c.278.415.873.53 1.323.274a.845.845 0 0 0 .296-1.22c-.208-.312-.574-.451-.944-.399zm394.694 0c-.124.018-.265.06-.378.125a.846.846 0 0 0-.297 1.22c.278.415.873.53 1.323.274a.845.845 0 0 0 .296-1.22c-.208-.312-.574-.451-.944-.399zm-450.159.449c-.246.004-.651.202-1.161.672-.561.519-1.954.947-3.103.947-1.148 0-3.489 1.146-5.209 2.54-2.51 2.033-2.766 2.441-1.215 2.067 1.063-.256 2.184-.097 2.484.349.298.446 1.322-.318 2.266-1.694 1.302-1.897 1.986-2.293 2.834-1.644.836.64 1.471.387 2.483-.946 1.021-1.345 1.162-2.302.621-2.291zm75.113.124c-.301.012-.559.092-.702.224-.287.265.223.433 1.134.399 1.005-.038 1.201-.219.512-.473a2.496 2.496 0 0 0-.944-.15zm359.496.224c-.123.018-.265.06-.378.125a.845.845 0 0 0-.296 1.22c.278.415.872.53 1.322.274a.846.846 0 0 0 .297-1.22c-.208-.311-.574-.45-.945-.399zm38.865 0c-.123.018-.266.06-.378.125a.846.846 0 0 0-.297 1.22c.279.415.873.53 1.323.274a.846.846 0 0 0 .297-1.22c-.209-.311-.575-.45-.945-.399zm-468.104.797c-.124.018-.266.06-.378.125a.845.845 0 0 0-.297 1.22c.278.415.873.53 1.323.274a.846.846 0 0 0 .297-1.22c-.209-.312-.575-.451-.945-.399zm88.959 0c-.123.018-.265.06-.377.125a.845.845 0 0 0-.297 1.22c.278.415.873.53 1.322.274a.846.846 0 0 0 .297-1.22c-.208-.312-.574-.451-.945-.399zm206.414.797c-.123.018-.266.06-.378.125a.846.846 0 0 0-.297 1.22c.278.415.872.53 1.323.274a.845.845 0 0 0 .296-1.22c-.208-.312-.574-.451-.944-.399zm260.825 0c-.121.018-.267.06-.375.125a.845.845 0 0 0-.299 1.22c.28.415.87.53 1.322.274a.844.844 0 0 0 .298-1.22c-.209-.312-.578-.451-.946-.399zm-518.68.573c-.581.002-.703.236-.512.772.226.634 2.032 1.292 4.21 1.52 3.22.336 3.896.709 4.265 2.39.42 1.923 1.232 2.295 5.748 2.64 1.029.079 2.196.453 2.592.822.395.37 3.448.47 6.774.224 3.325-.246 7.334-.46 8.906-.473 1.76-.015 2.637-.334 2.294-.847-.306-.457-.04-1.443.594-2.191.998-1.176.985-1.249-.135-.449-.712.51-2.267.91-3.455.897-1.187-.014-5.463.163-9.499.374-7.532.392-11.228-.592-11.228-2.99 0-.572-1.419-1.209-3.239-1.444-1.781-.23-4.353-.68-5.721-.996-.721-.167-1.244-.25-1.594-.249zm408.997.224c-.123.018-.265.06-.377.125a.845.845 0 0 0-.297 1.22c.278.415.872.53 1.322.274a.846.846 0 0 0 .297-1.22c-.208-.312-.574-.451-.945-.399zm-60.698.2c-1.017-.012-2.884.361-4.805 1.145-2.474 1.01-5.136 1.542-6.774 1.32-1.556-.21-4.289.24-6.451 1.096-2.063.816-4.969 1.494-6.45 1.494-2.096 0-2.454.201-1.646.947.808.746.445 1.473-1.619 3.213-1.767 1.489-2.27 2.344-1.512 2.565 2.993.87 3.513 1.227 1.404.971-2.753-.334-3.275-.046-5.371 2.989-1.315 1.904-1.345 2.233-.243 1.843 1.44-.51 3.624 1.318 2.888 2.416-.245.366 1.366.703 3.589.747 2.223.044 3.465-.102 2.753-.324-1.728-.538-3.454-2.615-3.454-4.16 0-1.675 6.734-8.534 9.823-10.011 1.361-.65 3.161-1.195 3.995-1.195 1.714 0 11.421-2.776 13.522-3.86 1.527-.79 1.368-1.185.351-1.197zm-374.8.348c-.472.049-.784.758-.675 2.117.139 1.742-.252 2.234-1.835 2.441-1.097.143-2.835-.236-3.887-.872s-3.484-1.42-5.398-1.718c-3.308-.516-3.481-.442-3.481 1.494 0 1.972 1.627 2.799 2.617 1.32.612-.913 4.741.044 4.832 1.12.036.44-.82 1.036-1.916 1.32-1.721.448-1.617.53.755.599 1.513.043 3.845-.344 5.182-.847 1.337-.503 3.968-1.13 5.83-1.395 1.861-.264 3.534-.916 3.724-1.444.218-.607-.333-.828-1.484-.623-1.319.234-2.037-.232-2.618-1.644-.542-1.315-1.175-1.916-1.646-1.868zm16.814.15a4.384 4.384 0 0 0-1.539.323c-1.433.594-1.387.817.648 2.84 2.861 2.844 5.587 2.926 5.587.174 0-1.884-2.404-3.408-4.696-3.337zm-6.235.1c-.124.017-.265.06-.378.124a.845.845 0 0 0-.296 1.22c.277.415.872.53 1.322.274a.845.845 0 0 0 .297-1.22c-.209-.312-.574-.451-.945-.399zm541.513 0c-.121.017-.267.06-.375.124a.844.844 0 0 0-.298 1.22c.279.415.87.53 1.321.274a.845.845 0 0 0 .299-1.22c-.21-.312-.572-.451-.947-.399zm-535.713.87c.461-.104 1.137.211 1.619.748.594.66.668 1.297.19 1.57-.445.252-1.257-.035-1.809-.648-.593-.66-.666-1.322-.188-1.594a.7.7 0 0 1 .188-.075zm506.701.649c-.108.01-.191.044-.273.074-1.258.446-1.703 2.986-.674 3.935.858.794 3.57.627 4.155-.249.33-.49 1.302-.49 2.7 0 2.96 1.038 3.329.964 2.102-.398-.571-.639-.787-1.535-.482-1.993.305-.457.178-.822-.299-.822-.476 0-1.118.385-1.429.847-.375.556-1.277.386-2.7-.473-1.036-.625-2.344-.997-3.1-.922zm-5.533.124c-.801.024-1.353 1.086-.68 2.092.419.624.839.624 1.512 0 .68-.624.68-1.12 0-1.743-.286-.265-.566-.357-.832-.349zm16.383.423c-1.874 0-2.045.186-1.137 1.196 1.232 1.371 1.143 1.36 2.941.722 1.95-.691.801-1.918-1.804-1.918zm-554.447.324c-.123.018-.265.06-.378.125a.844.844 0 0 0-.296 1.22c.278.415.872.53 1.322.274a.846.846 0 0 0 .297-1.22c-.208-.312-.574-.451-.945-.399zm44.911 0c-.124.018-.265.06-.378.125a.845.845 0 0 0-.297 1.22c.278.415.873.53 1.323.274a.845.845 0 0 0 .296-1.22c-.208-.312-.574-.451-.944-.399zm-12.335.075a.717.717 0 0 0-.188.075c-.478.272-.405.934.188 1.594.552.613 1.365.9 1.809.647.478-.272.405-.91-.189-1.569-.483-.537-1.158-.852-1.62-.747zm179.883.722a1.12 1.12 0 0 0-.378.125.846.846 0 0 0-.296 1.22c.277.415.872.53 1.322.274a.845.845 0 0 0 .297-1.22c-.208-.312-.574-.451-.945-.399zm348.836.548c-.432.03-.216.207.648.722.712.425 2.268.735 3.456.698l2.16-.05-2.16-.648c-1.188-.35-2.744-.66-3.456-.697-.286-.015-.502-.035-.648-.025zm-531.936.25c-.123.017-.265.06-.378.124a.847.847 0 0 0-.297 1.22c.278.415.873.53 1.323.274a.846.846 0 0 0 .297-1.22c-.209-.312-.574-.451-.945-.399zm394.694 0c-.123.017-.265.06-.378.124a.846.846 0 0 0-.296 1.22c.277.415.872.53 1.322.274a.846.846 0 0 0 .297-1.22c-.209-.312-.574-.451-.945-.399zm-374.777.024a3.172 3.172 0 0 0-.486.025c-.422.045-.803.168-1.08.423-.661.61-.567 1.084.351 1.62 1.493.87 2.774.638 3.212-.574.288-.797-.859-1.44-1.997-1.494zm165.766.772c-.123.018-.265.06-.378.125a.846.846 0 0 0-.296 1.22c.277.415.872.53 1.322.274a.846.846 0 0 0 .297-1.22c-.209-.312-.574-.451-.945-.399zm76.867.797c-.124.018-.266.06-.378.125a.846.846 0 0 0-.297 1.22c.278.415.873.53 1.322.274a.847.847 0 0 0 .298-1.22c-.209-.312-.575-.451-.945-.399zm245.284 1.594c-.127.017-.266.06-.381.125a.843.843 0 0 0-.292 1.22c.273.415.87.53 1.321.274a.843.843 0 0 0 .293-1.22c-.204-.312-.572-.451-.941-.399zm12.007.523c-.381.023-.674.69-.756 1.943-.108 1.762.197 1.992 2.84 1.992 1.765 0 2.769-.324 2.452-.797-.293-.438-1.106-.797-1.805-.797-.705 0-1.486-.538-1.759-1.195-.331-.795-.674-1.164-.972-1.146zm-554.524.075c-2.03-.004-4.546 1.015-4.426 2.142.321 3.024-.157 4.199-1.997 4.881-1.478.548-1.575.734-.432.772.827.028 1.957.727 2.51 1.544 1.096 1.62 3.491 1.447 5.128-.373.549-.61 1.532-1.12 2.186-1.12.655 0 1.188-.346 1.188-.773 0-.427 1.162-1.324 2.564-1.992 3.213-1.534 4.654-1.555 1.754-.025-1.188.626-1.77 1.136-1.296 1.145 1.489.028 3.326-1.368 3.536-2.69.259-1.629-2.555-3.002-5.532-2.714-1.277.123-2.824-.078-3.428-.424-.453-.258-1.078-.372-1.755-.373zm405.19.996c-.123.018-.265.06-.377.125a.845.845 0 0 0-.298 1.22c.278.415.873.53 1.323.274a.846.846 0 0 0 .297-1.22c-.209-.312-.575-.451-.945-.399zm-344.276.05c-1.981.079-4.571.557-5.236 1.17-.429.396-.514 2.037-.188 3.637.489 2.405.813 2.75 1.835 1.967.679-.52 1.017-1.277.755-1.669-.262-.391.219-.937 1.08-1.22 2.259-.741 4.611-2.777 4.103-3.536-.204-.303-1.16-.397-2.349-.35zm-11.47.2c-.411.013-1.015.25-1.944.696-1.273.613-2.856 1.118-3.508 1.121-.922.004-.949.246-.162 1.121 1.438 1.598-.29 2.377-2.726 1.22-2.58-1.225-1.162.125 3.212 3.064 1.9 1.277 3.593 2.016 3.751 1.644.158-.373.992-.673 1.863-.673 2.253 0 2.553-1.629.62-3.412-1.125-1.038-1.383-1.787-.782-2.341.485-.448.692-1.281.458-1.843-.17-.41-.372-.612-.782-.598zm366.977.547c-.124.017-.266.06-.378.125a.846.846 0 0 0-.298 1.22c.279.415.873.53 1.323.274a.846.846 0 0 0 .297-1.22c-.209-.312-.575-.451-.944-.399zm-383.766.473c-.475 0-.767.434-.648.971.119.538-.658 1.095-1.727 1.246-1.386.195-1.943.819-1.943 2.166 0 2.261-1.521 3.4-2.24 1.67-.281-.675-1.622-1.746-2.97-2.367-2.141-.986-2.506-.972-2.941.075-.416 1-.72 1.024-1.862.15-1.151-.882-1.514-.831-2.214.323-1.077 1.777-2.683.875-1.997-1.12.289-.84.252-1.52-.081-1.52-.458 0-5.037 2.328-7.098 3.611-.132.083.175 1.154.675 2.367.855 2.075 1.155 2.167 4.993 1.768 4.18-.435 7.542.52 6.64 1.868-.279.416-3.111.776-6.289.822-5.418.077-5.588.142-2.618.871 1.742.428 3.807 1.42 4.588 2.217 1.686 1.72 6.621 1.426 12.119-.722 2.991-1.17 3.973-1.208 7.233-.324 2.07.561 4.402 1.463 5.182 2.017 1.124.8 1.08.673-.135-.647-1.598-1.736-1.1-2.662 1.97-3.711.712-.244.104-.464-1.349-.498-1.454-.035-3.309-.518-4.13-1.071-1.941-1.31-4.136-7.112-3.077-8.12 1.05-.996 1.001-2.042-.081-2.042zm54.681.075c-1.169-.026-1.997.303-1.997.996 0 1.626 1.065 2.247 2.995 1.769.962-.24 2.532-.452 3.482-.474 1.539-.035 1.492-.155-.432-1.17-1.37-.723-2.879-1.095-4.048-1.121zm-15.411.722c-2.594 0-6.45 2.931-6.45 4.907 0 2.266 2.706 6.242 4.291 6.3.729.028 5.209.168 9.959.3 6.002.166 9.69.67 12.091 1.668 1.9.79 4.145 1.494 4.993 1.57 2.632.232 3.647 1.74 2.267 3.362-1.097 1.289-1.067 1.319.243.373 1.238-.893 1.587-.81 2.375.548.508.876.918 2.09.918 2.715 0 .768.661 1.042 2.051.797 2.52-.445 3.58.834 1.808 2.191-1.056.81-1.581.748-2.834-.298-1.406-1.175-1.718-1.165-3.482-.026-1.534.993-1.719 1.476-.917 2.367.556.618.658 1.136.243 1.17-.414.034-2.486.123-4.615.2-2.925.104-3.961.49-4.184 1.544-.212 1.008.277 1.403 1.728 1.394 1.103-.007 2.52-.324 3.158-.697 1.249-.73 7.907 1.805 7.907 3.014 0 .38 1.04.948 2.321 1.245 1.772.41 2.059.693 1.134 1.22-.844.482-.411.671 1.43.623 1.46-.038 4.172.66 6.019 1.544 4.361 2.09 4.317 2.097 2.456.2-1.557-1.588-1.568-1.657.134-2.067 2.765-.668 1.903-3.39-2.321-7.248-3.673-3.356-3.771-3.547-2.158-4.658 2.262-1.558 2.49-1.49 5.694 1.27 2.169 1.87 3.052 2.196 3.967 1.495.648-.496.955-1.25.676-1.669-.281-.418.305-.95 1.322-1.195 1.724-.416 1.748-.55.432-1.893-.777-.791-1.877-1.276-2.456-1.071-.58.205-1.77-.353-2.646-1.245-.88-.899-2.677-1.62-4.021-1.62-2.904 0-5.032-2.695-2.968-3.76.693-.358 1.009-1.004.674-1.445-.774-1.02-5.56-3.1-6.586-2.864-.426.099-1.398-.051-2.158-.324-1.213-.434-1.174-.62.297-1.618 1.402-.953 1.449-1.146.27-1.146-.776 0-1.65.357-1.944.797-.333.496-1.09.522-1.997.075-.802-.397-1.846-.754-2.321-.797a.974.974 0 0 1-.864-.947c0-1.557-2.896-2.851-5.559-2.49-1.439.195-2.423.678-2.16 1.07.777 1.16-2.125 1.762-3.481.723-.686-.525-1.616-.737-2.078-.473-1.171.667-2.272-1.186-1.971-3.338.198-1.417-.17-1.788-1.754-1.768-1.103.014-2.578.462-3.293.996-1.498 1.119-1.952 5.31-.729 6.675.543.606.463 1.132-.216 1.52-1.58.9-3.377-1.976-3.238-5.181l.108-2.84.54 3.189c.462 2.74.61 2.93 1.106 1.32.817-2.655-.896-5.704-3.212-5.704h.001zm131.413 1.121c-.331-.026-.54.026-.54.174 0 .193.874.675 1.944 1.071 2.533.94 2.573.945 2.023.125-.373-.558-2.433-1.293-3.427-1.37zm-4.562 4.782c.371-.053.737.087.945.398a.845.845 0 0 1-.297 1.22c-.449.257-1.044.142-1.322-.273a.846.846 0 0 1 .297-1.22c.113-.065.254-.108.377-.125zm446.514.797c-.121.017-.261.06-.375.124a.844.844 0 0 0-.298 1.22c.279.416.876.531 1.321.275a.844.844 0 0 0 .298-1.22c-.209-.312-.571-.451-.946-.4zm-589.258.274a1.865 1.865 0 0 0-.891.199c-3.156 1.559-3.234 5.579-.108 5.579 2.348 0 2.613.678 1.242 3.213-1.635 3.024-2.459 3.437-4.534 2.241-1.292-.744-2.189-.776-3.698-.1-3.584 1.61-9.147 1.912-12.361.673-1.661-.64-3.023-1.532-3.023-1.992 0-.921-4.202-1.155-6.477-.349-1.148.406-1.216.658-.298 1.195.634.371 1.744.647 2.457.623.854-.029.707-.27-.432-.722-1.408-.559-1.46-.702-.27-.747 2.23-.086 2.86 1.59.783 2.092-1.347.325-1.763.986-1.592 2.465.313 2.717-1.735 3.21-2.781.673-.976-2.37-3.866-3.262-8.69-2.665-3.89.481-6.357-1.134-3.779-2.466 1.347-.695 1.314-.831-.432-1.693-1.433-.708-2.224-.724-3.104-.05-.892.684-1.874.573-4.047-.473-3.799-1.827-9.508-2.778-10.797-1.794-.678.519-1.871.36-3.616-.473-2.435-1.162-2.832-1.143-5.479.324-6.972 3.865-9.55 4.91-10.337 4.184-.51-.47.583-1.517 2.915-2.814 2.049-1.14 3.254-2.1 2.672-2.117-.582-.017-2.302.685-3.832 1.544-2.232 1.253-3.054 1.37-4.13.598-1.123-.808-1.18-.778-.377.224 1.181 1.475 2.173 6.014 1.457 6.675-.948.875-2.861-1.251-2.861-3.188 0-1.043-.291-1.91-.648-1.943-1.45-.136-3.428-.667-7.017-1.868-2.078-.695-4.676-1.27-5.776-1.27-1.1 0-2.22-.331-2.483-.722-.262-.392-2.803-.735-5.667-.773-2.865-.037-5.998-.432-6.937-.896-1.165-.575-2.23-.601-3.346-.05-1.216.6-1.885.502-2.672-.373-.583-.649-2.17-1.171-3.509-1.171s-2.688-.387-2.996-.847c-.387-.578-.91-.555-1.7.05-.78.597-1.322.615-1.7.05-.36-.538-1.298-.383-2.672.448-1.163.703-2.098.977-2.106.598-.007-.38-.377-.183-.81.448-.432.631-1.837 1.285-3.13 1.445-1.293.16-3.115 1.17-4.049 2.266-.933 1.095-1.915 1.819-2.159 1.594-.243-.225-1.548.12-2.914.772L9.93 58.46l2.806 2.216c2.665 2.12 5.294 3.484 7.045 3.636 1.551.135 1.443 1.972-.162 2.765-1.172.579-2.276.486-3.968-.324-1.541-.738-2.877-.867-3.832-.398-.803.394-2.235.95-3.185 1.245-1.672.52-1.651.556.216 1.22 1.156.412 1.736 1.124 1.457 1.793-.716 1.723 7.42 2.419 8.745.747 1.282-1.618 2.719-.761 2.537 1.52-.139 1.736-4.472 4.829-5.803 4.134-.339-.177-1.41.405-2.402 1.32-1.259 1.162-1.645 2.214-1.242 3.437.889 2.693 3.17 4.673 4.886 4.259.85-.205 1.885.172 2.294.847 1.015 1.675 6.51 3.352 8.178 2.49 1.8-.93 2.504.355 1.511 2.765-.93 2.257-4.216 4.584-9.068 6.45-1.855.714-3.175 1.479-2.942 1.694.407.377 4.915-1.328 7.611-2.864.713-.406 2.685-1.42 4.372-2.266 3.525-1.768 8.704-6.406 8.124-7.272-.215-.322.184-1.028.891-1.57.707-.541 1.295-1.442 1.295-1.992 0-1.585 2.435-3.012 4.103-2.416 1.449.519 1.438.592 0 1.569-1.317.895-2.172 3.636-1.134 3.636 1.914 0 4.894-1.811 4.508-2.74-.837-2.01 3.032-3.448 4.426-1.643 1.084 1.405 4.824 2.653 9.365 3.138 2.429.26 6.288 1.344 8.583 2.416 2.832 1.323 4.49 1.7 5.181 1.17.712-.544 1.45-.185 2.43 1.196.772 1.088 1.403 2.216 1.403 2.49 0 .813 3.8 3.484 4.993 3.512 1.83.044 3.843 5.337 2.618 6.874-.429.538.17 1.232 1.565 1.818 2.226.936 2.247.976.675 2.715-.877.971-1.058 1.349-.405.822 1.646-1.328 4.891.192 3.563 1.669-1.08 1.2-.352 2.066 1.727 2.066 2.171 0 9.446 6.617 9.446 8.593 0 1.892-1.343 3.012-2.159 1.793-1.202-1.795-1.718-.58-1.808 4.159-.052 2.74-.244 7.133-.405 9.764-.306 4.993 1.812 10.889 3.778 10.535.528-.095 1.009.6 1.08 1.544.197 2.622 3.797 7.467 6.154 8.294 1.159.406 1.853 1.124 1.538 1.594-.343.512.065.749 1.026.598 1.253-.199 1.926.695 3.157 4.134.864 2.411 2.325 5.126 3.24 6.027 1.203 1.188 1.413 1.884.728 2.516-.685.631-.213 1.467 1.727 3.063 1.474 1.211 2.7 2.947 2.726 3.86.052 1.787 4.813 5.795 5.803 4.882.329-.304-.064-.893-.891-1.32-.827-.427-1.511-1.156-1.511-1.619 0-.462-1.166-2.435-2.591-4.383-1.425-1.949-2.592-3.803-2.591-4.11.001-.306-.855-2.061-1.916-3.91-1.491-2.598-1.712-3.576-.918-4.309 1.182-1.09 3.697.328 3.697 2.093 0 .555 1.749 3.223 3.887 5.902 2.138 2.679 3.886 5.146 3.886 5.504 0 .359 1.3 2.063 2.888 3.786 3.828 4.15 4.898 6.121 4.346 8.069-.594 2.094 2.192 4.126 11.578 8.418 5.971 2.731 7.504 3.153 8.826 2.391 1.306-.753 2.157-.561 4.723 1.046 4.067 2.547 9.6 5.131 10.957 5.131 2.139 0 5.911 4.23 5.911 6.625 0 1.971.195 2.191 1.268 1.369 1.047-.801 1.441-.643 2.214.922.591 1.198 1.78 1.959 3.185 2.067 1.228.094 2.669.506 3.211.922.661.506 1.33.253 2.025-.773 2.315-3.421 6.23 1.694 6.099 7.971-.059 2.8-.676 4.278-2.915 6.799-1.57 1.767-3.332 4.941-3.913 7.073-.955 3.5-.918 3.958.485 4.683 1.47.758 1.447.874-.269 2.092l-1.809 1.294 2.861 5.978c1.577 3.287 3.807 8.645 4.939 11.905 1.742 5.013 2.567 6.24 5.344 7.97 1.805 1.124 4.686 3.202 6.397 4.633l3.103 2.614-1.079 13.723c-.586 7.557-1.168 15.721-1.295 18.132-.152 2.864-1.042 5.878-2.592 8.692-1.71 3.108-2.237 4.97-1.862 6.7.286 1.318.055 3.582-.513 5.03-.807 2.059-.803 3.026.028 4.458 1.268 2.189.892 10.608-.54 11.931-.745.686-1.129.576-1.566-.474-.458-1.103-.745-1.189-1.322-.349-.933 1.357-.962 2.486-.054 1.968.991-.565 5.566 4.094 4.939 5.031-.286.426-1.029.601-1.673.373-.908-.32-1.107.431-.891 3.388.153 2.099-.165 4.308-.702 4.906-.753.837-.693 1.036.27.847 1.847-.363 6.163 2.553 5.64 3.81-.809 1.946.909 1.119 1.917-.921.541-1.096 1.377-1.993 1.862-1.993.485 0 .891-.839.891-1.867s.774-2.517 1.727-3.313c.953-.796 1.552-1.631 1.322-1.843-.229-.212.793-1.638 2.268-3.188 2.608-2.741 2.626-2.835.864-3.437-3.485-1.189-3.147-7.073.404-7.073.754 0 1.188-.903 1.188-2.466 0-1.804.475-2.58 1.754-2.889 1.48-.357 1.55-.559.486-1.32-.691-.494-1.387-1.614-1.538-2.49-.223-1.285.204-1.594 2.213-1.594 2.396 0 3.341-.826 4.318-3.761.315-.947 1.815-1.517 4.885-1.893 7.059-.864 8.739-3.744 4.75-8.119-2.595-2.846-2.048-3.674 1.269-1.918 2.275 1.205 2.681 1.195 5.452-.025 3.003-1.322 5.15-4.06 9.716-12.452 1.847-3.396 2.135-4.624 1.43-6.052-.486-.985-.619-2.184-.297-2.666.641-.956 6.782-4.955 7.611-4.955.284 0 .958-.529 1.485-1.171.527-.642 2.495-1.3 4.373-1.47 3.281-.296 3.482-.5 5.775-5.404 1.945-4.158 2.402-6.302 2.429-11.63.023-4.594.373-6.726 1.188-7.174.637-.35 2.58-2.581 4.318-4.931 4.168-5.638 4.392-9.832.621-11.631-1.396-.666-3.048-1.871-3.671-2.69-.832-1.095-2.528-1.583-6.423-1.843-4.544-.303-5.703-.729-8.07-2.914-3.336-3.078-4.843-3.175-7.125-.498-1.228 1.441-2.412 1.965-4.021 1.794-2.745-.294-2.708-1.665.054-2.267 1.094-.238 2.111-1.045 2.266-1.793.421-2.014-1.13-1.674-4.426.996-1.611 1.305-3.167 2.158-3.454 1.893-.909-.839 4.613-7.521 5.722-6.924.564.303.248-.272-.702-1.27s-1.637-2.034-1.539-2.316c1.016-2.931-4.607-7.297-9.392-7.297-2.379 0-3.736-.653-6.207-2.989-1.74-1.644-4.113-3.837-5.29-4.881-1.178-1.045-1.891-2.27-1.593-2.716.357-.533-.971-.627-3.86-.273-2.755.337-4.586.228-4.938-.299-.309-.461-1.008-.78-1.566-.698-1.723.253-5.772-1.592-5.829-2.665-.031-.558-.407-.214-.837.773-.43.986-1.146 1.793-1.592 1.793-.446 0-.613.667-.378 1.494.615 2.169-1.204 2.846-2.348.872-.759-1.309-.648-2.091.432-3.612 1.776-2.501.466-2.499-2.079 0-1.083 1.065-2.502 1.727-3.158 1.495-1.095-.388-1.5.239-3.427 5.255-.33.859-.929.669-2.591-.772-1.951-1.691-2.47-1.789-5.587-1.021-3.289.81-3.56.746-5.695-1.594-2.053-2.252-2.201-2.861-1.7-7.373.54-4.862.526-4.936-1.835-5.553-1.314-.344-3.763-.639-5.425-.673-2.831-.058-2.989-.235-2.726-2.466.154-1.309.57-2.744.945-3.188.374-.443.933-2.321 1.241-4.184.497-3.001.384-3.387-1.107-3.387-3.795 0-6.007 1.452-6.288 4.135-.253 2.415-.547 2.656-4.102 3.212-4.8.751-7.108-.483-9.528-5.105-1.7-3.248-2.397-10.142-1.134-11.307.343-.316.514-1.781.378-3.238-.216-2.313.159-2.874 3.023-4.507 3.885-2.216 4.849-2.403 7.908-1.52 1.271.367 3.634.865 5.235 1.121 2.603.416 2.785.348 1.755-.797-.98-1.09-.901-1.467.54-2.441 1.088-.734 2.474-.939 3.859-.573 1.188.314 3.187.528 4.453.473 2.626-.113 4.908 2.421 5.345 5.978.335 2.73 2.345 5.803 3.805 5.803 1.469 0 1.372-1.055-.648-7.571-.95-3.066-1.727-6.063-1.727-6.65 0-.587 2.073-2.99 4.615-5.355 2.542-2.365 4.445-4.49 4.21-4.707-.235-.217.194-.622.972-.897s1.214-.784.972-1.146c-.243-.362-.026-.894.458-1.17.594-.339.567-1.023-.054-2.092-1.068-1.843-.748-5.878.46-5.878.453 0 1.073.897 1.403 1.993.491 1.63.631 1.689.702.373.131-2.45 4.255-7.546 6.099-7.546 3.235 0 4.355-.822 3.293-2.391-.765-1.131-.665-1.892.486-3.512.808-1.139 2.062-2.067 2.779-2.067.718 0 3.131-.854 5.372-1.893 2.786-1.291 4.62-1.681 5.802-1.245.997.367 1.221.665.513.697-1.718.079-4.399 2.459-4.399 3.91 0 .967.392.883 1.943-.398 1.069-.883 3.186-2.066 4.696-2.615 1.51-.55 2.971-1.522 3.239-2.167.268-.645.871-.945 1.349-.673.479.273.864.167.864-.223 0-1.621-1.086-1.49-3.104.373-1.725 1.592-2.395 1.791-3.4 1.021-.688-.526-.972-1.37-.648-1.868.439-.676.254-.676-.675 0-.981.715-1.725.447-3.562-1.295-2.436-2.308-2.367-3.188.297-3.188.888 0 1.592-.566 1.592-1.295 0-2.017-5.79-.818-8.771 1.818-1.727 1.526-2.736 1.934-3.374 1.345-1.262-1.164 6.131-7.094 9.662-7.745 1.485-.275 4.616-.499 6.963-.499 2.347 0 5.116-.431 6.153-.946 1.038-.514 3.055-1.149 4.481-1.42 2.246-.426 2.591-.836 2.591-3.113 0-3.503-1.084-4.149-4.966-2.914-2.2.7-3.431.784-3.806.225-.702-1.048 2.058-2.981 4.4-3.064 1.257-.044 1.401-.18.485-.498-.712-.247-2.294-1.117-3.535-1.918-1.242-.8-2.461-1.266-2.699-1.046-.239.22-1.075-.509-1.862-1.619-.788-1.11-1.169-2.017-.837-2.017.331 0-.271-.835-1.323-1.868-1.052-1.033-2.105-2.897-2.348-4.134-.705-3.59-1.186-3.757-3.778-1.196-1.462 1.444-2.981 2.24-3.752 1.968-.709-.251-1.553-.053-1.889.448-.414.619-1.189.332-2.429-.897-2.037-2.017-2.562-3.657-1.376-4.333 1.215-.693.934-2.74-.378-2.74-.643 0-2.295-.968-3.671-2.167-1.944-1.693-3.418-2.225-6.639-2.316-3.871-.11-4.23.06-5.29 2.391-.752 1.652-.856 2.978-.324 3.935.533.96.44 1.83-.243 2.59-.566.63-.731 1.146-.378 1.146.354 0 .212.476-.324 1.071-.743.827-.566 1.587.756 3.138 2.13 2.499 2.197 5.175.216 7.771-.973 1.274-1.542 3.644-1.619 6.7-.089 3.49-.502 4.973-1.62 5.727-1.308.883-1.989.638-4.939-1.917-3.115-2.699-3.376-3.243-3.022-6.251l.377-3.313-3.832-.399c-2.506-.26-5.44-1.408-8.475-3.337-2.554-1.623-5.014-2.731-5.479-2.465-1.047.597-2.198-1.011-2.24-3.139-.024-1.19-.52-1.53-1.971-1.345-1.421.183-2.166-.303-2.78-1.793-1.205-2.925-.209-4.834 5.372-10.236 1.309-1.268 2.17-2.61 1.915-2.99-.63-.941 2.65-2.45 4.157-1.917.669.237 2.146-.282 3.293-1.145 2.267-1.706 2.386-1.573-2.591-2.989-2.282-.65.44-2.012 3.481-1.744 2.69.238 2.938.477 3.185 3.238.195 2.172-.103 3.132-1.106 3.487-1.102.39-.894.743 1.025 1.669 2.27 1.095 2.509 1.038 4.049-.847 1.526-1.868 1.75-1.925 3.616-.797 1.099.664 2.396.987 2.861.722 1.369-.78-2.879-4.392-5.803-4.931-1.472-.272-3.28-1.346-4.021-2.39-1.407-1.983-1.237-2.171 1.862-1.944 2.047.15 7.179-2.004 7.179-3.013 0-.344-.541-1.317-1.214-2.167-.882-1.112-.96-1.828-.297-2.565 1.234-1.373-1.536-3.304-4.777-3.338-2.054-.021-2.277.193-1.566 1.42.636 1.095.282 2.065-1.43 4.084-2.105 2.482-2.299 2.553-3.373 1.196-.632-.797-1.161-2.23-1.161-3.188 0-.959-.561-2.169-1.242-2.69-.997-.764-1.505-.547-2.672 1.096-1.559 2.196-2.996 2.05-2.996-.299 0-.82-.807-1.663-1.862-1.918-1.458-.352-1.648-.677-.89-1.519 1.339-1.49-1.823-4.726-4.103-4.782v-.001zm19.325.199c-.21 0-.378.359-.378.797 0 .438.415.797.918.797.502 0 .67-.359.377-.797-.293-.438-.708-.797-.917-.797zm562.78.324c-1.696.081-3.939.652-4.803 1.42-.679.602 3.755.536 7.179-.1.146-.027.012-.433-.299-.897-.235-.353-1.054-.472-2.077-.423zm-653.547.797a1.11 1.11 0 0 0-.377.124.846.846 0 0 0-.298 1.22c.279.416.873.531 1.323.275a.846.846 0 0 0 .297-1.22c-.209-.312-.575-.452-.945-.4zm255.645 0c-.123.017-.266.06-.378.124a.846.846 0 0 0-.297 1.22c.278.416.872.531 1.323.275a.845.845 0 0 0 .296-1.22c-.208-.312-.574-.452-.944-.4zm-2.591 1.594c-.124.017-.265.06-.378.124a.846.846 0 0 0-.297 1.22c.278.416.873.531 1.323.275a.845.845 0 0 0 .296-1.22c-.208-.312-.574-.452-.944-.4zm143.529.274c-.355-.01-.662.06-.864.249-.625.586-.383 1.198.782 1.992 1.954 1.331 2.794 1.425 3.482.399.639-.955-1.866-2.6-3.4-2.64zm-85.669.523a1.12 1.12 0 0 0-.378.124.846.846 0 0 0-.296 1.22c.278.416.873.531 1.322.274a.846.846 0 0 0 .297-1.22c-.208-.311-.574-.45-.945-.398zM153.56 54.05c-.402.04-.796.397-1.458 1.071-1.337 1.365-1.341 1.546-.08 1.993.763.27 1.167.832.89 1.245-.313.468.517.48 2.24.025 1.52-.402 3.072-1.188 3.455-1.743.56-.814.718-.822.729 0 .007.561-.586 1.218-1.296 1.469-.709.251-1.072.778-.809 1.17.88 1.314 1.963.74 3.319-1.768l1.35-2.49-2.726.498c-1.848.34-3.173.124-4.156-.698-.65-.542-1.056-.812-1.458-.772zm312.647.598c-1.298-.01-3.15 1.893-2.483 2.89.412.615 1.089.63 2.267.049 1.872-.925 2.151-2.003.729-2.815a1.035 1.035 0 0 0-.513-.124zm-218.394.573c-.741 0-1.104.359-.81.797.293.438.903.797 1.349.797.447 0 .81-.359.81-.797 0-.439-.609-.797-1.349-.797zm-55.356.324c-.123.017-.265.06-.378.124a.846.846 0 0 0-.297 1.22c.278.416.873.531 1.323.274a.845.845 0 0 0 .296-1.22c-.208-.311-.574-.45-.944-.398zM82.043 56.84c-.475 0-1.447.347-2.159.772-.713.425-.907.772-.432.772.475 0 1.447-.347 2.16-.772.712-.425.906-.772.43-.772zm310.781.298c-.124.018-.266.06-.378.125a.846.846 0 0 0-.297 1.22c.278.416.872.531 1.322.274a.844.844 0 0 0 .297-1.22c-.209-.311-.574-.45-.944-.398zm-199.508 1.595c-.124.017-.266.06-.378.124a.846.846 0 0 0-.297 1.22c.278.416.872.531 1.322.274a.846.846 0 0 0 .297-1.22c-.209-.311-.574-.45-.944-.398zm196.051 0a1.12 1.12 0 0 0-.378.124.845.845 0 0 0-.296 1.22c.277.416.872.531 1.322.274a.846.846 0 0 0 .297-1.22c-.208-.311-.574-.45-.945-.398zm-189.706 1.37c-.098.001-.191.03-.297.05-2.167.387-2.483 2.24-.378 2.24 1.061 0 1.809-.505 1.809-1.245 0-.65-.451-1.06-1.134-1.046zm10.633 4.682c-1.005 0-1.589.358-1.295.796.293.439.877.798 1.295.798.42 0 1.003-.36 1.296-.798.294-.438-.289-.796-1.296-.796zm117.865 1.02c-.623 0-1.519.095-2.78.274-2.257.323-4.8.523-5.641.474-.841-.05-1.324.209-1.08.573.669.998-3.474 3.23-6.207 3.337l-2.402.1 2.591.498c1.425.281 2.396.83 2.158 1.22-.498.819 2.188 1.936 4.859 2.017 1.006.031 3.92-.728 6.477-1.693 5.191-1.96 6.48-3.097 4.615-4.06-.69-.356-1.268-1.205-1.268-1.868 0-.617-.285-.869-1.322-.871zm-13.981.598c-.843 0-1.98.263-2.833.772-1.014.605-.793.788 1.025.798 1.278.006 2.567-.36 2.86-.798.342-.508-.209-.772-1.052-.772zm67.42 5.878a1.11 1.11 0 0 0-.378.125.846.846 0 0 0-.297 1.22c.278.415.873.53 1.322.274a.847.847 0 0 0 .298-1.22c-.209-.312-.575-.45-.945-.399zm-166.386 2.266c1.176-.038 4.412 1.276 4.993 2.142.311.466.249.84-.135.823-1.201-.056-5.618-2.463-5.21-2.84a.53.53 0 0 1 .352-.125zm-213.781.125a4.014 4.014 0 0 0-.648.025 1.463 1.463 0 0 0-.54.15c-.42.24-.28.953.297 1.594 1.145 1.272 5.666 1.189 5.29-.1-.216-.741-2.748-1.59-4.4-1.67zm197.074 0a1.141 1.141 0 0 0-.378.124.846.846 0 0 0-.297 1.22c.279.416.873.532 1.323.275a.846.846 0 0 0 .297-1.22c-.209-.311-.575-.451-.945-.4zm-3.454.797a1.1 1.1 0 0 0-.378.125.845.845 0 0 0-.297 1.22c.278.415.872.53 1.322.274a.846.846 0 0 0 .297-1.22c-.208-.312-.574-.451-.944-.399zm-3.212 2.292c-.197.016-.416.16-.675.398-.523.482-.694 1.481-.378 2.241.418 1.006.821 1.161 1.511.523.523-.481.695-1.505.378-2.266-.261-.628-.509-.924-.836-.896zm-6.639.074c-1.204.117-2.639 1.315-2.052 2.192.267.398 1.247.316 2.24-.174 1.25-.618 1.515-1.118.864-1.719-.269-.248-.652-.338-1.052-.299zm161.048.822c-.653.088-1.228.844-.864 1.719.249.599.058 1.305-.404 1.569-.463.263-.602.83-.324 1.245.278.415.875.519 1.349.249s.67-.677.405-.921c-.265-.245-.08-.926.432-1.495.512-.569.689-1.403.378-1.868-.197-.294-.449-.454-.702-.498a.838.838 0 0 0-.27 0zm80.106 2.84c.157-.014.323-.012.486 0 1.088.074 2.283.665 2.807 1.568 1.208 2.082 1.124 2.695-.297 2.192-.654-.232-1.529-.108-1.943.274-.428.395-1.171-.132-1.728-1.22-.538-1.053-.773-2.1-.512-2.342.298-.275.718-.431 1.187-.473zm-68.066 1.992c-.799.024-1.349 1.086-.675 2.092.418.624.835.624 1.511 0 .676-.624.676-1.12 0-1.744-.287-.264-.57-.356-.836-.349zm-141.641.747c-.123.017-.264.06-.377.125a.845.845 0 0 0-.297 1.22c.278.415.873.53 1.322.274a.846.846 0 0 0 .297-1.22c-.208-.312-.574-.452-.945-.399zm186.55 0c-.124.017-.266.06-.378.125a.845.845 0 0 0-.297 1.22c.278.415.873.53 1.322.274a.847.847 0 0 0 .298-1.22c-.209-.312-.575-.452-.945-.399zm-393.828.797c-.124.017-.266.06-.378.124a.845.845 0 0 0-.297 1.22c.278.416.872.531 1.322.275a.845.845 0 0 0 .297-1.22c-.208-.312-.574-.451-.944-.4zm345.514 3.188c-.391.069-1.317.67-2.671 1.843-2.728 2.362-4.085 5.501-2.726 6.276.487.278.507.848.054 1.395-.879 1.06 1.29 3.312 3.184 3.312.677 0 1.312.98 1.458 2.242.195 1.683-.224 2.41-1.647 2.939-1.039.386-1.548.719-1.133.747.414.028.268.587-.324 1.245-.897.997-.784 1.195.702 1.195 2.954 0 3.107 1.618.243 2.615-3.645 1.27-3.381 2.221.351 1.271 1.659-.423 3.506-.719 4.102-.648 4.019.483 6.195-.445 7.071-3.038.445-1.315.254-1.794-.701-1.794-1.499 0-2.218-.875-2.726-3.312-.356-1.706-3.302-5.249-5.371-6.475-.829-.492-.719-1.12.432-2.74 1.463-2.062 1.461-2.1-.432-1.644-2.736.66-3.227-.632-1.134-3.088 1.39-1.63 1.772-2.43 1.268-2.341zm-336.02 1.594c-.122.017-.264.06-.377.124a.845.845 0 0 0-.297 1.22c.278.416.873.531 1.323.274a.846.846 0 0 0 .297-1.22c-.209-.311-.575-.45-.945-.398zm327.331 0a1.13 1.13 0 0 0-.378.124.845.845 0 0 0-.296 1.22c.277.416.872.531 1.322.274a.846.846 0 0 0 .297-1.22c-.208-.311-.574-.45-.945-.398zm62.184 0a1.13 1.13 0 0 0-.378.124.846.846 0 0 0-.297 1.22c.278.416.873.531 1.322.274a.845.845 0 0 0 .298-1.22c-.209-.311-.574-.45-.945-.398zm-368.246 1.02c-1.293.088-5.155 2.466-5.155 3.363 0 .336.27.848.594 1.146.78.72 5.533-3.497 4.94-4.384l.08-.099-.135.074a.413.413 0 0 0-.324-.1zm33.143 1.371c-.123.017-.265.06-.378.124a.846.846 0 0 0-.297 1.22c.278.416.873.531 1.323.275a.846.846 0 0 0 .297-1.22c-.209-.312-.574-.452-.945-.399zm272.919.797c-.124.017-.266.06-.378.124a.846.846 0 0 0-.297 1.22c.278.416.872.531 1.322.274a.845.845 0 0 0 .297-1.22c-.209-.311-.574-.45-.944-.398zm53.547.05c-.8.023-1.349 1.085-.675 2.092.417.624.835.624 1.511 0 .676-.624.676-1.12 0-1.744-.286-.264-.57-.356-.836-.349zM2.456 95.392c-.123.018-.265.061-.378.125a.846.846 0 0 0-.297 1.22c.278.416.873.531 1.323.275a.846.846 0 0 0 .297-1.22c-.209-.312-.575-.452-.945-.4zm31.955.797c-.123.018-.265.06-.378.125a.846.846 0 0 0-.297 1.22c.279.416.873.53 1.323.274a.845.845 0 0 0 .297-1.22c-.209-.311-.574-.45-.945-.398zm157.189.798c-.123.017-.265.06-.378.124a.846.846 0 0 0-.296 1.22c.278.416.873.531 1.322.275a.846.846 0 0 0 .297-1.22c-.208-.312-.574-.452-.945-.4zM79.566 98.034a.568.568 0 0 0-.188.025c-.819.208-1.134 1.77-.567 2.814.182.336.652.402 1.053.174.899-.512.578-2.925-.298-3.013zm-46.88.548c-.123.017-.265.06-.378.124a.845.845 0 0 0-.297 1.22c.278.416.873.531 1.323.275a.846.846 0 0 0 .297-1.22c-.209-.312-.575-.452-.945-.4zm677.974 0a1.15 1.15 0 0 0-.381.124.846.846 0 0 0-.292 1.22c.279.416.87.531 1.321.275a.85.85 0 0 0 .299-1.22c-.21-.312-.578-.452-.947-.4zm-325.599.847c-.799.024-1.348 1.085-.674 2.092.417.623.835.623 1.511 0 .676-.624.676-1.12 0-1.744-.286-.264-.57-.357-.837-.348zm6.91.747c-.124.017-.266.06-.378.124a.846.846 0 0 0-.297 1.221c.278.414.872.53 1.323.273a.845.845 0 0 0 .296-1.22c-.208-.311-.574-.451-.944-.398zm-47.447.174c-.451.035-.798.249-1.134.622-.507.565-.655 1.264-.324 1.57.331.306-.265.766-1.322 1.021-1.454.351-1.697.719-.999 1.494.642.714.656 1.185.027 1.544-.792.452-1.361 3.612-.648 3.612.148 0 1.843-.707 3.779-1.569 2.946-1.314 3.594-2.021 3.886-4.334.285-2.251-.005-2.906-1.565-3.561-.698-.294-1.25-.434-1.7-.399zm-329.974.622a1.13 1.13 0 0 0-.378.125.845.845 0 0 0-.296 1.22c.278.416.872.531 1.322.275a.846.846 0 0 0 .297-1.221c-.208-.312-.574-.451-.945-.399zm648.37.474c-.559 0-.8.312-.54.697.254.385-.165 1.846-.921 3.238-1.156 2.139-1.181 2.916-.241 5.006.654 1.45 1.035 5.001.915 8.592-.159 5.062.031 6.102 1.137 6.102.73 0 1.321-.438 1.321-.997 0-.558-.388-1.248-.864-1.519-.959-.548-1.182-4.61-.299-5.429.318-.288 1.093-.14 1.728.349 1.258.959 1.62-.104.464-1.345-1.404-1.506-2.84-9.015-2.268-11.831.4-1.97.261-2.863-.432-2.863zm52.06.324c-.121.017-.267.06-.375.124a.844.844 0 0 0-.298 1.221c.279.414.87.53 1.321.273a.843.843 0 0 0 .298-1.22.958.958 0 0 0-.946-.398zm-705.936.672c-.913.033-1.721.729-1.242 1.444.273.408.85.748 1.269.748 1.209 0 1.856-1.442.89-1.993-.287-.164-.613-.21-.917-.199zm70.28.175c-.8.024-1.349 1.085-.675 2.092.418.623.835.623 1.511 0 .676-.624.676-1.12 0-1.744-.286-.265-.57-.357-.836-.348zm-74.275 2.341c-.123.017-.265.06-.378.124a.845.845 0 0 0-.297 1.22c.278.415.873.531 1.323.274a.845.845 0 0 0 .297-1.22c-.209-.311-.575-.451-.945-.398zm720.292.796a1.1 1.1 0 0 0-.375.125.843.843 0 0 0-.298 1.22c.279.416.87.531 1.321.275a.844.844 0 0 0 .298-1.221c-.209-.311-.578-.451-.946-.399zm-537.871.026c-.227-.014-.458.098-.702.323-.651.6-.588 1.204.189 2.067 1.533 1.705 2.829.723 1.674-1.27-.419-.721-.784-1.099-1.161-1.12zM80.4 107.149c-.038-.006-.054 0-.08.025-.217.2.069 1.524.647 2.939.579 1.415 1.181 2.234 1.322 1.843.142-.391-.17-1.716-.674-2.939-.441-1.07-.95-1.824-1.215-1.868zm608.661 5.031c-.8.024-1.347 1.086-.673 2.092.419.624.832.624 1.512 0 .673-.624.673-1.119 0-1.743-.286-.265-.572-.357-.839-.349zm-597.979 1.694c-.346.036-.5.175-.35.398.266.398 1.227.723 2.132.723s2.055.717 2.564 1.594c.508.876 1.33 1.593 1.808 1.593 1.501 0-3.007-3.759-5.047-4.209a4.878 4.878 0 0 0-.702-.099 2.365 2.365 0 0 0-.405 0zm151.196.074c-.816.101-2.45.96-4.265 2.491-3.197 2.697-3.428 3.154-2.375 4.483 1.158 1.462 2.799 1.448 7.098-.074 1.064-.377 1.346-.258.891.423-.358.533-.394 1.595-.081 2.341.53 1.26.631 1.24 1.7-.099.74-.928 1.358-1.125 1.728-.573.315.471.953.63 1.403.373a.845.845 0 0 0 .297-1.22c-.278-.416-.91-.506-1.404-.225-.561.321-.686-.094-.35-1.071.763-2.219-2.202-4.541-4.832-3.785-1.961.564-1.964.539-.432-1.046 1.436-1.484 1.437-2.119.622-2.018zm-69.12 1.047c.475 0 .863.358.863.796 0 .439-.388.798-.863.798s-.864-.359-.864-.798c0-.438.389-.796.864-.796zm53.547 1.045a2.43 2.43 0 0 0-.702.15c-1.305.467-1.3.614.216 1.644 1.939 1.317 3.62 1.481 4.345.398.628-.938-2.026-2.289-3.859-2.192zm460.622.075a1.144 1.144 0 0 0-.375.125.843.843 0 0 0-.298 1.22c.279.416.876.531 1.321.274a.843.843 0 0 0 .298-1.22c-.209-.312-.571-.451-.946-.399zm-2.586 2.391a1.138 1.138 0 0 0-.381.125.849.849 0 0 0-.298 1.22c.279.415.876.531 1.321.274a.844.844 0 0 0 .299-1.22.953.953 0 0 0-.941-.399zm-509.56.847c.467.03.984.197 1.7.498 1.232.518 2.83 2.111 3.563 3.537 1.115 2.17 1.993 2.714 5.371 3.287 2.22.377 4.197 1.132 4.399 1.694.202.561-.117.92-.728.797-.637-.128-1.325.799-1.62 2.166-.515 2.389-.533 2.387-1.62.573-.597-.998-1.401-1.626-1.808-1.394-.407.232-.562-.256-.323-1.096.28-.989-.182-1.84-1.296-2.391-1.443-.712-1.951-.48-3.266 1.345-.862 1.197-1.794 3.78-2.051 5.753-.297 2.274-.713 3.208-1.161 2.565-.388-.557-.594-1.991-.458-3.188.136-1.195 0-2.52-.297-2.963-.753-1.124 1.165-3.348 3.211-3.711 4.912-.873-2.709-3.896-8.475-3.363-3.203.297-3.389.24-1.484-.522 1.188-.475 2.992-1.572 3.995-2.441.971-.842 1.57-1.196 2.348-1.146zm22.995 2.217c.304-.012.63.035.918.199.966.551.319 1.993-.891 1.993-.419 0-.995-.34-1.268-.747-.479-.716.329-1.411 1.241-1.445zm483.974.124a1.1 1.1 0 0 0-.375.125.844.844 0 0 0-.299 1.22c.28.415.87.531 1.321.274a.843.843 0 0 0 .299-1.22c-.21-.312-.572-.451-.946-.399zm-441.326.797a1.1 1.1 0 0 0-.378.125.845.845 0 0 0-.297 1.22c.278.415.872.53 1.322.274a.845.845 0 0 0 .297-1.22c-.209-.312-.574-.451-.944-.399zm230.331 1.644c1.404.002 1.7.418 1.7 1.843 0 1.361-.382 1.799-1.242 1.494-.678-.24-1.672.091-2.24.723-.568.631-.759 1.145-.405 1.145s.21.478-.324 1.071c-.744.829-.482 1.556 1.107 3.139 1.138 1.132 1.865 2.263 1.619 2.49-.246.227-.195 1.057.135 1.843.558 1.328.683 1.316 1.674.075.986-1.236 1.144-1.221 2.105.199.892 1.318.798 1.544-.648 1.544-2.335 0-3.002 1.327-1.161 2.316.842.452 1.292.834.999.847-.292.014-.233 1.444.108 3.163.546 2.753.384 3.165-1.215 3.562-3.348.829-5.415.49-7.044-1.171-1.531-1.561-1.539-1.833-.216-5.23 1.16-2.975 1.193-3.664.216-4.01-1.605-.568-4.881-8.863-4.237-10.734.623-1.811 5.1-4.093 8.393-4.284.249-.015.475-.025.676-.025zm-279.555.747c.37-.052.735.087.944.399a.845.845 0 0 1-.297 1.22c-.45.257-1.044.141-1.322-.274a.845.845 0 0 1 .297-1.22 1.1 1.1 0 0 1 .378-.125zm485.379 0a1.122 1.122 0 0 0-.382.125.847.847 0 0 0-.292 1.22c.273.415.87.531 1.321.274a.848.848 0 0 0 .299-1.22c-.21-.312-.578-.451-.946-.399zm-188.439 1.27c1.107 0 .882 3.545-.297 4.633-1.404 1.295-2.132 1.183-2.78-.374-.533-1.284 1.615-4.259 3.077-4.259zm185.529.996c-.915.034-1.722.73-1.245 1.445.273.408.851.747 1.27.747 1.207 0 1.855-1.441.89-1.992-.286-.164-.616-.21-.915-.2zm-13.791.3v.049c-.579.196-.864 1.094-.864 2.69 0 1.509-.445 2.341-1.246 2.341-1.867 0-2.325 1.218-1.346 3.587.838 2.034 3.271 2.427 2.776.448-.146-.603.381-.799 1.404-.498.953.278 2.09-.014 2.725-.723.604-.667 1.607-1.22 2.242-1.22 1.462 0 3.24-2.919 2.16-3.537-.432-.247-1.34-.258-1.994-.024-.661.233-2.103-.474-3.215-1.57-1.169-1.148-2.014-1.642-2.592-1.494l-.05-.049zm10.659 1.419a1.13 1.13 0 0 0-.381.124.843.843 0 0 0-.292 1.221c.273.415.87.531 1.321.274a.842.842 0 0 0 .292-1.22c-.203-.312-.571-.451-.94-.399zm-471.965 2.192a.889.889 0 0 1 .243 0c.179.028.235.146.162.324-.256.616-1.761 1.439-3.347 1.843-1.586.404-4.212 1.676-5.83 2.814-1.617 1.138-3.435 2.067-4.048 2.067-1.671 0 2.312-2.554 8.34-5.355 2.225-1.033 3.771-1.62 4.48-1.693zm471.095.996c-.121.018-.261.06-.375.124a.845.845 0 0 0-.299 1.221c.28.415.877.531 1.322.274a.843.843 0 0 0 .298-1.22c-.209-.312-.571-.451-.946-.399zm-290.19 2.441c-.798.024-1.348 1.086-.674 2.092.418.624.835.624 1.511 0 .676-.624.676-1.12 0-1.744-.287-.264-.57-.356-.837-.348zm278.183 4.757c-1.003.037-1.759.757-1.918 2.042-.572 4.709-1.061 5.751-2.293 4.807-.75-.573-1.398-.619-1.728-.125-.286.43-.102 1.032.406 1.32.636.364.598.857-.108 1.644-.768.852-1.308.92-2.185.249-.915-.697-1.34-.463-1.976 1.071-.629 1.536-1.594 2.063-4.453 2.416-2.401.297-4.389 1.165-5.774 2.541-1.531 1.527-2.389 1.876-3.183 1.27-1.943-1.488-2.205.108-.405 2.44.964 1.253 1.498 2.651 1.186 3.113-.311.463-.343 1.381-.082 2.018.851 2.036 2.376 1.238 3.729-1.943.953-2.249 1.728-3 2.808-2.739.813.196 1.975-.188 2.585-.872.953-1.054.82-1.378-.915-2.017-2.02-.747-2.026-.748-.133-.797 1.118-.03 2.319.669 2.916 1.693.997 1.719 1.054 1.722 2.427.199.946-1.052 2.477-1.559 4.828-1.569h3.455l1.296-4.906c.712-2.7 1.588-5.18 1.944-5.504 1.042-.947.743-4.843-.432-5.654-.711-.493-1.397-.72-1.995-.697zm-278.287.647c-.548.032-1.053.598-1.053 1.694 0 1.509.357 1.92 1.35 1.569.736-.261 1.221-1.018 1.08-1.694-.228-1.082-.829-1.601-1.377-1.569zm-9.204.971a1.325 1.325 0 0 0-.324.026c-.149.03-.291.091-.432.174-.561.329-1.317.616-1.673.622-.356.007-.647.269-.647.598v1.047c0 .244.485.148 1.079-.2s1.371-.661 1.727-.722c.357-.062.869-.17 1.134-.224.266-.055.244-.476-.054-.922-.168-.251-.48-.385-.81-.399zm-6.234 3.139c-.123.017-.266.06-.378.124a.846.846 0 0 0-.297 1.221c.278.415.872.53 1.323.273a.845.845 0 0 0 .297-1.22c-.209-.311-.575-.45-.945-.398zm26.476 2.864c-3.068 0-3.363 1.008-.647 2.217 2.8 1.246 3.238 1.16 3.238-.623 0-1.24-.575-1.594-2.591-1.594zm13.252.324c-.123.017-.265.06-.378.124a.847.847 0 0 0-.296 1.221c.277.415.872.53 1.322.273a.845.845 0 0 0 .297-1.22c-.209-.311-.574-.45-.945-.398zm-18.137 2.391a1.1 1.1 0 0 0-.377.124.847.847 0 0 0-.298 1.221c.279.415.873.53 1.323.274a.846.846 0 0 0 .297-1.221c-.209-.311-.575-.451-.945-.398zm31.092 0c-.124.017-.265.06-.378.124a.846.846 0 0 0-.297 1.221c.278.415.873.53 1.323.274a.846.846 0 0 0 .296-1.221c-.208-.311-.574-.451-.944-.398zm-4.318.797c-.124.017-.266.06-.378.124a.845.845 0 0 0-.297 1.22c.278.416.872.531 1.322.274a.844.844 0 0 0 .297-1.22c-.209-.311-.574-.451-.944-.398zm18.11 2.191c-.393-.002-.787.067-1.107.249-.505.289-.705.862-.432 1.27.66.985 2.753.958 3.428-.049.492-.735-.713-1.463-1.889-1.47zm-40.565.2c-.124.017-.266.06-.378.124a.846.846 0 0 0-.298 1.221c.279.415.873.53 1.323.274a.846.846 0 0 0 .297-1.221c-.209-.311-.575-.451-.944-.398zm-3.456.796a1.132 1.132 0 0 0-.377.125.845.845 0 0 0-.297 1.22c.278.416.873.531 1.322.274a.845.845 0 0 0 .297-1.22c-.208-.311-.574-.451-.945-.399zm26.558.573c-.3.012-.558.092-.702.225-.287.265.223.432 1.134.398 1.006-.038 1.201-.218.513-.473a2.511 2.511 0 0 0-.945-.15zm215.267 4.209a1.123 1.123 0 0 0-.378.125.845.845 0 0 0-.297 1.22c.278.416.872.531 1.323.274a.846.846 0 0 0 .296-1.22c-.208-.312-.574-.451-.944-.399zm-405.922 1.594a1.125 1.125 0 0 0-.377.125.845.845 0 0 0-.298 1.22c.279.416.873.531 1.323.274a.845.845 0 0 0 .297-1.22c-.209-.312-.575-.451-.945-.399zm101.912.798c-.124.017-.266.06-.378.124a.845.845 0 0 0-.297 1.22c.278.415.872.531 1.323.274a.845.845 0 0 0 .296-1.22c-.208-.311-.574-.451-.944-.398zm307.466 0c-.124.017-.265.06-.378.124a.845.845 0 0 0-.297 1.22c.278.415.873.531 1.322.274a.845.845 0 0 0 .298-1.22c-.209-.311-.575-.451-.945-.398zm-309.191 9.564a1.1 1.1 0 0 0-.377.124.846.846 0 0 0-.298 1.221c.279.415.873.53 1.323.274a.846.846 0 0 0 .297-1.221c-.209-.311-.575-.451-.945-.398zm7.774.797c-.124.017-.266.06-.378.124a.845.845 0 0 0-.297 1.22c.278.416.872.531 1.322.274a.844.844 0 0 0 .297-1.22c-.209-.311-.574-.451-.944-.398zm304.01 0c-.124.017-.266.06-.378.124a.845.845 0 0 0-.297 1.22c.277.416.872.531 1.324.274a.842.842 0 0 0 .292-1.22c-.203-.311-.571-.451-.941-.398zm-308.325.797c-.124.017-.266.06-.378.124a.846.846 0 0 0-.297 1.221c.278.415.873.53 1.322.274a.846.846 0 0 0 .298-1.221c-.209-.311-.575-.451-.945-.398zm-132.137 1.594c-.124.017-.265.06-.378.124a.846.846 0 0 0-.297 1.221c.278.415.873.53 1.322.274a.846.846 0 0 0 .297-1.221c-.208-.311-.574-.451-.944-.398zm128.688 0c-.124.017-.265.06-.378.124a.845.845 0 0 0-.296 1.221c.277.415.872.53 1.321.274a.846.846 0 0 0 .298-1.221c-.209-.311-.574-.451-.945-.398zm-125.232.796a1.13 1.13 0 0 0-.378.125.845.845 0 0 0-.297 1.22c.279.416.873.531 1.323.274a.845.845 0 0 0 .297-1.22c-.209-.311-.575-.451-.945-.399zm433.721.175c-1.132.012-2.449 1.663-1.728 2.74.432.644 1.024.524 1.998-.374.958-.884 1.092-1.508.459-2.092a1.024 1.024 0 0 0-.729-.274zm-155.622 2.217c-.123.017-.265.06-.378.124a.847.847 0 0 0-.297 1.221c.278.414.873.53 1.323.273a.845.845 0 0 0 .297-1.22c-.209-.311-.575-.451-.945-.398zm-281.555.796a1.13 1.13 0 0 0-.378.125.845.845 0 0 0-.297 1.22c.278.416.873.531 1.322.275a.846.846 0 0 0 .297-1.221c-.208-.312-.574-.451-.944-.399zm4.318 0a1.137 1.137 0 0 0-.378.125.845.845 0 0 0-.297 1.22c.279.416.873.531 1.323.275a.846.846 0 0 0 .297-1.221c-.209-.312-.575-.451-.945-.399zm427.51 1.594a1.13 1.13 0 0 0-.378.125.845.845 0 0 0-.296 1.22c.277.416.872.531 1.322.275a.847.847 0 0 0 .297-1.221c-.209-.312-.574-.451-.945-.399zm-430.1.798c-.124.017-.265.06-.378.124a.846.846 0 0 0-.297 1.221c.278.414.873.53 1.322.273a.846.846 0 0 0 .298-1.22c-.209-.311-.575-.45-.945-.398zm4.318 0c-.123.017-.266.06-.378.124a.846.846 0 0 0-.297 1.221c.279.414.873.53 1.323.273a.845.845 0 0 0 .297-1.22c-.209-.311-.575-.45-.945-.398zm422.33 0c-.124.017-.266.06-.378.124a.846.846 0 0 0-.298 1.221c.279.414.873.53 1.323.273a.845.845 0 0 0 .297-1.22c-.209-.311-.574-.45-.944-.398zm-5.371.174c-.15.029-.364.152-.621.348-1.248.956-1.683 4.848-.648 5.804.792.73.866.574 1.403-3.313.3-2.166.313-2.926-.134-2.839zm-418.687 2.217c-.126.014-.265.06-.378.124a.846.846 0 0 0-.297 1.221c.279.415.833.557 1.242.323.409-.233.992-.054 1.296.399.303.452.926.605 1.376.348a.845.845 0 0 0 .297-1.22c-.278-.415-.832-.557-1.242-.323-.409.233-.992.054-1.295-.399a1.072 1.072 0 0 0-.999-.473zm-12.01 1.37c-1.35-.004-2.435.352-3.455 1.045-1.629 1.109-1.612 1.146.486 1.868 1.188.41 2.062.992 1.943 1.271-.447 1.047-.174 1.371.702.871.619-.353.584-.875-.108-1.643-.7-.778-.735-1.122-.081-1.122 1.413 0 10.449 4.06 10.364 4.658a4.43 4.43 0 0 0 .027 1.121c.179 1.041 5.047.642 6.073-.498.794-.884-.368-1.725-6.046-4.384-4.657-2.18-7.655-3.183-9.905-3.187zm18.056 1.02a1.137 1.137 0 0 0-.378.125.845.845 0 0 0-.297 1.22c.278.416.873.531 1.323.274a.844.844 0 0 0 .296-1.22c-.208-.311-.574-.451-.944-.399zm3.456.798c-.123.017-.265.06-.378.124a.846.846 0 0 0-.296 1.221c.278.415.872.53 1.322.274a.846.846 0 0 0 .297-1.221c-.208-.311-.574-.451-.945-.398zm-1.731 2.39a1.123 1.123 0 0 0-.378.125.845.845 0 0 0-.297 1.22c.278.415.872.531 1.322.274a.845.845 0 0 0 .297-1.22c-.209-.312-.574-.451-.944-.399zm386.347 3.686c-.667.064-1.474.484-1.781 1.221-.363.874-.084 1.175.918.996.79-.141 1.584-.697 1.781-1.245.265-.733-.25-1.035-.918-.972zm-384.19 1.196c-1.318-.03-2.156.151-1.889.548.232.347-.3.881-1.161 1.195-2.411.878 3.005 1.672 6.126.897 1.375-.342 2.832-.432 3.239-.199.408.232.729.068.729-.349s-1.069-1.04-2.375-1.395c-1.571-.426-3.352-.668-4.669-.697zm11.335 1.37c-.912.033-1.72.729-1.241 1.444.273.408.85.747 1.268.747 1.21 0 1.857-1.441.891-1.992a1.71 1.71 0 0 0-.918-.199zm-23.885.722c-.393-.003-.787.067-1.107.249-.506.288-.705.862-.432 1.27.659.985 2.753.958 3.428-.05.492-.734-.712-1.462-1.889-1.469zm421.112.149c-1.294.062-1.578.782-2.024 3.886-.631 4.386.106 5.756 3.428 6.525 2.201.51 5.11 4.592 4.048 5.678-.337.346-.116.37.486.05.601-.319.822-1.002.485-1.519h-.026c-.349-.536.031-.474.864.15 3.02 2.261 1.296-.124-2.862-3.961-4.715-4.351-4.944-4.829-3.022-6.301 2.109-1.615 1.65-4.355-.756-4.483-.23-.012-.436-.034-.621-.025zm-393.455.847a1.103 1.103 0 0 0-.377.125.845.845 0 0 0-.298 1.22c.279.415.873.531 1.323.274a.846.846 0 0 0 .297-1.221c-.209-.311-.575-.45-.945-.398zm-43.183.797c-.123.018-.266.06-.378.124a.846.846 0 0 0-.297 1.221c.279.415.873.531 1.323.274a.845.845 0 0 0 .297-1.22c-.209-.312-.575-.451-.945-.399zm46.638 0c-.124.018-.265.06-.378.124a.845.845 0 0 0-.296 1.221c.277.415.872.531 1.322.274a.845.845 0 0 0 .297-1.22c-.209-.312-.574-.451-.945-.399zm3.455.797c-.123.017-.266.06-.378.125a.845.845 0 0 0-.297 1.22c.278.416.872.531 1.323.274a.845.845 0 0 0 .296-1.221c-.208-.311-.574-.45-.944-.398zm76.866 1.594c-.123.017-.265.06-.378.125a.845.845 0 0 0-.296 1.22c.277.415.872.53 1.322.274a.846.846 0 0 0 .297-1.221c-.208-.311-.574-.45-.945-.398zm5.182.797a1.137 1.137 0 0 0-.378.125.844.844 0 0 0-.296 1.22c.278.415.872.531 1.322.274a.845.845 0 0 0 .297-1.22c-.209-.312-.574-.451-.945-.399zm-82.047.797c-.123.018-.265.06-.378.125a.845.845 0 0 0-.297 1.22c.279.415.873.53 1.323.274a.846.846 0 0 0 .297-1.221c-.209-.311-.575-.45-.945-.398zm78.59 2.391a1.115 1.115 0 0 0-.378.125.845.845 0 0 0-.297 1.22c.279.415.873.531 1.323.274a.845.845 0 0 0 .297-1.22c-.209-.312-.575-.451-.945-.399zm3.455 0a1.1 1.1 0 0 0-.378.125.845.845 0 0 0-.297 1.22c.278.415.873.531 1.323.274a.845.845 0 0 0 .296-1.22c-.208-.312-.574-.451-.944-.399zm-81.182.797c-.123.018-.265.06-.378.124-.449.257-.603.769-.35 1.147.253.377.058.915-.432 1.195-.491.28-.656.855-.378 1.27.278.415.873.531 1.322.274.451-.257.605-.768.352-1.146-.254-.378-.059-.916.431-1.195.491-.28.656-.855.378-1.27-.208-.312-.574-.451-.945-.399zm392.963 0a1.12 1.12 0 0 0-.378.124.846.846 0 0 0-.297 1.221c.278.415.873.531 1.323.274a.846.846 0 0 0 .296-1.22c-.208-.312-.574-.451-.944-.399zm-389.513 3.188c-.123.018-.265.06-.378.124a.847.847 0 0 0-.297 1.221c.278.415.873.531 1.323.274a.844.844 0 0 0 .296-1.22c-.208-.311-.574-.451-.944-.399zm381.735.05c-.799.024-1.349 1.086-.674 2.092.417.624.835.624 1.511 0 .676-.624.676-1.119 0-1.743-.287-.265-.571-.357-.837-.349zm-400.741.747c-.123.018-.265.06-.377.125a.845.845 0 0 0-.298 1.22c.279.416.873.531 1.323.274a.846.846 0 0 0 .297-1.221c-.209-.311-.575-.45-.945-.398zm340.283 0a1.1 1.1 0 0 0-.378.125.845.845 0 0 0-.298 1.22c.279.416.873.531 1.323.274a.846.846 0 0 0 .297-1.221c-.209-.311-.575-.45-.944-.398zm-336.826.797a1.123 1.123 0 0 0-.378.125.845.845 0 0 0-.297 1.22c.278.415.872.531 1.323.274a.846.846 0 0 0 .296-1.22c-.208-.312-.574-.451-.944-.399zm254.778 0a1.125 1.125 0 0 0-.377.125.845.845 0 0 0-.298 1.22c.279.415.873.531 1.323.274a.845.845 0 0 0 .297-1.22c-.209-.312-.575-.451-.945-.399zm-244.417.797c-.124.018-.265.06-.378.125a.845.845 0 0 0-.297 1.22c.278.416.873.53 1.323.274a.846.846 0 0 0 .296-1.221c-.208-.311-.574-.45-.944-.398zm384.325 0c-.123.018-.265.06-.377.125a.845.845 0 0 0-.298 1.22c.278.416.873.53 1.323.274a.846.846 0 0 0 .297-1.221c-.209-.311-.575-.45-.945-.398zm-57.865 1.594c-.124.018-.265.06-.378.125a.845.845 0 0 0-.297 1.22c.278.415.873.53 1.323.274a.847.847 0 0 0 .297-1.221c-.209-.311-.575-.45-.945-.398zm63.047 0c-.123.018-.265.06-.378.125a.845.845 0 0 0-.296 1.22c.278.415.872.53 1.322.274a.846.846 0 0 0 .297-1.221c-.208-.311-.574-.45-.945-.398zm-386.922.797a1.1 1.1 0 0 0-.378.125.845.845 0 0 0-.297 1.22c.277.415.872.531 1.322.274a.845.845 0 0 0 .297-1.22c-.209-.312-.574-.451-.944-.399zm-23.994.598c-.036.008-.052.022-.082.05-.237.219-.199 1.004.108 1.743.308.739.761 1.166.999.947.238-.22.172-1.005-.135-1.744-.269-.646-.642-1.051-.89-.996zm403.868.672c-.644 0-2.753 3.398-2.753 4.433 0 1.01.964.091 2.159-2.041.737-1.316 1.005-2.392.594-2.392zm14.817.324a1.108 1.108 0 0 0-.378.125.845.845 0 0 0-.297 1.22c.279.415.873.531 1.323.274a.845.845 0 0 0 .297-1.22c-.209-.312-.575-.451-.945-.399zm-47.501.797c-.123.018-.265.06-.377.124a.846.846 0 0 0-.298 1.221c.279.415.873.53 1.323.274a.845.845 0 0 0 .297-1.22c-.209-.312-.575-.451-.945-.399zm47.15 2.989c-.523-.01-1.349.346-2.753 1.021-1.723.83-2.382.888-2.402.199-.032-1.09-2.564 1.763-2.564 2.889 0 .409.577.306 1.269-.224 1.423-1.09 3.05-.477 3.05 1.146 0 1.622 1.873 1.884 3.428.473.817-.742 1.226-2.132 1.025-3.437-.219-1.42-.381-2.054-1.053-2.067zm-96.029.174c-.615-.036-1.129.635-1.349 2.018-.533 3.35.765 4.757 3.104 3.387.845-.495.861-1.218.108-3.213-.54-1.427-1.248-2.156-1.863-2.192zm-15.897.822a1.103 1.103 0 0 0-.377.125.845.845 0 0 0-.297 1.22c.278.415.873.531 1.322.274a.846.846 0 0 0 .297-1.221c-.208-.311-.574-.45-.945-.398zm130.658 3.088c-.197.017-.419.16-.673.399-.527.482-.699 1.481-.381 2.242.419 1.005.819 1.16 1.512.522.521-.482.692-1.506.381-2.266-.267-.629-.515-.923-.839-.897zm-130.66.1c-.123.017-.265.06-.378.125a.845.845 0 0 0-.296 1.22c.277.415.872.53 1.322.274a.846.846 0 0 0 .297-1.221c-.209-.311-.574-.45-.945-.398zm44.047.797a1.125 1.125 0 0 0-.377.125.845.845 0 0 0-.298 1.22c.278.415.873.531 1.323.274a.844.844 0 0 0 .296-1.22c-.208-.312-.574-.451-.944-.399zm49.015.623-4.723 4.309c-2.592 2.372-5.266 4.308-5.965 4.308-.698 0-1.462.68-1.7 1.519-.239.842-1.356 1.646-2.483 1.793-1.7.222-2.011.659-1.781 2.615.151 1.294 1.353 3.805 2.645 5.58 2.022 2.778 2.78 3.237 5.478 3.237 1.723 0 3.399.273 3.752.598.353.325 1.111.232 1.673-.199.563-.431 1.275-.543 1.592-.249.318.293.345-.553.054-1.893-.313-1.446-.14-2.663.432-2.989.53-.302 1.533-1.783 2.214-3.287.681-1.505 1.682-2.74 2.24-2.74.761 0 .757-.298-.027-1.171-.574-.638-.813-1.485-.54-1.892.273-.408-.345-.947-1.377-1.196-1.851-.446-1.85-.484.513-2.665l2.403-2.192-2.214-1.743-2.186-1.743zm7.989.971c-.124.017-.265.06-.378.124a.846.846 0 0 0-.297 1.221c.278.415.873.531 1.323.274a.845.845 0 0 0 .296-1.22c-.208-.312-.574-.451-.944-.399zm-100.181.797c-.124.017-.265.06-.378.124a.846.846 0 0 0-.297 1.221c.278.415.873.53 1.322.274a.846.846 0 0 0 .298-1.221c-.209-.311-.575-.45-.945-.398zm47.149 1.37 3.481 4.034c1.918 2.224 3.482 4.662 3.482 5.405 0 .743.972 2.183 2.159 3.213 1.187 1.029 2.179 2.447 2.186 3.138.016 1.56 6.996 8.829 8.177 8.518.476-.125.997-1.081 1.161-2.142.165-1.062.691-2.385 1.161-2.914.994-1.117.102-2.856-1.107-2.167-.965.551-6.033-3.664-5.452-4.533.219-.327-1.694-2.503-4.237-4.832-2.543-2.328-4.795-4.682-4.993-5.229-.198-.548-1.622-1.331-3.185-1.744l-2.833-.747zm-48.015 1.818c-.124.017-.265.06-.378.124a.846.846 0 0 0-.297 1.221c.278.415.873.53 1.323.274a.848.848 0 0 0 .297-1.221c-.209-.311-.574-.45-.945-.398zm74.275.797a1.1 1.1 0 0 0-.378.125.845.845 0 0 0-.297 1.22c.278.415.873.531 1.322.274a.847.847 0 0 0 .298-1.221c-.209-.311-.575-.451-.945-.398zm-211.594.797a1.12 1.12 0 0 0-.378.124.846.846 0 0 0-.297 1.221c.278.415.873.53 1.322.274a.846.846 0 0 0 .298-1.221c-.209-.311-.575-.45-.945-.398zm185.691 1.594a1.12 1.12 0 0 0-.378.124.846.846 0 0 0-.297 1.221c.277.415.872.53 1.322.274a.846.846 0 0 0 .297-1.221c-.209-.311-.574-.45-.944-.398zm69.092 0c-.123.018-.266.06-.378.124a.846.846 0 0 0-.297 1.221c.278.415.872.53 1.323.274a.845.845 0 0 0 .296-1.221c-.208-.311-.574-.45-.944-.398zm-256.51 1.594a1.12 1.12 0 0 0-.378.124.847.847 0 0 0-.298 1.221c.279.415.873.53 1.323.273a.845.845 0 0 0 .297-1.22c-.209-.311-.574-.45-.944-.398zm-207.28 1.594c-.123.017-.265.06-.378.124a.846.846 0 0 0-.296 1.221c.277.415.872.53 1.322.273a.845.845 0 0 0 .297-1.22c-.208-.311-.574-.45-.945-.398zm463.141.747c-.947 0-1.267.767-1.188 2.69.12 2.936 1.102 2.601 1.97-.648.411-1.538.205-2.042-.782-2.042zm-64.991.05c-.124.017-.265.06-.378.125a.845.845 0 0 0-.297 1.22c.278.415.873.53 1.322.274a.846.846 0 0 0 .297-1.221c-.208-.311-.574-.451-.944-.398zm56.084.747a47.134 47.134 0 0 0-2.213.025c-2.689.075-5.261.496-5.695.921-1.485 1.455-2.82 9.256-1.781 10.411.524.583.726 1.404.432 1.843-.446.665 1.132 4.06 1.889 4.06.129 0 .004-1.426-.297-3.163-1.053-6.077 1.705-7.441 3.023-1.495.732 3.302 2.236 3.498 2.294.299.028-1.56-.678-2.948-2.078-4.06-2.547-2.021-1.8-3.898 1.268-3.187 1.237.286 2.052.124 2.052-.399 0-.52-1.27-.772-3.158-.622-2.142.17-3.317-.117-3.59-.872-.602-1.668 2.3-3.222 5.047-2.715 1.319.244 3.095.088 3.941-.348.858-.444.588-.662-1.134-.698zm-249.546.05c-.123.017-.265.06-.378.124a.847.847 0 0 0-.296 1.221c.277.415.872.53 1.322.273a.845.845 0 0 0 .297-1.22c-.209-.311-.574-.45-.945-.398zm262.549 1.594c-.12.017-.265.06-.377.124a.846.846 0 0 0-.297 1.221c.279.415.871.53 1.322.273a.844.844 0 0 0 .299-1.22.96.96 0 0 0-.947-.398zm-467.237.797c-.124.017-.266.06-.378.124a.847.847 0 0 0-.298 1.221c.279.415.873.53 1.323.274a.846.846 0 0 0 .297-1.221c-.209-.311-.574-.451-.944-.398zm-3.457.049c-.799.025-1.348 1.086-.674 2.092.418.624.835.624 1.511 0 .676-.623.676-1.119 0-1.743-.287-.265-.571-.357-.837-.349zm6.909.748c-.123.017-.265.06-.378.124a.845.845 0 0 0-.296 1.22c.278.416.873.531 1.322.274a.845.845 0 0 0 .297-1.22c-.208-.311-.574-.451-.945-.398zm467.051.771c-1.36.076-.356 1.239 2.35 2.192 2.065.728 2.141.908.839 1.794-.896.606-1.188 1.378-.756 2.017.476.716.889.776 1.296.174.8-1.201 8.861 2.752 10.602 5.205 1.245 1.751 1.201 2.038-.292 3.612-1.366 1.435-1.385 1.646-.191 1.245.782-.262 2.821.201 4.536 1.047 3.481 1.722 6.67 2.022 6.34.597-.121-.516.839-1.303 2.134-1.744 1.887-.643 2.688-.505 4.098.673.965.806 1.76 1.938 1.76 2.515 0 .578 1.257 1.383 2.801 1.794 4.485 1.194 4.726.976 1.595-1.494-1.62-1.28-3.037-3.156-3.158-4.16-.12-1.003-.26-2.041-.298-2.316-.178-1.237-9.891-6.592-15.196-8.368l-5.857-1.943-2.02 1.743c-1.938 1.681-2.09 1.692-3.697.349-.928-.771-1.474-1.902-1.214-2.516.471-1.14-.082-1.425-4.351-2.29-.572-.117-1.004-.143-1.321-.126zm-68.9.822a1.13 1.13 0 0 0-.378.125.845.845 0 0 0-.297 1.22c.278.416.872.532 1.323.275a.845.845 0 0 0 .296-1.221c-.208-.311-.574-.451-.944-.399zm77.73 0a1.144 1.144 0 0 0-.375.125.845.845 0 0 0-.299 1.22c.28.416.877.532 1.322.275a.844.844 0 0 0 .298-1.221c-.209-.311-.572-.451-.946-.399zm13.823 0a1.131 1.131 0 0 0-.381.125.849.849 0 0 0-.299 1.22c.28.416.877.532 1.328.275a.847.847 0 0 0 .292-1.221.951.951 0 0 0-.94-.399zm16.409 0a1.131 1.131 0 0 0-.381.125.843.843 0 0 0-.293 1.22c.274.416.871.532 1.322.275a.844.844 0 0 0 .292-1.221c-.203-.311-.572-.451-.94-.399zm-42.321.051c-.799.024-1.349 1.085-.675 2.092.417.624.834.624 1.513 0 .674-.624.674-1.12 0-1.744-.286-.264-.571-.357-.838-.348zm-264.282.747c-.123.017-.265.06-.378.124a.847.847 0 0 0-.297 1.221c.278.415.873.53 1.323.274a.846.846 0 0 0 .297-1.221c-.209-.311-.574-.451-.945-.398zm218.507 0c-.124.017-.266.06-.378.124a.846.846 0 0 0-.297 1.221c.278.415.872.53 1.322.274a.845.845 0 0 0 .297-1.221c-.209-.311-.574-.451-.944-.398zm81.178 0a1.12 1.12 0 0 0-.375.124.845.845 0 0 0-.299 1.221c.28.415.877.53 1.322.274a.844.844 0 0 0 .298-1.221c-.209-.311-.571-.451-.946-.398zm-46.635.796a1.13 1.13 0 0 0-.378.125.845.845 0 0 0-.297 1.22c.278.416.873.531 1.323.275a.846.846 0 0 0 .296-1.221c-.208-.312-.574-.451-.944-.399zm3.454 0a1.125 1.125 0 0 0-.377.125.845.845 0 0 0-.297 1.22c.278.416.872.531 1.322.275a.846.846 0 0 0 .297-1.221c-.209-.312-.574-.451-.945-.399zm-39.722 1.594a1.13 1.13 0 0 0-.378.125.845.845 0 0 0-.297 1.22c.278.416.873.531 1.323.275a.846.846 0 0 0 .297-1.221c-.209-.312-.575-.451-.945-.399zm94.998.1c-.73-.036-.826.9.273 2.441.966 1.364 1.709 1.731 2.319 1.171.61-.561.368-1.3-.705-2.391-.794-.816-1.449-1.199-1.887-1.221zm-111.384.449c-.196-.065-.131.236.162.946.325.786.814 1.242 1.08.996.265-.245-.004-.904-.594-1.444-.32-.293-.53-.46-.648-.498zm61.887 0c-.497.022-.992.093-1.43.249-.716.253-1.042.853-.729 1.32.695 1.037 5.155.647 5.155-.449 0-.728-1.505-1.188-2.996-1.12zm-5.776 1.045a1.137 1.137 0 0 0-.378.125.845.845 0 0 0-.296 1.22c.277.416.872.531 1.322.275a.846.846 0 0 0 .297-1.221c-.209-.312-.574-.451-.945-.399zm-149.41 1.594a1.123 1.123 0 0 0-.378.125.845.845 0 0 0-.297 1.22c.277.416.872.531 1.322.275a.846.846 0 0 0 .297-1.221c-.209-.312-.574-.451-.944-.399zm203.305.026c-.343.043-.839.282-1.455.796-.82.686-1.925 1.246-2.459 1.246-1.283 0-2.147 1.399-1.48 2.391.852 1.274 2.078.945 4.396-1.196 1.824-1.681 2.046-3.368.998-3.237zm-235.263 1.568a1.13 1.13 0 0 0-.378.125.845.845 0 0 0-.297 1.22c.278.416.873.531 1.322.275a.846.846 0 0 0 .298-1.221c-.209-.311-.575-.451-.945-.399zm195.184.798c-.121.017-.26.06-.375.124a.843.843 0 0 0-.298 1.22c.279.416.87.531 1.321.274a.844.844 0 0 0 .299-1.22c-.21-.311-.572-.451-.947-.398zm31.96 0c-.127.017-.267.06-.381.124a.849.849 0 0 0-.299 1.22c.28.416.877.531 1.322.274a.843.843 0 0 0 .298-1.22.949.949 0 0 0-.94-.398zm-50.095.797c-.124.017-.265.06-.378.124a.845.845 0 0 0-.296 1.221c.277.415.872.53 1.322.274a.847.847 0 0 0 .296-1.221c-.208-.311-.573-.451-.944-.398zm21.591 0c-.121.017-.267.06-.375.124a.845.845 0 0 0-.299 1.221c.28.415.871.53 1.322.274a.844.844 0 0 0 .298-1.221.958.958 0 0 0-.946-.398zm43.185 0c-.127.017-.267.06-.381.124a.847.847 0 0 0-.292 1.221c.273.415.87.53 1.321.274a.849.849 0 0 0 .298-1.221.958.958 0 0 0-.946-.398zm-214.185.797c-.124.017-.266.06-.378.124a.845.845 0 0 0-.297 1.22c.278.416.872.531 1.323.274a.845.845 0 0 0 .296-1.22c-.208-.311-.574-.451-.944-.398zm-28.501.797c-.124.017-.266.06-.378.124a.846.846 0 0 0-.297 1.221c.278.415.872.53 1.322.274a.846.846 0 0 0 .297-1.221c-.209-.311-.574-.451-.944-.398zm246.142 0c-.127.017-.267.06-.381.124a.848.848 0 0 0-.293 1.221c.273.415.871.53 1.322.274a.85.85 0 0 0 .298-1.221.958.958 0 0 0-.946-.398zm-106.69.323c-.429.029-.684.147-.836.374-.739 1.098 2.396 2.626 6.72 3.263 6.809 1.002 8.403 1.304 8.826 1.693.656.606 1.869.476 1.862-.199-.013-1.303-5.69-4.111-7.449-3.686-.999.241-3.533-.097-5.614-.747-1.658-.518-2.794-.745-3.509-.698zm16.545.349c-.913.034-1.721.729-1.242 1.445.273.407.85.747 1.269.747 1.209 0 1.856-1.442.89-1.993a1.724 1.724 0 0 0-.917-.199zm3.778.124a1.137 1.137 0 0 0-.378.125.846.846 0 0 0-.297 1.22c.278.416.873.531 1.323.274a.845.845 0 0 0 .297-1.22c-.209-.312-.575-.451-.945-.399zm90.356.673c-.908.034-1.715.73-1.239 1.445.274.408.852.747 1.271.747 1.207 0 1.855-1.442.889-1.993-.286-.164-.616-.21-.921-.199zm-77.401.125c-.124.017-.265.06-.378.124a.846.846 0 0 0-.297 1.221c.278.415.873.53 1.323.273a.845.845 0 0 0 .296-1.22c-.208-.311-.574-.451-.944-.398zm12.091.796a1.123 1.123 0 0 0-.378.125.845.845 0 0 0-.297 1.22c.278.416.873.531 1.323.275a.847.847 0 0 0 .296-1.221c-.208-.312-.574-.451-.944-.399zm7.451.673c-.915.034-1.722.73-1.246 1.445.274.408.852.747 1.271.747 1.207 0 1.855-1.442.889-1.993-.285-.164-.61-.21-.914-.199zm54.734.125c-.127.017-.267.06-.381.124a.843.843 0 0 0-.293 1.221c.273.414.871.53 1.322.273a.842.842 0 0 0 .292-1.22c-.203-.311-.572-.45-.94-.398zm7.445.647a1.511 1.511 0 0 0-.807.2c-.724.413-.692.862.083 1.718.718.804 1.315.9 1.944.323.933-.864-.064-2.2-1.22-2.241zm-253.589.149a1.13 1.13 0 0 0-.378.125.845.845 0 0 0-.297 1.22c.278.416.873.531 1.323.275a.846.846 0 0 0 .296-1.221c-.208-.312-.574-.451-.944-.399zm187.415 0a1.13 1.13 0 0 0-.378.125.845.845 0 0 0-.297 1.22c.278.416.873.531 1.322.275a.847.847 0 0 0 .298-1.221c-.209-.312-.575-.451-.945-.399zm-5.56.524c-2.186.279-7.263 4.205-6.477 5.38.387.577 1.517.346 3.481-.723 4.048-2.204 5.124-3.491 3.752-4.533-.168-.127-.444-.164-.756-.124zm-23.805.274c-.123.017-.265.06-.378.124a.846.846 0 0 0-.297 1.221c.279.414.873.53 1.323.273a.845.845 0 0 0 .297-1.22c-.209-.311-.575-.451-.945-.398zm17.273 0a1.1 1.1 0 0 0-.377.124.846.846 0 0 0-.298 1.221c.278.414.873.53 1.323.273a.845.845 0 0 0 .297-1.22c-.209-.311-.574-.451-.945-.398zm-6.073.597c-.392-.002-.787.067-1.106.25-.505.288-.705.862-.432 1.269.659.985 2.753.958 3.428-.049.492-.734-.712-1.463-1.89-1.47zm-7.097.199c-.415.026-.827.12-1.161.274-.364.169-.476.598-.243.947.622.929 4.422.591 3.914-.349-.276-.509-1.175-.837-2.106-.872a4.187 4.187 0 0 0-.404 0zm89.174.798c-.12.017-.266.06-.374.124a.845.845 0 0 0-.299 1.221c.279.414.87.53 1.321.273a.844.844 0 0 0 .299-1.22.96.96 0 0 0-.947-.398zm-84.636 1.594c-.123.017-.266.06-.378.124a.845.845 0 0 0-.297 1.22c.279.415.873.531 1.323.274a.845.845 0 0 0 .297-1.22c-.209-.311-.575-.451-.945-.398zm5.182.796a1.137 1.137 0 0 0-.378.125.845.845 0 0 0-.297 1.22c.278.416.873.531 1.323.275a.845.845 0 0 0 .296-1.221c-.208-.312-.574-.451-.944-.399zm83.774 0a1.131 1.131 0 0 0-.381.125.849.849 0 0 0-.299 1.22c.28.416.877.531 1.328.275a.847.847 0 0 0 .292-1.221c-.209-.312-.571-.451-.94-.399zm-19 1.594a1.136 1.136 0 0 0-.382.125.848.848 0 0 0-.298 1.22c.279.416.876.531 1.327.275a.848.848 0 0 0 .293-1.221.95.95 0 0 0-.94-.399zm15.544.797a1.138 1.138 0 0 0-.381.125.842.842 0 0 0-.292 1.22c.273.415.87.531 1.321.274a.843.843 0 0 0 .293-1.22c-.204-.311-.572-.451-.941-.399zm-58.596.673c-.248.038-.273.189-.083.473.318.466-.419 1.442-1.613 2.167-1.201.725-1.989 1.602-1.76 1.943.229.34-.178 1.072-.889 1.618-.937.719-1.04 1.256-.377 1.993.504.561.624 1.204.243 1.42-1.371.78-6.653-.07-7.125-1.146-.676-1.541-2.646-1.742-2.646-.274 0 .667-.928 1.608-2.078 2.092-1.184.498-1.922 1.318-1.673 1.918.242.582.163 1.491-.189 2.017-.463.691-.967.563-1.808-.498-1.123-1.418-1.17-1.418-1.269.075-.056.851-.042 1.974.028 2.491.132.985-5.099 5.03-6.505 5.03-.849 0-4.808 1.839-9.608 4.458-3.158 1.724-3.716 4.442-1.404 6.8.851.867 1.174 1.999.81 2.864-.565 1.345-.67 1.336-1.835-.125-.713-.894-1.242-1.115-1.242-.523 0 .565.81 2.093 1.809 3.387 2.016 2.614 4.599 12.67 3.994 15.592-.3 1.447.187 2.147 2.105 3.063 2.326 1.11 2.685 1.065 5.695-.822 1.793-1.124 4.442-2.017 5.992-2.017 1.765 0 3.62-.726 5.1-1.993 1.282-1.096 3.332-1.992 4.535-1.992 1.203 0 3.372-.387 4.831-.847 3.989-1.259 10.704 1.23 12.52 4.632.756 1.407 1.569 2.555 1.836 2.566.273.009 1.176-1.291 2.001-2.89 1.106-2.143 1.741-2.675 2.453-2.017.717.658.724 1.451-.026 2.964-1.328 2.688-1.296 3.154.191 2.017.889-.68 1.372-.673 1.804-.025.33.489.381 1.094.108 1.345-.267.251.476 1.502 1.652 2.79 1.175 1.287 2.128 2.85 2.128 3.461 0 1.738 5.317 2.765 7.07 1.371 1.271-1.009 1.633-.953 3.024.448 2.039 2.05 1.893 2.059 3.862-.249.985-1.16 2.421-1.901 3.481-1.794 1.233.125 1.875-.327 2.021-1.419.279-2.011 1.88-6.241 3.919-10.36 2.033-4.114 4.193-20.513 2.643-20.1-.82.218-5.292-2.71-5.292-3.462 0-.365-.953-1.615-2.128-2.789-1.182-1.174-1.963-2.438-1.728-2.789.235-.352-.362-.864-1.328-1.146-2.369-.695-5.177-6.015-5.177-9.813 0-2.054-.559-3.553-1.677-4.483-.921-.771-1.944-2.531-2.268-3.91-.318-1.379-.781-2.848-1.048-3.263-.654-1.01-2.624 4.127-2.725 7.123-.089 2.411-2.992 9.166-3.945 9.166-.28 0-2.637-1.451-5.26-3.239-4.454-3.037-4.752-3.415-4.212-5.777.318-1.391.927-2.871 1.353-3.288 1.023-1.003.997-3.052-.032-2.466a.986.986 0 0 1-1.296-.298c-.279-.418-1.2-.72-2.02-.673-.826.047-2.407-.207-3.538-.548-.686-.208-1.156-.287-1.404-.249zm-188.414.921a1.123 1.123 0 0 0-.378.125.845.845 0 0 0-.297 1.22c.278.415.872.531 1.322.274a.845.845 0 0 0 .298-1.22c-.209-.312-.575-.451-.945-.399zm2.591 1.594a1.13 1.13 0 0 0-.378.125.845.845 0 0 0-.297 1.22c.278.416.873.531 1.322.274a.845.845 0 0 0 .297-1.22c-.208-.312-.574-.451-.944-.399zm10.525.747c-.268.041-.458.373-.458.897 0 2.158-2.644 5.154-5.776 6.526-3.461 1.515-4.854 4.172-4.103 7.87.364 1.788.091 3.237-.917 4.657-1.499 2.111-1.377 4.128.567 8.667.789 1.842 1.293 2.102 3.211 1.669 1.251-.282 2.557-.914 2.915-1.395.79-1.06 1.748-4.404 3.671-12.826.8-3.507 1.792-6.964 2.185-7.672.838-1.503.093-7.721-.998-8.343a.456.456 0 0 0-.297-.05zm-7.935 1.645c-.123.017-.265.06-.378.124a.846.846 0 0 0-.297 1.221c.279.414.873.53 1.323.273a.845.845 0 0 0 .297-1.22c-.209-.311-.575-.451-.945-.398zm193.461 0c-.121.017-.267.06-.375.124a.845.845 0 0 0-.299 1.221c.28.414.871.53 1.322.273a.843.843 0 0 0 .298-1.22.96.96 0 0 0-.946-.398zm-174.461 6.375a1.13 1.13 0 0 0-.378.125.845.845 0 0 0-.297 1.22c.278.415.873.531 1.322.274a.846.846 0 0 0 .298-1.22c-.209-.312-.575-.451-.945-.399zm6.047 10.361c-.123.018-.265.06-.378.124a.845.845 0 0 0-.296 1.221c.277.415.872.531 1.322.274a.845.845 0 0 0 .297-1.22c-.209-.312-.574-.451-.945-.399zm-3.456.797c-.123.017-.265.06-.378.125a.845.845 0 0 0-.297 1.22c.278.416.873.53 1.323.274a.846.846 0 0 0 .296-1.221c-.208-.311-.574-.45-.944-.398zm-285.868 31.083c-.124.017-.265.06-.378.124a.846.846 0 0 0-.297 1.22c.278.415.873.531 1.323.274a.845.845 0 0 0 .297-1.22c-.209-.311-.574-.451-.945-.398zm532.959 3.137c-.051-.003-.102-.004-.134.026-.235.219.331 1.409 1.271 2.639 2.655 3.479 3.113 5.664 1.613 7.771-1.226 1.733-1.181 1.914.382 2.291.997.241 1.67 1.082 1.67 2.067 0 2.574 1.608 1.975 2.459-.922.419-1.424 1.213-2.5 1.753-2.39.546.109.972-.121.972-.523 0-.403.273-1.373.597-2.142.458-1.1.254-1.271-.946-.847-1.093.387-1.671.06-2.001-1.096-.356-1.261-.693-1.403-1.614-.697-.915.7-1.334.578-1.785-.573-.8-2.051-3.488-5.554-4.237-5.604zm-76.079 1.644a1.131 1.131 0 0 0-.381.125.849.849 0 0 0-.299 1.22c.28.415.877.531 1.328.274a.846.846 0 0 0 .292-1.22.95.95 0 0 0-.94-.399zm23.314 10.361c-.121.017-.26.06-.375.124a.844.844 0 0 0-.298 1.221c.279.415.87.53 1.321.273a.844.844 0 0 0 .299-1.22c-.21-.311-.572-.45-.947-.398zm-7.769.797c-.127.017-.267.06-.381.125a.847.847 0 0 0-.293 1.22c.274.415.871.53 1.322.274a.844.844 0 0 0 .292-1.221c-.203-.311-.572-.451-.94-.398zm3.074 3.138c-1.34.044-1.295.4-.781 1.594.407.943.928 2.346 1.188 3.113.489 1.439 4.358 1.546 4.504.125.044-.395.381-1.357.756-2.142.921-1.926.152-2.451-3.831-2.64-.781-.038-1.391-.065-1.836-.05zm57.949.199c-1.372.126-3.456 1.996-3.456 3.313 0 .481-1.016 1.633-2.268 2.54-3.71 2.691-9.313 10.096-6.371 8.418.476-.269 1.543-.125 2.375.324 2.046 1.098 3.272 1.068 4.346-.125.933-1.04 1.054-1.381 1.054-3.412 0-.678.991-2.159 2.185-3.263 1.195-1.104 1.951-2.326 1.678-2.739-.28-.414.089-.983.832-1.245 1.683-.596 1.772-3.156.133-3.736-.076-.028-.152-.067-.241-.075a1.4 1.4 0 0 0-.267 0zm-523.944 2.291c-.799.024-1.348 1.086-.675 2.092.418.625.836.625 1.512 0 .676-.624.676-1.119 0-1.743-.287-.264-.57-.357-.837-.349zm513.881 14.296c-.127.018-.266.06-.381.125a.848.848 0 0 0-.298 1.22c.279.416.876.531 1.327.274a.847.847 0 0 0 .293-1.22c-.204-.312-.572-.451-.941-.399zm-515.605.797a1.123 1.123 0 0 0-.378.125.845.845 0 0 0-.297 1.22c.278.415.872.531 1.323.274a.845.845 0 0 0 .296-1.22c-.208-.312-.574-.451-.944-.399zm0 3.985a1.1 1.1 0 0 0-.378.125.845.845 0 0 0-.297 1.22c.278.415.872.531 1.323.274a.845.845 0 0 0 .296-1.22c-.208-.311-.574-.451-.944-.399zm510.422 2.391a1.079 1.079 0 0 0-.375.125.844.844 0 0 0-.299 1.22c.28.416.871.531 1.322.274a.843.843 0 0 0 .298-1.22c-.209-.312-.578-.451-.946-.399zm-510.422 1.594a1.1 1.1 0 0 0-.378.125.845.845 0 0 0-.297 1.22c.278.415.872.531 1.323.274a.845.845 0 0 0 .296-1.22c-.208-.312-.574-.451-.944-.399zm35.41 1.594c-.123.017-.266.06-.378.125-.45.256-.604.768-.351 1.145.253.378.059.916-.432 1.196-.49.279-.656.855-.378 1.27.278.415.873.531 1.323.274.45-.257.604-.768.35-1.146-.252-.377-.058-.915.432-1.195.491-.28.657-.855.378-1.271-.208-.311-.574-.45-.944-.398zm-3.806.647c-.989.066-1.921 1.218-1.268 2.192.448.669.934.661 1.862-.049.871-.667.976-1.217.351-1.794a1.243 1.243 0 0 0-.945-.349zm-28.608 3.263c-.275.002-.535.049-.756.174-.794.453-.652.897.567 1.719.903.61 1.549 1.269 1.43 1.469a1.93 1.93 0 0 0-.216.822c0 .246.42.21.918-.075.619-.352.583-.874-.108-1.643-.557-.618-.687-1.121-.297-1.121.391 0 .259-.409-.27-.896-.33-.305-.81-.451-1.268-.449zm9.689 1.495c-.432.096-.54.794-.513 2.042.041 1.825-.283 2.158-1.943 1.992-1.15-.114-1.765.139-1.458.598.294.438 1.655.797 3.024.797s2.701.323 2.968.722c.536.801 2.108.737 3.644-.149.661-.382-.013-1.506-2.025-3.362-1.823-1.682-2.88-2.555-3.481-2.64a.626.626 0 0 0-.216 0zm9.77 4.159c-.123.018-.265.06-.377.124a.846.846 0 0 0-.298 1.221c.279.415.873.53 1.323.274a.846.846 0 0 0 .297-1.221c-.209-.311-.575-.45-.945-.398zm-9.824 3.063c-.912.034-1.72.73-1.241 1.445.273.408.849.747 1.269.747 1.209 0 1.856-1.441.89-1.992a1.717 1.717 0 0 0-.918-.2z" fill="url(#a)" fill-opacity=".4"/><path fill-rule="evenodd" clip-rule="evenodd" d="M513.434 109.778a8.334 8.334 0 0 1 11.786 11.786l-5.893 5.893-5.893-5.893a8.34 8.34 0 0 1-2.441-5.893 8.331 8.331 0 0 1 2.441-5.893zm5.893 8.274c.631 0 1.237-.251 1.683-.698a2.378 2.378 0 0 0 0-3.367 2.38 2.38 0 1 0-3.367 3.367 2.38 2.38 0 0 0 1.684.698z" fill="#8D64EC"/><path fill-rule="evenodd" clip-rule="evenodd" d="M625.489 135.031a8.33 8.33 0 0 1 11.786 0 8.334 8.334 0 0 1 0 11.786l-5.893 5.893-5.893-5.893a8.34 8.34 0 0 1-2.442-5.893 8.332 8.332 0 0 1 2.442-5.893zm5.893 8.274c.631 0 1.237-.251 1.683-.698a2.378 2.378 0 0 0 0-3.367 2.378 2.378 0 0 0-4.064 1.684 2.379 2.379 0 0 0 2.381 2.381z" fill="#3F14A5"/><defs><linearGradient id="a" x1="80.098" y1="61.948" x2="674.718" y2="366.163" gradientUnits="userSpaceOnUse"><stop stop-color="#C3B5EE"/><stop offset="1" stop-color="#8ED9F4"/></linearGradient></defs></svg>