<svg width="61" height="60" fill="none" xmlns="http://www.w3.org/2000/svg"><g clip-path="url(#a)"><path d="m26.656.164-1.09.13-.902 1.98c-.75 1.64-.95 2.004-1.195 2.074-.164.047-.903.281-1.64.515l-1.36.434-1.887-1.066-1.875-1.078-1.16.668c-2.168 1.253-4.043 2.625-5.777 4.23l-.762.691.445 2.121.434 2.11-1.008 1.394a113.23 113.23 0 0 1-1.043 1.418c-.012.012-.973.141-2.121.27-1.16.14-2.145.293-2.203.34-.2.199-1.383 3.105-1.828 4.5-.387 1.218-1.067 4.02-1.067 4.394 0 .047.715.738 1.582 1.535l1.582 1.442V31.735L2.2 33.176c-.867.797-1.582 1.488-1.582 1.535 0 .375.68 3.176 1.067 4.395.445 1.394 1.629 4.3 1.828 4.5.058.047 1.043.199 2.203.34 1.148.128 2.11.257 2.12.269.013.012.481.645 1.032 1.418l1.02 1.395-.434 2.109-.445 2.11.762.702c1.734 1.606 3.609 2.977 5.777 4.23l1.16.669 1.887-1.078 1.886-1.078 1.348.445c.738.234 1.477.469 1.64.516.235.07.446.433 1.196 2.074l.902 1.98 1.149.14c1.629.188 5.672.177 7.36-.023.773-.093 1.44-.175 1.5-.175.046 0 .081-3.082.081-6.856v-6.855h-2.425c-2.66-.012-4.899-.14-5.86-.352l-.621-.14V44.18c0-1.477-.223-2.895-.656-4.113-.164-.48-.328-.961-.364-1.078-.058-.188.176-.2 3.704-.2h3.761l1.758 2.637 1.758 2.637h5.25l.328.668c.445.925 1.441 1.898 2.45 2.39.796.387.855.399 2.284.399 1.43 0 1.489-.012 2.286-.399 4.02-1.968 4.02-7.664 0-9.633-.797-.386-.856-.398-2.286-.398-1.43 0-1.488.012-2.285.398-1.008.493-2.004 1.465-2.449 2.391l-.328.668h-3.199l-1.746-2.637-1.746-2.636H23.245l-.223-.328c-.503-.704-1.312-2.579-1.312-3.036 0-.129 2.379-.152 14.156-.14h14.145l.316.668c.434.925 1.36 1.816 2.426 2.343.867.422.902.434 2.297.434 1.394 0 1.43-.012 2.297-.434 1.465-.726 2.46-1.921 2.859-3.433.645-2.485-.516-4.969-2.86-6.13-.796-.386-.972-.433-2.05-.468-.984-.035-1.313 0-1.934.211-1.324.445-2.472 1.43-3.035 2.602l-.316.668H35.867c-11.777.011-14.156-.012-14.156-.141 0-.457.809-2.332 1.312-3.047l.223-.316H35.27l1.746-2.637 1.746-2.637h3.199l.328.668c.445.926 1.441 1.899 2.45 2.39.796.388.855.4 2.284.4 1.43 0 1.489-.012 2.286-.4 4.02-1.968 4.02-7.663 0-9.632-.797-.387-.856-.398-2.286-.398-1.43 0-1.488.011-2.285.398-1.008.492-2.004 1.465-2.449 2.379l-.328.68h-5.25l-1.758 2.636-1.758 2.637h-3.761c-3.528 0-3.762-.012-3.704-.21l.364-1.067c.433-1.219.656-2.637.656-4.114v-1.265l.54-.129c.831-.211 3.233-.352 5.94-.363h2.426V7.207c0-3.773-.035-6.855-.082-6.855-.058 0-.726-.082-1.5-.176-1.664-.2-5.812-.211-7.418-.012zm4.559 3.469h.808v6.879l-2.308.07c-2.473.07-3.633.258-5.719.961-6.621 2.215-11.672 8.133-12.89 15.117-1.137 6.54 1.136 13.172 6.093 17.766 2.73 2.52 6.293 4.23 10.137 4.852.645.093 1.863.175 2.906.175h1.781v6.891l-.937.047c-.527.023-1.406.023-1.98 0l-1.044-.035-.855-1.887-.867-1.875-1.582-.398a30.633 30.633 0 0 1-3.035-.985l-1.453-.586-1.793.996-1.793 1.008-1.032-.691c-1.324-.89-2.613-1.91-2.613-2.075 0-.07.176-.984.399-2.039l.41-1.921-.68-.774a22.915 22.915 0 0 1-2.402-3.258c-.762-1.23-.399-1.066-3.164-1.383-.832-.093-1.559-.21-1.594-.257-.153-.176-.809-2.028-1.113-3.141l-.305-1.113.738-.68c.399-.363 1.09-.984 1.512-1.371l.785-.703-.082-.645c-.094-.832-.094-4.324 0-5.156l.082-.645-.785-.703c-.422-.386-1.113-1.007-1.512-1.37l-.738-.68.305-1.114c.304-1.113.96-2.965 1.113-3.14.035-.047.762-.164 1.594-.258 2.765-.317 2.402-.152 3.164-1.383a22.915 22.915 0 0 1 2.402-3.258l.68-.773-.41-1.922c-.223-1.055-.399-1.969-.399-2.04 0-.163 1.29-1.183 2.613-2.073l1.032-.692 1.793 1.008 1.793.996 1.453-.586a30.62 30.62 0 0 1 3.035-.984l1.582-.399.867-1.886.867-1.875 1.008-.035c.55-.024 1.078-.024 1.16-.012.094.023.527.035.973.035zm-8.133 13.09c-.164 1.863-.797 3.293-2.25 5.144-1.219 1.535-2.145 3.34-2.602 5.028-.27 1.043-.304 1.383-.304 3.105 0 1.723.035 2.063.305 3.106.456 1.687 1.382 3.492 2.601 5.027 1.066 1.348 1.688 2.484 1.992 3.645.235.878.363 2.285.211 2.285-.058 0-.492-.235-.973-.528a16.253 16.253 0 0 1-6.796-8.59c-.598-1.816-.762-2.824-.762-4.945 0-2.12.164-3.129.762-4.945a16.254 16.254 0 0 1 6.796-8.59c.481-.293.915-.527.973-.527.07 0 .082.328.047.785zm24.809-.445c.504.34.773.82.773 1.418 0 .597-.27 1.078-.773 1.417-.715.47-1.782.211-2.285-.55-.47-.715-.212-1.782.55-2.285.211-.13.551-.223.867-.223.317 0 .657.094.868.223zm8.156 12.41c.902.656.879 2.062-.047 2.66-.48.316-.938.398-1.406.234-1.617-.562-1.617-2.601 0-3.164.492-.164.972-.082 1.453.27zM47.89 40.887c.504.34.773.82.773 1.418 0 .937-.703 1.64-1.64 1.64-.938 0-1.641-.703-1.641-1.64 0-.938.703-1.64 1.64-1.64.317 0 .657.093.868.222z" fill="url(#b)"/><path d="M39.055 7.324v1.817h3.632V5.508h-3.632v1.816z" fill="url(#c)"/><path d="M39.055 52.676v1.816h3.632V50.86h-3.632v1.817z" fill="url(#d)"/></g><defs><linearGradient id="b" x1="-5.297" y1="53.437" x2="74.826" y2="37.8" gradientUnits="userSpaceOnUse"><stop stop-color="#3F14A5"/><stop offset="1" stop-color="#5FC2EE"/></linearGradient><linearGradient id="c" x1="38.695" y1="8.744" x2="43.564" y2="7.791" gradientUnits="userSpaceOnUse"><stop stop-color="#3F14A5"/><stop offset="1" stop-color="#5FC2EE"/></linearGradient><linearGradient id="d" x1="38.695" y1="54.096" x2="43.564" y2="53.142" gradientUnits="userSpaceOnUse"><stop stop-color="#3F14A5"/><stop offset="1" stop-color="#5FC2EE"/></linearGradient><clipPath id="a"><path fill="#fff" transform="translate(.5)" d="M0 0h60v60H0z"/></clipPath></defs></svg>