<svg width="182" height="42" fill="none" xmlns="http://www.w3.org/2000/svg"><mask id="a" style="mask-type:luminance" maskUnits="userSpaceOnUse" x="0" y="0" width="182" height="42"><path d="M182 0H0v42h182V0z" fill="#fff"/></mask><g mask="url(#a)" fill="#fff"><path d="M49.774 28.274h5.398v-7.346h9.165v-3.476h-9.165v-3.835h10.18v-3.512H49.774v18.17zM73.54 10.105h-5.398v18.17h5.397v-18.17zM91.072 20.785h-.18l-9.238-10.68h-4.637v18.17h5.361V17.63h.181l9.31 10.643h4.601V10.105h-5.398v10.68zM105.346 20.928h9.672v-3.476h-9.672v-3.835h10.469v-3.512H99.948v18.17h15.903v-3.477h-10.505v-3.87zM133.348 20.785h-.181l-9.237-10.68h-4.637v18.17h5.397V17.63h.145l9.31 10.643h4.601V10.105h-5.398v10.68zM147.621 20.928h9.673v-3.476h-9.673v-3.835h10.506v-3.512h-15.903v18.17h15.939v-3.477h-10.542v-3.87zM174.863 19.208l6.92-9.102h-6.05l-4.311 5.84h-.181l-4.275-5.84h-6.122l6.955 9.102-7.1 9.066h6.159l4.383-5.877h.181l4.383 5.877H182l-7.137-9.066zM42.53 17.99 28.292 3.87l-1.015-1.003-1.594-1.577-1.05-1.04L24.38 0l-6.52.717L1.195 17.2l-.905.896L0 23.94h.036l17.896 17.703 6.557.358 16.845-16.664.688-.68.145-.144.036-.036-.036-.036.362-6.414v-.036zM24.741 2.186l1.594 1.577-2.535 2.508-.906.896-1.884 1.864-.905.896L9.6 20.355l-1.63-1.577L24.742 2.186zm-3.55 8.708L31.77 21.358 21.192 31.823 10.614 21.358l10.578-10.464zm-2.644-8.851 4.818-.538L6.956 17.74l-.87.86v.036l14.2 14.048-1.702 1.72L2.21 18.205 18.548 2.043zM1.413 23.58l.217-4.157L17.678 35.3l-2.21 2.186L1.414 23.58zm15.07 14.908 2.21-2.186.905-.896 1.703-1.684.906-.896 10.578-10.464 1.594 1.577-16.266 16.126-1.63-1.577zm7.426 2.043-4.02-.215 15.504-15.338.906-.896-1.015-1.004-1.63-1.576-1.014-1.004-10.578-10.464 1.883-1.863 16.338 16.162L23.91 40.53zm16.918-17.453L24.85 7.275l2.536-2.509L41.08 18.312l-.253 4.766z"/></g></svg>