<svg width="60" height="60" fill="none" xmlns="http://www.w3.org/2000/svg"><g clip-path="url(#a)" fill="#fff"><path d="M5.215 2.8.059 5.474l-.024 6.375L0 18.223l4.371 2.004 4.36 1.992.035 7.558.023 7.547-4.36 2.25-4.37 2.25v12.703l5.203 2.684c2.86 1.465 5.25 2.672 5.332 2.672.07 0 2.472-1.207 5.344-2.684l5.214-2.683.035-2.239.024-2.238H38.79l.023 2.238.035 2.239 5.215 2.683c2.87 1.477 5.273 2.684 5.355 2.684.07 0 2.473-1.207 5.332-2.672l5.191-2.684V41.824l-4.359-2.25-4.371-2.25V22.676l4.371-2.25 4.36-2.25V5.473L54.75 2.789C51.89 1.324 49.488.117 49.418.117c-.082 0-2.484 1.207-5.355 2.684l-5.215 2.683-.035 2.121-.024 2.122H21.21l-.023-2.122-.035-2.12L15.937 2.8c-2.87-1.477-5.296-2.672-5.39-2.672-.094 0-2.496 1.207-5.332 2.672zm7.77 2.614 2.308 1.195-2.332 1.137c-1.793.879-2.39 1.113-2.578 1.043-.14-.047-1.195-.562-2.367-1.137L5.906 6.61l2.285-1.195c1.266-.656 2.344-1.195 2.391-1.195.059 0 1.137.539 2.402 1.195zm38.824 0 2.308 1.195-2.344 1.149-2.343 1.148-2.356-1.148-2.367-1.149 2.285-1.183c1.254-.656 2.332-1.196 2.39-1.196.06-.011 1.15.528 2.427 1.184zM8.004 11.73l.785.387v3.024c0 1.664-.023 3.023-.047 3.023-.023 0-1.172-.516-2.555-1.148l-2.496-1.16-.035-3.118-.023-3.117 1.781.856c.984.468 2.145 1.03 2.59 1.253zm9.574.774v2.906L15 16.734l-2.578 1.325.023-2.989.035-2.988L15 10.84c1.383-.668 2.531-1.23 2.555-1.23.011 0 .023 1.3.023 2.894zm28.043-1.371 1.957.973V18.526L45 17.203l-2.578-1.324V9.61l.621.28c.328.153 1.488.715 2.578 1.243zm10.746 1.617v3.14l-2.578 1.325-2.578 1.324v-6.433l2.555-1.243c1.394-.68 2.554-1.242 2.578-1.242.011-.012.023 1.406.023 3.129zm-17.578 3v2.39l4.395 2.25 4.394 2.25v14.72l-4.394 2.25-4.395 2.25v4.546H21.21V41.86l-4.394-2.261-4.394-2.25V22.172l4.394-2.25 4.395-2.25V13.359H38.79v2.391zM12.703 41.613c1.16.598 2.215 1.137 2.332 1.23.2.13-.047.27-2.098 1.278l-2.332 1.125-2.367-1.137-2.379-1.136 2.32-1.207c1.266-.657 2.333-1.207 2.356-1.207.024-.012.996.468 2.168 1.054zm39.094.14 2.344 1.22-2.368 1.136-2.379 1.137-2.32-1.125c-1.277-.633-2.297-1.16-2.273-1.195.047-.047 4.558-2.367 4.617-2.38.012 0 1.078.552 2.379 1.208zM8.789 51.657c0 1.77-.047 3.188-.094 3.164-.058-.023-1.218-.61-2.578-1.3l-2.484-1.266V45.96l2.578 1.242 2.578 1.254v3.2zm8.79-2.578v3.152L15 53.544l-2.578 1.313v-6.411l2.555-1.242c1.394-.691 2.554-1.254 2.578-1.254.011-.011.023 1.407.023 3.13zm29.741-.762.258.118V54.856L45 53.542l-2.578-1.324v-6.27l2.32 1.114c1.266.62 2.426 1.183 2.578 1.253zm9.047.774v3.152l-2.531 1.301c-1.395.715-2.555 1.3-2.578 1.3-.024 0-.047-1.44-.047-3.199v-3.187l2.555-1.254c1.394-.68 2.554-1.254 2.578-1.254.011-.011.023 1.407.023 3.14z"/><path d="m24.648 21.586-5.308 3.527v9.54l5.332 3.55 5.332 3.55 5.332-3.55 5.332-3.55v-9.54l-5.309-3.527c-2.918-1.945-5.32-3.54-5.355-3.54-.035 0-2.45 1.595-5.356 3.54zm8.93 3.223 3.457 2.296v5.555l-3.457 2.297c-1.898 1.277-3.504 2.309-3.574 2.309-.07 0-1.676-1.032-3.574-2.309l-3.457-2.297v-5.554l3.433-2.297c1.875-1.254 3.492-2.297 3.575-2.297.07-.012 1.699 1.02 3.597 2.297z"/></g><defs><clipPath id="a"><path fill="#fff" d="M0 0h60v60H0z"/></clipPath></defs></svg>