<svg width="60" height="60" fill="none" xmlns="http://www.w3.org/2000/svg"><path d="M4.406 1.3c-1.031.153-2.074.692-2.87 1.49C.445 3.878 0 4.944 0 6.503c0 1.5.398 2.508 1.406 3.621 1.653 1.793 4.547 2.156 6.68.82.586-.363 1.559-1.453 1.863-2.086l.246-.539h5.227l2.836 4.957 2.848 4.957-.2.457c-.597 1.43-.75 2.743-.75 6.645v2.906H6.211v3.633h9.609v13.36h3.387l-1.875 3.28-1.887 3.282h-5.191l-.328-.68c-1.219-2.554-4.442-3.597-7.078-2.308C1.055 49.688 0 51.422 0 53.496c0 1.559.445 2.625 1.535 3.715 1.723 1.734 4.465 2.039 6.55.738.587-.375 1.477-1.36 1.782-1.98l.258-.54 3.75-.023 3.762-.035 2.87-5.062 2.872-5.063 2.437-.012h2.426v8.672h3.516v-8.672h2.437l2.426.012 2.871 5.063 2.871 5.062 3.762.035 3.75.024.258.539c.304.62 1.195 1.605 1.781 1.98 2.965 1.852 6.902.375 7.922-2.976.21-.692.21-2.262 0-2.953-.902-2.954-4.148-4.547-7.008-3.434-1.125.445-2.32 1.547-2.8 2.602l-.282.609h-5.192l-1.886-3.281-1.875-3.282h3.387V31.875h9.609v-3.633H39.844v-2.8c0-3.446-.14-4.899-.586-6.223l-.34-.996 2.836-4.957 2.824-4.946h5.227l.246.54c.304.632 1.277 1.722 1.863 2.085 2.133 1.336 5.027.973 6.68-.82C59.602 9.012 60 8.004 60 6.504c0-1.559-.445-2.625-1.535-3.715-1.723-1.734-4.453-2.039-6.55-.726-.587.363-1.56 1.453-1.864 2.085l-.246.54h-7.36L39.48 9.844 36.527 15l-.304-.246a11.024 11.024 0 0 0-3.785-1.922l-.68-.187V6.21h-3.516v6.433l-.668.188c-1.347.375-2.414.89-3.504 1.711l-.61.445-2.952-5.156-2.953-5.144h-7.36l-.246-.54c-.304-.632-1.265-1.722-1.875-2.109-.984-.621-2.426-.902-3.668-.738zM6.34 5.345c.703.68.668 1.722-.082 2.379-1.02.902-2.625.164-2.625-1.22a1.594 1.594 0 0 1 2.707-1.16zM55.7 5.18c.89.633.89 2.015 0 2.648-.88.633-2.216.152-2.497-.902-.387-1.442 1.266-2.602 2.496-1.746zM31.44 16.348c1.5.386 2.965 1.465 3.82 2.812.786 1.23.868 1.723.926 5.649l.047 3.55H23.766l.047-3.55c.046-3.235.07-3.61.304-4.313 1.008-3.058 4.324-4.933 7.324-4.148zm-3.199 18.047v2.402h3.516v-4.805h8.789v9.61H19.453v-9.61h8.789v2.403zM6.34 52.336c.703.68.668 1.723-.082 2.379-1.02.902-2.625.164-2.625-1.219a1.594 1.594 0 0 1 2.707-1.16zm49.36-.164c.89.633.89 2.016 0 2.648-.88.633-2.216.153-2.497-.902-.387-1.441 1.266-2.602 2.496-1.746z" fill="#fff"/></svg>