<svg width="60" height="60" fill="none" xmlns="http://www.w3.org/2000/svg"><g clip-path="url(#a)" fill="#fff"><path d="M17.754.21c-1.266.446-2.543 1.5-3.094 2.58-.61 1.194-.598.995-.598 13.089 0 12.258-.011 11.953.657 13.195.761 1.383 2.39 2.473 4.031 2.684 1.172.152 35.508.152 36.656 0a5.406 5.406 0 0 0 4.137-2.988l.398-.82.036-11.837C60 4.56 60 4.266 59.766 3.598c-.48-1.43-1.407-2.473-2.801-3.164L56.19.059 37.266.035C19.546.012 18.305.023 17.754.211zm38.11 3.927.445.433.035 1.23.047 1.231H17.695V6c0-1.184.188-1.688.809-2.098l.398-.27 18.258.024 18.27.035.433.446zm.503 8.226v1.7H17.695v-3.399h38.672v1.7zm-.023 10.09-.035 4.746-.493.469-.492.457H18.902l-.398-.27c-.809-.539-.809-.55-.809-5.625v-4.535H56.38l-.035 4.758z"/><path d="M21.094 22.91v1.817h16.054v-3.633H21.094v1.816zM42.305 22.91v1.817h3.632v-3.633h-3.632v1.816zM49.336 22.91v1.817h3.633v-3.633h-3.633v1.816zM0 47.637V60h12.422v-3.516h.797c1.254 0 2.203.211 3.773.82 2.52.997 1.63.938 13.828.938 12.059 0 11.508.035 13.043-.797.446-.234 4.254-3.117 8.473-6.398L60 45.082v-1.066c0-1.852-.574-3.317-1.816-4.618-.82-.879-1.664-1.43-2.848-1.875-.691-.27-.961-.304-2.25-.304-1.29 0-1.559.035-2.25.304-.434.164-3.258 1.7-6.293 3.422-3.023 1.711-5.531 3.117-5.555 3.117-.023 0-.093-.328-.129-.726-.21-1.781-1.113-3.55-2.379-4.652-.68-.586-2.203-1.348-3.058-1.524-.399-.082-2.824-.129-6.89-.129-6.973 0-7.231.024-9.071.774-1.828.761-2.332.89-3.715.949l-1.324.07v-3.551H0v12.364zm8.79 0v8.73H3.632v-17.46h5.156v8.73zm24.55-6.657c.586.305 1.394 1.16 1.617 1.711.094.223.211.621.258.891l.082.48h-8.93v3.633h13.735l5.87-3.34c4.079-2.308 6.071-3.374 6.493-3.468 1.172-.27 2.625.328 3.34 1.36.691 1.019 1.254.444-6.375 6.386-3.762 2.93-7.114 5.472-7.465 5.648l-.633.328H30.879c-11.625 0-10.664.059-12.832-.843-1.512-.633-2.25-.785-4.067-.88l-1.558-.07V42.457l1.617-.07c1.781-.07 2.625-.27 4.242-.961 1.805-.774 1.547-.75 8.38-.727 6.116.024 6.222.024 6.679.282z"/></g><defs><clipPath id="a"><path fill="#fff" d="M0 0h60v60H0z"/></clipPath></defs></svg>