<svg width="60" height="60" fill="none" xmlns="http://www.w3.org/2000/svg"><path d="M10.676.223C9.27.75 8.25 1.676 7.582 3.035c-.363.75-.375.832-.375 2.238 0 1.43.012 1.489.398 2.286.493 1.007 1.465 2.003 2.391 2.449l.668.328.012 1.488v1.477l3.48 2.695 3.48 2.707.036 3.059.023 3.07-5.12.035-5.134.035-.82.399a5.63 5.63 0 0 0-2.531 2.531l-.399.82v27.54l.375.773c.68 1.383 1.711 2.308 3.141 2.8.668.235.973.235 23.168.235h22.477V49.453H56.367V35.391H52.852V24.844H42.305l.023-3.07.035-3.07 3.48-2.696 3.481-2.707v-1.477l.012-1.488.68-.328c.914-.445 1.886-1.442 2.379-2.45.386-.796.398-.855.398-2.285 0-1.43-.012-1.488-.398-2.285A5.63 5.63 0 0 0 49.862.457c-.797-.387-.855-.398-2.285-.398-1.43 0-1.488.011-2.285.398a5.63 5.63 0 0 0-2.531 2.531c-.387.797-.399.856-.399 2.285 0 1.43.012 1.489.399 2.286.492 1.007 1.465 2.003 2.39 2.449.657.328.668.34.668.844v.503l-3.515 2.73-3.516 2.731V24.844H31.758V10.336l.68-.328c.914-.445 1.886-1.442 2.378-2.45.387-.796.399-.855.399-2.285 0-1.43-.012-1.488-.399-2.285a5.63 5.63 0 0 0-2.53-2.531C31.487.07 31.43.059 30 .059c-1.43 0-1.488.011-2.285.398a5.63 5.63 0 0 0-2.531 2.531c-.387.797-.399.856-.399 2.285 0 1.43.012 1.489.399 2.286.492 1.007 1.464 2.003 2.39 2.449l.668.328v14.508H21.211V16.816l-3.516-2.73-3.515-2.742v-.504c0-.492.011-.504.68-.832.913-.445 1.886-1.442 2.378-2.45.387-.796.399-.855.399-2.285 0-1.43-.012-1.488-.399-2.285a5.549 5.549 0 0 0-2.531-2.52c-.762-.374-.926-.41-2.11-.433-1.054-.035-1.406 0-1.921.188zm2.613 3.632c.504.34.774.82.774 1.418 0 .938-.704 1.641-1.641 1.641-.938 0-1.64-.703-1.64-1.64 0-.938.702-1.641 1.64-1.641.316 0 .656.094.867.222zm17.578 0c.504.34.774.82.774 1.418s-.27 1.079-.774 1.418a1.79 1.79 0 0 1-.867.223c-.938 0-1.64-.703-1.64-1.64 0-.938.703-1.641 1.64-1.641.316 0 .656.094.867.222zm17.578 0c.504.34.774.82.774 1.418s-.27 1.079-.774 1.418c-.715.47-1.78.211-2.285-.55-.469-.715-.21-1.782.55-2.286.212-.128.552-.222.868-.222.316 0 .656.094.867.222zm-37.78 28.02v3.516H14.18v-7.032h35.156v7.02l-5.121.035-5.133.035-.82.399a5.63 5.63 0 0 0-2.532 2.53l-.398.821v6.446l.375.773c.68 1.383 1.711 2.309 3.14 2.8.645.223.985.235 5.59.235h4.899V56.484H14.18V49.453h-3.516v7.067l-1.09-.06c-1.254-.07-1.71-.257-2.11-.913l-.257-.41v-25.43l.258-.41c.445-.703.95-.902 2.355-.926l.844-.012v3.516zm42.187 10.547v3.527l-6.352-.035c-6.129-.035-6.375-.047-6.75-.27a2.408 2.408 0 0 1-.645-.644c-.246-.387-.257-.55-.257-2.578 0-2.027.011-2.191.258-2.578.28-.457.62-.703 1.148-.832.2-.047 3.105-.082 6.48-.094l6.118-.012v3.516z" fill="#fff"/><path d="M10.664 42.422v3.516h3.516v-7.032h-3.516v3.516z" fill="#fff"/></svg>