<svg width="60" height="60" fill="none" xmlns="http://www.w3.org/2000/svg"><path fill-rule="evenodd" clip-rule="evenodd" d="M6.27.172C3.514.773 1.295 2.757.42 5.402c-.652 1.974-.506 4.026.423 5.965.389.81.666 1.184 1.487 2.003 1.724 1.719 3.54 2.42 5.973 2.302 1.307-.062 2.071-.266 3.276-.873l.622-.313 3.703 3.703 3.703 3.703-.588.92c-.324.505-.695 1.13-.826 1.387-.371.734-.92 2.383-1.08 3.252l-.147.791H10.78V24.61H0V35.39H10.781v-3.632h6.178l.183.908c.345 1.71 1.043 3.302 2.224 5.072l.198.297-3.735 3.734-3.735 3.733-.413-.255c-1.43-.884-4.002-1.206-5.763-.723-1.476.405-2.44.972-3.588 2.11-.824.819-1.097 1.185-1.487 1.999C-1.24 52.978.833 58 5.354 59.559c1.968.678 4.053.54 6.003-.399 1.293-.622 2.794-2.077 3.448-3.344 1.152-2.23 1.207-4.911.144-7.085l-.382-.78 3.732-3.73c3.614-3.613 3.74-3.725 3.996-3.561 1.969 1.266 3.359 1.867 5.1 2.206l.968.189-.031 3.052-.031 3.053-1.787.033-1.787.032V60h10.78V49.219h-3.632v-6.18l1.04-.243a12.774 12.774 0 0 0 4.06-1.682l1.139-.714 3.707 3.708 3.706 3.708-.276.483c-.597 1.044-.87 2.073-.927 3.504-.064 1.59.17 2.656.882 4.032.654 1.263 2.142 2.705 3.427 3.322 1.964.942 4.043 1.08 6.013.402 4.52-1.559 6.594-6.581 4.51-10.926-.615-1.284-2.058-2.773-3.318-3.426-2.244-1.161-4.85-1.228-7.074-.18l-.748.351-3.745-3.744-3.744-3.744.522-.81c.287-.446.628-1.021.758-1.28.372-.735.92-2.384 1.08-3.251l.147-.791H49.22v3.633H60V24.61H49.219v3.632H43.04l-.183-.908c-.344-1.707-.952-3.101-2.198-5.04-.164-.255-.052-.381 3.56-3.995l3.731-3.732.78.382c2.174 1.063 4.855 1.008 7.085-.144 1.068-.551 2.671-2.123 3.207-3.145.686-1.305.919-2.292.913-3.867-.004-1.26-.041-1.51-.361-2.416-1.61-4.56-6.587-6.622-10.942-4.534-.814.39-1.18.663-1.998 1.487-1.139 1.147-1.706 2.112-2.111 3.588-.483 1.761-.16 4.333.724 5.763l.255.414-3.744 3.743-3.744 3.744-.287-.225c-1.117-.875-3.548-1.931-5.18-2.25l-.673-.131V10.78h3.633V0H24.727V10.775l1.787.032 1.787.033.031 3.057.031 3.057-.851.151c-1.587.282-3.372 1.006-4.704 1.91l-.689.467-3.749-3.749-3.748-3.749.352-.748c1.036-2.201.972-4.847-.17-7.052-.665-1.284-2.143-2.72-3.437-3.34C9.727.059 7.895-.183 6.27.172zm3.34 3.725a4.33 4.33 0 0 1 2.134 2.055c.357.727.385.866.385 1.956 0 1.056-.033 1.239-.33 1.819-.433.845-1.234 1.65-2.055 2.066-.596.301-.778.334-1.836.335-1.09 0-1.229-.026-1.956-.384-3.469-1.706-3.12-6.683.558-7.989.928-.329 2.177-.272 3.1.142zm22.382 1.494v1.875h-3.75v-3.75h3.75V5.39zM53.47 3.76c3.691 1.243 4.056 6.273.58 7.983-.729.358-.866.385-1.957.383-1.089 0-1.225-.028-1.877-.37a4.777 4.777 0 0 1-2.014-2.03c-.297-.58-.33-.762-.33-1.819 0-1.09.028-1.23.385-1.956.963-1.958 3.162-2.882 5.213-2.191zM32.931 20.84c3.002.978 5.22 3.194 6.237 6.23.355 1.06.373 1.199.373 2.929 0 1.73-.018 1.87-.372 2.93-.67 1.999-2.07 3.88-3.726 5.002-.942.638-1.456.888-2.63 1.277-.92.305-1.136.33-2.813.331-1.73.001-1.87-.017-2.93-.371-3.018-1.01-5.258-3.253-6.228-6.238-.462-1.419-.582-3.42-.288-4.8.816-3.839 3.63-6.676 7.512-7.574.472-.109 1.206-.149 2.227-.121 1.318.035 1.674.09 2.638.404zm-1.993 6.991L28.42 30.35l-1.145-1.14-1.145-1.14-1.23 1.23-1.23 1.23 2.403 2.4 2.403 2.4 3.691-3.69c2.03-2.029 3.691-3.743 3.691-3.81 0-.065-.54-.659-1.202-1.318l-1.203-1.199-2.517 2.519zM7.265 30v1.875h-3.75v-3.75h3.75V30zm49.218 0v1.875h-3.75v-3.75h3.75V30zM9.727 48.207c.84.422 1.648 1.224 2.066 2.05.301.595.334.777.335 1.835 0 1.09-.026 1.229-.384 1.956-.947 1.926-3.187 2.88-5.175 2.206-1.425-.483-2.339-1.396-2.821-2.818-.46-1.356-.163-2.918.774-4.061.505-.617.95-.938 1.793-1.293.562-.237.81-.272 1.712-.238.87.032 1.169.096 1.7.363zm44.323.05a4.406 4.406 0 0 1 2.062 2.134c.247.533.3.826.306 1.699.007.948-.03 1.133-.361 1.834-.47.99-1.144 1.664-2.133 2.133-.701.332-.886.368-1.834.361-.873-.006-1.166-.059-1.7-.306a4.4 4.4 0 0 1-2.134-2.064c-.357-.727-.385-.866-.385-1.956 0-1.057.033-1.239.33-1.819.422-.824 1.152-1.579 1.897-1.96.875-.45 1.08-.494 2.17-.467.865.022 1.105.077 1.782.41zm-22.058 6.352v1.875h-3.75v-3.75h3.75v1.875z" fill="#fff"/></svg>