<svg width="60" height="60" fill="none" xmlns="http://www.w3.org/2000/svg"><path fill-rule="evenodd" clip-rule="evenodd" d="M4.525.167C2.154.73.476 2.367.074 4.51c-.469 2.496 1.34 5.036 4.125 5.795 1.524.416 3.616.227 4.749-.428.361-.209.306-.232 1.832.772l1.15.757v4.524H5.021v28.136H11.93v4.524l-1.15.757c-1.526 1.004-1.47.98-1.832.772-1.133-.655-3.225-.844-4.749-.428-2.786.759-4.594 3.3-4.125 5.795.586 3.123 3.998 5.126 7.4 4.344 1.704-.391 3.177-1.489 3.963-2.951.414-.772.427-.844.424-2.33l-.003-1.533 2.096-1.375 2.095-1.375v-6.2h11.959v5.614l-.77.361c-3.677 1.73-4.323 6.082-1.27 8.556 2.278 1.844 5.782 1.85 8.052.01 2.097-1.698 2.563-4.43 1.125-6.596-.452-.68-1.626-1.64-2.465-2.015l-.686-.306v-5.624h11.958v6.188l2.096 1.383 2.096 1.383-.003 1.532c-.003 1.483.01 1.556.424 2.327.504.938 1.623 2.024 2.54 2.464 3.652 1.754 8.136-.2 8.82-3.842.472-2.511-1.328-5.049-4.122-5.81-1.524-.416-3.617-.227-4.749.428-.361.209-.306.232-1.832-.772l-1.15-.757v-4.524H54.98V15.93h-6.91v-4.524l1.15-.757c1.527-1.004 1.472-.98 1.833-.772 1.12.648 3.233.844 4.712.438 2.82-.775 4.63-3.308 4.16-5.82C59.24.849 54.76-1.102 51.103.653c-.916.44-2.035 1.526-2.539 2.464-.414.771-.427.844-.424 2.327l.003 1.532-2.096 1.383-2.096 1.383v6.188H31.993V10.307l.688-.307c.838-.375 2.012-1.335 2.464-2.015 1.438-2.166.972-4.898-1.125-6.596-2.767-2.242-7.226-1.661-9.162 1.193-1.096 1.614-1.096 3.754 0 5.403.451.68 1.625 1.64 2.463 2.015l.687.307V15.93H16.049v-6.2l-2.095-1.375-2.096-1.375.003-1.533c.003-1.486-.01-1.558-.424-2.33-.504-.938-1.623-2.024-2.54-2.464C7.573.017 5.926-.167 4.525.167zM6.883 3.72c.671.315 1.061.877 1.06 1.53 0 1.593-2.079 2.367-3.347 1.246-.742-.655-.8-1.61-.141-2.302.65-.68 1.594-.865 2.428-.474zm23.982.017c1 .428 1.4 1.489.883 2.347-.756 1.254-2.792 1.252-3.507-.004-.494-.867-.1-1.91.886-2.34.68-.298 1.046-.298 1.738-.003zm24.222.083c.924.608 1.165 1.424.664 2.25-.987 1.629-3.691 1.029-3.693-.82-.001-1.36 1.826-2.223 3.03-1.43zm-4.093 26.178v10.551H9.008V19.447h41.988v10.551zm-38 0v7.034h3.98l.036-2.357.036-2.358 1.262 2.357 1.262 2.356 1.695.001 1.694.001V22.964h-3.987l-.01 2.315-.012 2.316-1.275-2.316-1.274-2.315h-3.408v7.034zm11.958 0v7.034h3.979l.037-1.73.036-1.728 2.027-.033 2.026-.032v-3.511h-4.12v-3.517h4.12v-3.517h-8.105v7.034zm10.098-5.276v1.759h3.986v10.551h3.986V26.481h3.986v-3.517H35.05v1.759zM6.982 53.21c.921.495 1.25 1.634.701 2.428-.289.419-1.139.855-1.664.855-.878 0-1.841-.703-2.002-1.461-.154-.721.432-1.668 1.203-1.945.485-.175 1.316-.117 1.762.123zm24.095.032c.89.525 1.153 1.5.627 2.327-.306.48-1.125.924-1.703.924-.578 0-1.397-.444-1.703-.924-.757-1.19.165-2.593 1.703-2.593.428 0 .767.084 1.076.266zm23.902-.048c.965.456 1.326 1.723.7 2.461-1.21 1.43-3.623.825-3.621-.908.001-1.357 1.572-2.192 2.922-1.553z" fill="#fff"/></svg>