<svg width="20" height="20" fill="none" xmlns="http://www.w3.org/2000/svg"><g clip-path="url(#a)"><path d="M14.5 18.334A12.85 12.85 0 0 1 1.665 5.5a3.833 3.833 0 0 1 3.833-3.833c.216-.002.43.018.642.058.204.03.405.08.6.15a.833.833 0 0 1 .542.625l1.141 5a.833.833 0 0 1-.216.767c-.109.117-.117.125-1.142.658A8.258 8.258 0 0 0 11.124 13c.542-1.033.55-1.041.667-1.15a.835.835 0 0 1 .767-.216l5 1.141a.835.835 0 0 1 .6.542 3.617 3.617 0 0 1 .208 1.242 3.833 3.833 0 0 1-3.867 3.775zm-9-15A2.175 2.175 0 0 0 3.332 5.5a11.175 11.175 0 0 0 11.166 11.167 2.175 2.175 0 0 0 2.167-2.167v-.275l-3.867-.891-.241.458c-.375.725-.65 1.25-1.35.967A9.875 9.875 0 0 1 5.224 8.75c-.3-.65.267-.95.984-1.325l.458-.225-.892-3.866H5.5z" fill="#484649"/></g><defs><clipPath id="a"><path fill="#fff" d="M0 0h20v20H0z"/></clipPath></defs></svg>