<svg width="60" height="60" fill="none" xmlns="http://www.w3.org/2000/svg"><g clip-path="url(#a)"><path d="M33.983.188c-7.195 1.137-13.3 5.437-16.664 11.742-4.277 7.98-3.351 17.836 2.332 24.867.915 1.137 2.895 3.047 4.02 3.88a22.85 22.85 0 0 0 20.918 3.374c8.098-2.695 14.027-9.82 15.234-18.281.223-1.617.223-4.828 0-6.422-.984-6.703-4.875-12.563-10.734-16.137C47.003 1.934 44.46.938 41.894.4c-1.23-.27-1.746-.317-4.102-.352-2.004-.023-2.988.012-3.809.14zm5.942 3.574c7.957 1.102 14.355 7.066 16.101 15.012.305 1.383.434 4.734.235 6.21-.422 3.2-1.746 6.41-3.703 9.024-.41.54-1.313 1.535-2.016 2.215-6.727 6.492-16.992 7.16-24.55 1.605-.54-.386-1.524-1.265-2.204-1.957-3.785-3.843-5.683-8.73-5.473-14.074.223-5.18 2.438-9.832 6.41-13.406 2.462-2.215 6-3.926 9.329-4.512 1.476-.258 4.418-.316 5.87-.117z" fill="url(#b)"/><path d="M35.508 17.754v6.621h13.36v-3.633H39.14v-9.609h-3.633v6.62z" fill="url(#c)"/><path d="M4.3 26.46C1.935 28.829 0 30.82 0 30.88c0 .07.55.668 1.219 1.336l1.23 1.219.797-.715c.434-.387 2.414-2.332 4.406-4.325l3.598-3.609-1.324-1.324-1.313-1.313-4.312 4.313z" fill="url(#d)"/><path d="m6.328 37.793-4.746 4.746 1.23 1.23C3.493 44.45 4.09 45 4.16 45c.059 0 2.227-2.11 4.805-4.688l4.687-4.687-1.289-1.29-1.289-1.288-4.746 4.746z" fill="url(#e)"/><path d="M9.633 47.79 4.09 53.261l1.312 1.324 1.325 1.324 5.484-5.484c3.012-3.012 5.484-5.543 5.484-5.602 0-.117-2.355-2.52-2.46-2.52-.036 0-2.555 2.473-5.602 5.485z" fill="url(#f)"/><path d="m19.64 51.082-4.675 4.676.703.808c.398.434.96 1.032 1.254 1.325l.539.515.621-.574c1.664-1.57 8.871-8.8 8.871-8.906 0-.153-2.367-2.52-2.52-2.52-.058 0-2.226 2.11-4.792 4.676z" fill="url(#g)"/><path d="m30.902 53.18-4.3 4.3 1.289 1.29 1.277 1.277 4.313-4.266c2.367-2.355 4.335-4.324 4.359-4.383.047-.117-2.332-2.53-2.508-2.53-.059 0-2.05 1.933-4.43 4.312z" fill="url(#h)"/></g><defs><linearGradient id="b" x1="10.164" y1="40.294" x2="70.917" y2="28.358" gradientUnits="userSpaceOnUse"><stop stop-color="#3F14A5"/><stop offset="1" stop-color="#5FC2EE"/></linearGradient><linearGradient id="c" x1="34.186" y1="22.93" x2="52.079" y2="19.395" gradientUnits="userSpaceOnUse"><stop stop-color="#3F14A5"/><stop offset="1" stop-color="#5FC2EE"/></linearGradient><linearGradient id="d" x1="-1.113" y1="32.202" x2="13.968" y2="29.258" gradientUnits="userSpaceOnUse"><stop stop-color="#3F14A5"/><stop offset="1" stop-color="#5FC2EE"/></linearGradient><linearGradient id="e" x1=".388" y1="43.695" x2="16.553" y2="40.499" gradientUnits="userSpaceOnUse"><stop stop-color="#3F14A5"/><stop offset="1" stop-color="#5FC2EE"/></linearGradient><linearGradient id="f" x1="2.743" y1="54.425" x2="20.979" y2="50.855" gradientUnits="userSpaceOnUse"><stop stop-color="#3F14A5"/><stop offset="1" stop-color="#5FC2EE"/></linearGradient><linearGradient id="g" x1="13.778" y1="57.096" x2="29.847" y2="53.953" gradientUnits="userSpaceOnUse"><stop stop-color="#3F14A5"/><stop offset="1" stop-color="#5FC2EE"/></linearGradient><linearGradient id="h" x1="25.489" y1="58.827" x2="40.547" y2="55.863" gradientUnits="userSpaceOnUse"><stop stop-color="#3F14A5"/><stop offset="1" stop-color="#5FC2EE"/></linearGradient><clipPath id="a"><path fill="#fff" d="M0 0h60v60H0z"/></clipPath></defs></svg>