<svg width="60" height="60" fill="none" xmlns="http://www.w3.org/2000/svg"><g clip-path="url(#a)"><path d="M5.625.27A7.968 7.968 0 0 0 .27 5.672C.059 6.375 0 6.89 0 7.84c0 1.5.188 2.297.844 3.644.375.786.68 1.196 1.43 1.946 1.066 1.054 1.804 1.523 3.175 1.992.809.281 1.125.328 2.344.328 1.547.012 2.59-.223 3.773-.855l.598-.329 3.668 3.668c3.246 3.246 3.656 3.703 3.54 3.891-1.184 1.652-1.981 3.574-2.438 5.79l-.059.327h-5.977v-3.75H0v11.016h10.898v-3.75h2.977c3.188 0 3.117-.012 3.117.586 0 .855 1.184 3.773 2.04 5.027l.433.645-3.68 3.68-3.68 3.679-.574-.293c-1.219-.621-2.215-.844-3.738-.832-1.219 0-1.535.047-2.344.328-1.37.469-2.11.938-3.176 1.992C1.22 47.625.516 48.855.164 50.262c-.258 1.054-.176 3.304.164 4.347.75 2.285 2.777 4.313 5.063 5.063 1.043.34 3.293.422 4.347.164 1.407-.352 2.637-1.055 3.692-2.11 1.054-1.066 1.523-1.804 1.992-3.175.293-.832.328-1.102.328-2.403-.012-1.277-.047-1.582-.328-2.402-.164-.516-.41-1.125-.54-1.348l-.222-.41 3.703-3.703 3.692-3.703.61.41c1.218.832 4.148 2.016 4.991 2.016.598 0 .586-.07.586 3.117v2.977H24.61V60H35.508V49.102h-3.633v-2.989c0-2.297.035-3 .152-3.035.07-.023.586-.152 1.137-.281 1.523-.352 3.328-1.184 4.711-2.168.188-.117.645.293 3.89 3.539l3.669 3.668-.328.598c-.633 1.183-.868 2.226-.856 3.773 0 1.219.047 1.535.328 2.344.469 1.37.938 2.11 1.992 3.176 1.055 1.054 2.285 1.757 3.692 2.109 1.054.258 3.304.176 4.347-.164 2.285-.75 4.313-2.777 5.063-5.063.34-1.043.422-3.293.164-4.347-.352-1.407-1.055-2.637-2.11-3.692-1.066-1.054-1.804-1.523-3.175-1.992-.809-.281-1.125-.328-2.344-.328-1.5 0-2.168.129-3.492.727l-.692.293-3.68-3.68-3.69-3.692.585-.96c.89-1.477 1.442-2.942 1.828-4.864l.059-.316h5.977v3.75H60V24.492H49.102v3.75h-2.977c-3.188 0-3.117.012-3.117-.586 0-.843-1.184-3.773-2.016-4.992l-.41-.61 3.703-3.69 3.703-3.704.41.223c.223.129.832.375 1.348.539.82.281 1.125.316 2.402.328 1.301 0 1.57-.035 2.403-.328 1.37-.469 2.11-.938 3.176-1.992.75-.75 1.054-1.16 1.43-1.946.656-1.347.843-2.144.843-3.644 0-2.227-.738-4.02-2.273-5.567C56.18.738 54.387 0 52.16 0c-1.5 0-2.297.188-3.644.844-.785.375-1.196.68-1.946 1.43-1.054 1.066-1.523 1.804-1.992 3.175-.281.809-.328 1.125-.328 2.344-.012 1.523.21 2.52.832 3.738l.293.574-3.68 3.68-3.68 3.68-.644-.422a13.343 13.343 0 0 0-4.5-1.922l-.937-.21-.036-3-.023-3.013h3.633V0H24.609v10.898h3.633v5.977l-.316.059c-1.922.386-3.387.937-4.863 1.828l-.961.586-3.692-3.692-3.68-3.68.293-.69c.598-1.325.727-1.993.727-3.493 0-1.219-.047-1.535-.328-2.344-.469-1.37-.938-2.11-1.992-3.176-.75-.75-1.16-1.054-1.946-1.43C10.114.177 9.34 0 7.793.013c-.973 0-1.5.058-2.168.258zm26.25 5.12v1.876h-3.633v-3.75h3.633V5.39zM9.82 4.103c1.5.796 2.285 2.109 2.297 3.808.012 1.16-.34 1.98-1.219 2.918-.855.902-1.757 1.29-2.988 1.29-1.687-.013-3.023-.81-3.808-2.298-.329-.62-.41-.89-.446-1.687-.105-1.957.844-3.469 2.649-4.23.574-.235.82-.27 1.722-.235.938.035 1.137.082 1.793.434zm44.11-.094c.855.398 1.664 1.207 2.062 2.062.281.586.317.82.317 1.84 0 1.113-.024 1.207-.399 1.91-.808 1.489-2.133 2.285-3.82 2.297-1.16.012-1.98-.34-2.918-1.219-.902-.855-1.29-1.757-1.29-2.988.013-1.945 1.067-3.422 2.954-4.125.727-.258 2.297-.152 3.094.223zM32.414 20.754c1.84.48 3.738 1.7 4.969 3.187.715.868 1.652 2.754 1.945 3.891.281 1.102.27 3.223 0 4.336-.117.445-.469 1.348-.773 1.992-.996 2.04-2.356 3.399-4.395 4.395-1.582.761-2.496.984-4.16.984-1.664 0-2.578-.223-4.16-.984-2.04-.996-3.399-2.356-4.395-4.395-.761-1.558-.972-2.484-.972-4.16-.012-1.664.21-2.578.972-4.16.95-1.945 2.262-3.317 4.102-4.266 2.226-1.16 4.523-1.43 6.867-.82zM7.266 30v1.875h-3.75v-3.75h3.75V30zm49.218 0v1.875h-3.75v-3.75h3.75V30zM9.586 48.223c.89.41 1.805 1.324 2.203 2.215.281.597.328.867.328 1.652-.012 1.687-.808 3.012-2.297 3.82-.703.375-.797.399-1.91.399-1.02 0-1.254-.036-1.84-.317-.855-.398-1.664-1.207-2.062-2.062-.281-.586-.317-.809-.317-1.84 0-1.055.036-1.23.329-1.793 1.125-2.145 3.492-3.024 5.566-2.074zm44.121-.059c.855.328 1.7 1.09 2.203 2.016.375.703.399.797.399 1.91 0 1.02-.036 1.254-.317 1.84-.398.855-1.207 1.664-2.062 2.062-.586.281-.82.317-1.84.317-1.113 0-1.207-.024-1.91-.399-1.489-.808-2.285-2.133-2.297-3.82 0-.785.047-1.055.316-1.64.563-1.208 1.746-2.204 2.977-2.52.633-.153 1.758-.047 2.531.234zM31.875 54.61v1.875h-3.633v-3.75h3.633v1.875z" fill="url(#b)"/><path d="m30.879 27.773-2.461 2.461-1.137-1.136-1.148-1.149-1.29 1.29-1.288 1.288 2.46 2.461 2.462 2.461 3.75-3.75c2.062-2.062 3.75-3.797 3.75-3.867 0-.152-2.368-2.52-2.52-2.52-.07 0-1.23 1.102-2.578 2.461z" fill="url(#c)"/></g><defs><linearGradient id="b" x1="-5.938" y1="53.451" x2="74.48" y2="37.706" gradientUnits="userSpaceOnUse"><stop stop-color="#3F14A5"/><stop offset="1" stop-color="#5FC2EE"/></linearGradient><linearGradient id="c" x1="22.325" y1="34.343" x2="38.672" y2="30.421" gradientUnits="userSpaceOnUse"><stop stop-color="#3F14A5"/><stop offset="1" stop-color="#5FC2EE"/></linearGradient><clipPath id="a"><path fill="#fff" d="M0 0h60v60H0z"/></clipPath></defs></svg>