<svg width="24" height="24" viewBox="0 0 24 24" fill="none" xmlns="http://www.w3.org/2000/svg">
<path fill-rule="evenodd" clip-rule="evenodd" d="M6.01194 4.91655C7.57487 3.35363 9.69465 2.47559 11.905 2.47559C14.1153 2.47559 16.235 3.35363 17.798 4.91655C19.3609 6.47948 20.2389 8.59926 20.2389 10.8096C20.2389 13.0199 19.3609 15.1397 17.798 16.7026L11.905 22.5956L6.01194 16.7026C5.23801 15.9287 4.62409 15.01 4.20524 13.9989C3.78638 12.9877 3.5708 11.904 3.5708 10.8096C3.5708 9.71512 3.78638 8.63138 4.20524 7.62026C4.62409 6.60913 5.23801 5.69041 6.01194 4.91655V4.91655ZM11.905 13.1906C12.5364 13.1906 13.1421 12.9397 13.5886 12.4932C14.0351 12.0467 14.286 11.4411 14.286 10.8096C14.286 10.1781 14.0351 9.57246 13.5886 9.12593C13.1421 8.67941 12.5364 8.42855 11.905 8.42855C11.2735 8.42855 10.6679 8.67941 10.2213 9.12593C9.7748 9.57246 9.52394 10.1781 9.52394 10.8096C9.52394 11.4411 9.7748 12.0467 10.2213 12.4932C10.6679 12.9397 11.2735 13.1906 11.905 13.1906Z" fill="#3F14A5"/>
</svg>
