<svg width="60" height="60" fill="none" xmlns="http://www.w3.org/2000/svg"><g clip-path="url(#a)"><path d="M28.535.668a63.822 63.822 0 0 1-12.48 4.77c-3.516.925-6.024 1.312-9.774 1.5l-2.683.14.07 4.102c.082 5.144.387 8.543 1.137 12.96 1.77 10.278 5.168 18.422 10.535 25.196 1.183 1.5 4.36 4.664 5.87 5.86 2.544 2.015 5.556 3.761 7.817 4.535l.95.316.867-.27c2.062-.644 5.59-2.683 8.062-4.652 1.348-1.078 4.676-4.418 5.754-5.79 5.38-6.796 8.766-14.917 10.535-25.194.75-4.407 1.043-7.793 1.137-12.961l.07-4.102-2.683-.14c-1.477-.07-3.422-.247-4.325-.375-5.742-.856-11.882-2.86-17.742-5.79C30.81.352 30.06 0 29.977.012c-.082 0-.727.293-1.442.656zm2.613 3.95c6.07 3.046 14.168 5.355 20.625 5.882l.961.082v1.066c0 1.348-.187 4.29-.422 6.575-1.195 11.789-4.792 21.644-10.5 28.793-1.183 1.476-3.785 4.113-5.132 5.18-1.559 1.242-3.68 2.6-5.25 3.374l-1.43.715-1.453-.726c-1.606-.797-3.692-2.145-5.227-3.364-1.3-1.043-3.925-3.68-5.05-5.086-5.778-7.195-9.399-17.086-10.582-28.886-.235-2.285-.422-5.227-.422-6.575v-1.066l.972-.082c6.282-.516 13.57-2.555 20.004-5.59.938-.445 1.735-.808 1.793-.808.047 0 .55.234 1.113.515z" fill="url(#b)"/><path d="M27.245 10.734c-5.297.926-9.867 4.618-11.895 9.586-.808 1.98-1.078 3.27-1.136 5.532-.07 2.378.105 3.796.738 5.66 1.84 5.52 6.703 9.691 12.352 10.617 1.43.223 3.96.223 5.39 0 6.504-1.055 11.895-6.445 12.95-12.95.199-1.288.234-3.855.046-5.073-.879-5.954-5.039-10.922-10.687-12.797a20.545 20.545 0 0 0-2.297-.575c-1.371-.234-4.16-.234-5.461 0zm4.113 3.493c1.043.082 2.649.539 3.774 1.066 3.293 1.547 5.73 4.512 6.726 8.145.235.867.27 1.265.27 3.046 0 2.391-.188 3.293-1.067 5.145-1.699 3.61-4.851 6.07-8.824 6.867-1.348.281-4.008.188-5.344-.176-2.039-.55-4.43-1.98-5.789-3.468-1.383-1.512-2.449-3.422-2.964-5.32-.235-.856-.27-1.278-.27-3.048 0-1.78.035-2.18.27-3.047 1.195-4.359 4.382-7.628 8.636-8.847.996-.293 2.813-.527 3.457-.457.164.023.668.058 1.125.094z" fill="url(#c)"/><path d="m31.969 25.348-3.715 3.773-1.992-1.992-2.004-1.992-1.313 1.324-1.324 1.312 3.305 3.305 3.305 3.305 5.015-5.086c2.754-2.79 5.016-5.145 5.016-5.215 0-.129-2.426-2.531-2.532-2.508-.023 0-1.722 1.7-3.761 3.774z" fill="url(#d)"/></g><defs><linearGradient id="b" x1="-1.628" y1="53.494" x2="69.742" y2="41.203" gradientUnits="userSpaceOnUse"><stop stop-color="#3F14A5"/><stop offset="1" stop-color="#5FC2EE"/></linearGradient><linearGradient id="c" x1="11.071" y1="38.832" x2="53.455" y2="30.566" gradientUnits="userSpaceOnUse"><stop stop-color="#3F14A5"/><stop offset="1" stop-color="#5FC2EE"/></linearGradient><linearGradient id="d" x1="19.974" y1="32.985" x2="41.725" y2="27.452" gradientUnits="userSpaceOnUse"><stop stop-color="#3F14A5"/><stop offset="1" stop-color="#5FC2EE"/></linearGradient><clipPath id="a"><path fill="#fff" d="M0 0h60v60H0z"/></clipPath></defs></svg>