<svg width="61" height="60" fill="none" xmlns="http://www.w3.org/2000/svg"><g clip-path="url(#a)"><path d="M27.02 4.148c-2.813.68-4.84 3.293-4.84 6.2 0 .855.258 2.015.586 2.66.129.258.234.48.234.515 0 .024-.387.27-.867.528-1.688.926-3.117 2.59-3.774 4.418l-.328.925-.047 3.833-.035 3.843h38.824l-.058-3.55c-.07-4.008-.13-4.43-.926-6.06-.645-1.312-2.074-2.776-3.352-3.444-.503-.258-.831-.504-.796-.575.574-1.312.691-1.734.738-2.718.105-1.957-.48-3.516-1.84-4.864-1.219-1.23-2.742-1.875-4.418-1.875a6.347 6.347 0 0 0-6.363 6.364c0 .855.258 2.015.586 2.66.129.258.234.48.234.515 0 .024-.398.27-.879.528-.48.27-1.218.808-1.64 1.195l-.762.715-.82-.762c-.446-.41-1.184-.949-1.641-1.195-.492-.246-.809-.492-.773-.563.574-1.312.69-1.734.738-2.718.105-1.97-.492-3.54-1.828-4.864-.88-.879-1.864-1.441-2.953-1.699-.891-.21-2.157-.21-3-.012zm2.543 3.715c.703.317 1.03.633 1.359 1.336.504 1.067.316 2.145-.54 2.989-.843.855-1.921 1.042-2.988.539-.703-.329-1.019-.657-1.335-1.36-.586-1.3-.024-2.789 1.3-3.445.75-.375 1.465-.387 2.203-.059zm17.578 0c.703.317 1.03.633 1.359 1.336.504 1.067.316 2.145-.54 2.989-.843.855-1.92 1.042-2.987.539-.703-.329-1.02-.657-1.336-1.36-.586-1.3-.024-2.789 1.3-3.445.75-.375 1.465-.387 2.204-.059zm-14.883 8.989c.75.246 1.676.89 2.18 1.511.761.938.996 1.7 1.066 3.516l.07 1.558H21.57l.047-1.734c.035-1.629.059-1.758.375-2.426a4.702 4.702 0 0 1 3.059-2.472c.75-.2 6.597-.153 7.207.047zm18.187.293c1.922.937 2.66 2.414 2.672 5.261v1.032H39.148l.047-1.735c.035-1.629.059-1.758.375-2.426.41-.82 1.23-1.687 1.957-2.062.996-.504 1.489-.563 4.864-.54l3.164.024.89.445z" fill="url(#b)"/><path d="M15.559 30.55c-2.403.376-4.934 1.641-6.504 3.247l-.516.539H.5v3.633h3.633v14.414H.5v3.633l20.484-.035c20.309-.036 20.485-.036 21.293-.27 2.555-.762 3.504-1.395 6.504-4.324 10.547-10.301 10.746-10.5 11.215-11.496.398-.844.445-1.032.48-2.11.07-1.84-.34-2.965-1.535-4.242-1.066-1.125-2.367-1.664-4.02-1.664-1.112 0-2.179.281-2.976.797-.293.2-2.578 2.191-5.097 4.441l-4.57 4.102-.071-1.067c-.117-1.687-.668-2.87-1.863-3.984-.399-.363-.985-.797-1.301-.95-1.207-.62-1.5-.644-7.23-.644h-5.32l-.88-.82c-1.582-1.477-3.234-2.402-5.285-2.953-.68-.176-1.336-.246-2.66-.27-.961-.023-1.91-.011-2.11.024zm4.277 3.903c1.91.645 3.55 1.91 4.406 3.363l.211.387h6.2c6.69 0 6.503-.012 7.206.633 1.207 1.09.88 3.094-.644 3.867-.328.164-1.02.188-5.66.188H26.28v3.632H41.843l5.895-5.285c3.246-2.906 6.07-5.39 6.258-5.52.469-.292 1.559-.245 2.027.106.856.633 1.114 1.782.575 2.614-.141.234-3.024 3.128-6.41 6.445-6.516 6.375-6.797 6.62-8.438 7.183l-.762.258-16.605.035-16.617.024V37.969H10.437l.293-.504c.81-1.371 2.895-2.754 4.817-3.2 1.066-.245 3.316-.14 4.289.188z" fill="url(#c)"/></g><defs><linearGradient id="b" x1="14.107" y1="24.551" x2="62.853" y2="8.5" gradientUnits="userSpaceOnUse"><stop stop-color="#3F14A5"/><stop offset="1" stop-color="#5FC2EE"/></linearGradient><linearGradient id="c" x1="-5.436" y1="53.232" x2="63.433" y2="21.513" gradientUnits="userSpaceOnUse"><stop stop-color="#3F14A5"/><stop offset="1" stop-color="#5FC2EE"/></linearGradient><clipPath id="a"><path fill="#fff" transform="translate(.5)" d="M0 0h60v60H0z"/></clipPath></defs></svg>